<svg width="246" height="56" viewBox="0 0 246 56" fill="none" xmlns="http://www.w3.org/2000/svg">
<g clip-path="url(#clip0_1281_316)">
<g clip-path="url(#clip1_1281_316)">
<path d="M247.724 -1.30233H220.7V6.93792H247.724V-1.30233Z" fill="#FF5722"/>
<path d="M188.525 14.2531V36.3672C188.525 38.8897 188.018 40.7396 187.258 41.6645C186.16 42.9258 184.893 43.5144 182.951 43.5144C181.009 43.5144 179.657 42.9258 178.56 41.6645C178.053 41.0759 177.462 39.6465 177.462 36.3672V14.2531H166.906V36.199C166.906 41.5804 168.088 45.5324 170.537 48.3071C173.408 51.3342 177.631 52.9318 182.951 52.9318C188.271 52.9318 192.494 51.4183 195.365 48.3071C197.814 45.6165 199.081 41.4963 199.081 36.199V14.2531H188.525Z" fill="white"/>
<path d="M14.0541 43.8508V37.2923H30.7751V29.3043H14.0541V23.2502H33.0552V14.7577H3.49802V52.3433H33.8152V43.8508H14.0541Z" fill="white"/>
<path d="M93.6052 14.5049H82.7957V52.595H93.6052V14.5049Z" fill="white"/>
<path d="M161.501 14.5049H150.692V52.595H161.501V14.5049Z" fill="white"/>
<path d="M135.324 52.595L135.239 32.4148L125.359 48.8112H120.545L110.749 32.9193V52.595H100.784V14.5049H109.736L123.163 36.5349L136.253 14.5049H145.12L145.204 52.595H135.324Z" fill="white"/>
<path d="M64.8931 52.2594L57.1238 40.6558L49.4389 52.2594H37.2783L51.0435 33.3404L37.8694 14.8419H49.8612L57.3772 25.6047L64.8087 14.8419H76.2937L63.2041 32.92L77.1382 52.2594H64.8931Z" fill="white"/>
<path d="M211.412 51.9229C208.541 51.1662 206.176 50.1571 204.403 48.8959L207.865 41.0761C209.554 42.1692 211.496 43.0941 213.692 43.7667C215.888 44.4394 218.083 44.7758 220.279 44.7758C224.333 44.7758 226.444 43.7668 226.444 41.7487C226.444 39.7307 225.853 39.8989 224.67 39.3944C223.488 38.8899 221.63 38.3013 219.012 37.7968C216.141 37.2082 213.861 36.5355 211.919 35.8628C210.061 35.1902 208.372 34.013 207.021 32.4995C205.669 30.986 204.994 28.8839 204.994 26.2773C204.994 23.6707 205.585 21.9049 206.852 20.1391C208.118 18.2893 209.976 16.8598 212.51 15.7667C214.959 14.6737 218.083 14.1692 221.63 14.1692C225.177 14.1692 226.528 14.4214 228.977 15.01C231.342 15.5986 233.453 16.3553 235.311 17.4484L232.017 25.3523C228.471 23.4184 224.924 22.4935 221.63 22.4935C218.337 22.4935 217.999 22.8298 216.986 23.4184C216.057 24.007 215.55 24.8478 215.55 25.8568C215.55 26.8658 216.141 27.6226 217.239 28.1271C218.421 28.6316 220.195 29.1361 222.812 29.6406C225.684 30.2292 228.048 30.9019 229.906 31.5746C231.764 32.2472 233.453 33.3403 234.804 34.8538C236.155 36.3674 236.831 38.4695 236.831 40.992C236.831 43.5145 236.24 45.2803 234.973 47.1301C233.706 48.98 231.849 50.4094 229.315 51.5025C226.782 52.5956 223.741 53.1001 220.195 53.1001C216.648 53.1001 214.199 52.7637 211.327 52.007" fill="white"/>
</g>
</g>
<defs>
<clipPath id="clip0_1281_316">
<rect width="246" height="56" fill="white"/>
</clipPath>
<clipPath id="clip1_1281_316">
<rect width="246" height="56" fill="white" transform="translate(1.30159 -1.30233)"/>
</clipPath>
</defs>
</svg>
