<svg preserveAspectRatio="none" width="100%" height="100%" overflow="visible" style="display: block;" viewBox="0 0 407.828 296.926" fill="none" xmlns="http://www.w3.org/2000/svg">
<g id="13">
<path id="Vector" d="M249.974 273.745L250.291 102.219V101.397L249.825 101.242L246.027 99.9999L239.745 97.9489L233.521 92.65L231.8 91.5824L222.121 88.3539L215.476 82.7768L213.748 81.7157L204.212 78.5907L202.879 77.4779L197.541 73.0201L195.807 71.959L186.212 68.8211L180.887 64.3503L179.581 63.2504L177.853 62.1893L173.764 60.8565L168.297 59.0708L168.019 58.8379L160.604 52.6138L159.938 52.7108L0.938146 75.0711L0.317029 75.1616V75.8992L0 247.425L3.65553 249.43L10.3972 251.611L17.2037 257.278L18.9376 258.333L28.3126 261.361L35.1578 267.048L36.8983 268.103L42.6824 269.985L46.2927 271.163L47.082 271.823L53.0926 276.811L54.833 277.866L64.221 280.894L71.1891 286.613L72.936 287.661L81.8452 290.482L89.3309 296.719L90.3596 296.926L215.444 279.348L249.34 274.586L249.961 274.501V273.764L249.974 273.745ZM244.824 270.697L240.696 268.251L240.942 268.219L239.687 267.624L239.991 103.675L249.262 102.374L249.191 139.292L248.939 273.143L244.824 270.704V270.697ZM20.2769 85.6559L159.899 66.0325L159.886 72.4378L108.514 79.6583L28.9984 90.8319L25.3494 88.6645L20.2769 85.6559ZM159.879 73.4794V77.2903L159.051 77.4067L36.8141 94.5845L36.193 94.2998L34.9249 93.6916L30.6483 91.6407L131.101 77.5232L159.879 73.4794ZM34.4397 94.5974L36.193 95.4385L35.9213 242.372L29.1213 243.329L29.3996 92.1841L34.4332 94.5974H34.4397ZM213.425 253.817L205.266 248.984L205.169 248.926L205.402 248.893L204.154 248.298L204.412 108.676L213.697 107.369L213.561 181.528L213.425 253.823V253.817ZM90.4308 264.007V260.313L195.885 245.49L196.506 245.859V245.775L198.311 246.642L201.876 248.35L118.109 260.125L90.4308 264.014V264.007ZM159.86 85.7853V89.5703L120.859 95.0503L54.7554 104.341L54.1343 104.057L52.9567 103.494L48.6218 101.417L84.4784 96.3767L159.86 85.7853ZM47.3796 101.96L52.1674 104.257L54.1343 105.202L53.8819 239.848L47.1208 240.799L47.3796 101.96ZM90.4373 259.271L90.4502 252.717L145.781 244.94L185.526 239.357L187.946 240.793L194.461 244.656L90.4308 259.278L90.4373 259.271ZM195.62 170.691L195.484 244.06L188.626 239.997L187.163 239.13L187.403 239.098L186.154 238.503L186.393 111.212L195.736 109.899L195.626 170.697L195.62 170.691ZM90.4567 251.675V248.013L177.931 235.72L178.552 236.089V236.005L183.877 238.548L143.083 244.28L90.4632 251.675H90.4567ZM177.756 107.609V111.374L168.446 112.681V108.915L170.413 108.637L177.756 107.609ZM90.6896 124.65L159.808 114.939L159.601 224.993L90.4826 234.705L90.6896 124.65ZM167.204 228.254L160.63 225.11L160.837 114.79L167.417 113.865L167.204 228.254ZM159.808 113.897L90.2561 123.673L84.1808 120.762L159.815 110.132V113.897H159.808ZM82.9386 121.305L83.5079 121.577L89.6609 124.528L89.4538 234.847L82.7186 235.792L82.9321 121.305H82.9386ZM177.659 161.879L177.523 234.284L169.242 229.38L169.481 229.348L168.232 228.752L168.446 113.729L177.75 112.422L177.659 161.885V161.879ZM167.417 112.83L160.837 113.755V109.99L167.423 109.064V112.83H167.417ZM159.815 109.09L82.531 119.953L79.8783 118.375L74.2753 115.043L159.828 103.021L159.815 109.097V109.09ZM73.1172 192.993L73.2595 115.638L78.6878 118.866L80.8941 120.18L81.8969 120.807L81.6834 235.934L73.0266 237.15L73.1107 192.986L73.1172 192.993ZM82.7186 236.833L89.4538 235.889V239.551L82.7121 240.495V236.833H82.7186ZM90.4761 239.408V235.746L160.035 225.97L165.955 228.798L118.135 235.52L90.4761 239.408ZM185.119 238.004L178.545 234.866L178.772 112.273L185.352 111.348L185.119 238.004ZM159.828 101.973L72.8584 114.195L72.2372 113.91L66.5501 111.174L159.834 98.0653V101.98L159.828 101.973ZM65.3079 111.723L72.2308 115.062L72.0043 237.306L65.075 238.283L65.3079 111.73V111.723ZM90.4761 240.45L119.74 236.335L167.611 229.606L176.507 234.879L90.4632 246.972L90.4761 240.444V240.45ZM167.43 108.023L160.85 108.948L160.863 102.873L167.443 101.947L167.43 108.023ZM73.0331 238.198L81.6899 236.982V240.644L73.0266 241.86V238.198H73.0331ZM82.7121 241.537L89.4474 240.592L89.4344 247.121L82.6992 248.065L82.7121 241.537ZM185.358 110.307L178.778 111.232V107.466L185.365 106.541V110.307H185.358ZM177.763 106.573L169.222 107.777L168.465 107.88L168.478 101.805L177.782 100.498L177.769 106.573H177.763ZM167.443 100.906L160.863 101.831V97.9165L167.449 96.9913V100.906H167.443ZM55.0206 180.765L55.163 105.778L61.2189 109.375L63.2699 110.591L64.2792 111.219L64.0398 238.412L54.9042 239.693L55.0142 180.752L55.0206 180.765ZM65.075 239.318L72.0043 238.341V242.003L65.062 242.98V239.318H65.075ZM73.0266 242.902L81.6834 241.686L81.6705 248.214L73.0136 249.43L73.0266 242.902ZM195.73 108.851L186.387 110.164V106.399L195.736 105.085V108.851H195.73ZM167.449 95.9561L160.869 96.8813L160.882 90.4696L167.462 89.5444L167.449 95.9561ZM159.847 90.6119L159.834 97.0237L64.9003 110.365L56.1658 105.182L122.509 95.8591L159.847 90.6119ZM54.9107 240.748L64.0463 239.467V243.129L54.9042 244.41V240.748H54.9107ZM82.6992 249.107L89.4344 248.162V251.824L82.6927 252.769V249.107H82.6992ZM196.512 244.636L196.765 109.744L203.39 108.812L203.131 247.8L200.026 246.312L196.512 244.63V244.636ZM185.371 105.499L178.791 106.425L178.804 100.349L185.384 99.424L185.371 105.499ZM177.775 99.4564L168.472 100.763V96.849L177.782 95.5421V99.4564H177.775ZM65.062 244.021L71.9914 243.044L71.9784 249.573L65.0491 250.55L65.062 244.021ZM73.0136 250.466L81.6705 249.249V252.911L73.0072 254.128V250.466H73.0136ZM82.6863 253.811L89.4215 252.866L89.4086 259.42L82.6733 260.365L82.6863 253.811ZM203.384 107.777L196.758 108.708V104.943L203.39 104.011V107.777H203.384ZM195.743 104.044L186.4 105.357L186.413 99.2817L195.755 97.9683L195.743 104.044ZM185.384 98.3824L178.804 99.3076V95.3932L185.391 94.468V98.3824H185.384ZM177.782 94.5004L168.478 95.8073L168.491 89.3956L177.795 88.0886L177.782 94.5004ZM167.462 88.5027L160.882 89.4279V85.643L167.469 84.7178V88.5027H167.462ZM159.86 84.7437L82.1169 95.6715L46.9785 100.608L38.2375 95.4256L159.879 78.3319L159.867 84.7437H159.86ZM37.0794 170.678L37.2153 96.0208L45.3351 100.834L46.3444 101.462L46.0856 240.942L36.9435 242.229L37.0794 170.678ZM47.1208 241.841L53.8819 240.89V244.552L47.1143 245.503V241.841H47.1208ZM54.9042 245.445L64.0398 244.164L64.0268 250.692L54.8912 251.973L54.9042 245.445ZM65.0491 251.585L71.9784 250.608V254.27L65.0362 255.247V251.585H65.0491ZM82.6733 261.406L89.4086 260.462V264.156L82.6668 265.101V261.406H82.6733ZM90.4308 265.049L119.533 260.96L203.539 249.152L212.416 254.412L90.4243 271.558L90.4373 265.049H90.4308ZM204.412 107.628V103.862L213.703 102.556V106.321L204.412 107.628ZM203.397 102.97L196.771 103.901L196.784 97.826L203.409 96.8943L203.397 102.97ZM177.795 87.047L168.491 88.3539V84.569L177.801 83.262V87.047H177.795ZM36.95 243.271L46.0921 241.983V245.645L36.9435 246.933V243.271H36.95ZM47.1143 246.545L53.8755 245.594L53.8625 252.122L47.1014 253.073L47.1143 246.545ZM72.9942 261.723L73.0072 255.169L81.664 253.953L81.6511 260.507L74.3659 261.529L72.9942 261.723ZM214.725 107.22L221.312 106.295L221.034 257.537L214.454 254.393L214.725 107.22ZM195.755 96.9266L186.413 98.24V94.3257L195.762 93.0123V96.9266H195.755ZM185.391 93.4328L178.811 94.358L178.824 87.9463L185.404 87.0211L185.391 93.4328ZM167.475 83.6697L160.895 84.5949L160.908 78.1831L163.917 77.7626L167.488 77.2579L167.475 83.6697ZM54.8848 253.015L64.0204 251.734V255.396L54.8783 256.677V253.015H54.8848ZM65.0426 256.289L71.972 255.312L71.959 261.866L65.0297 262.843L65.0426 256.289ZM72.9878 262.765L76.7015 262.241L81.6446 261.549V265.243L72.9813 266.459V262.765H72.9878ZM82.6668 266.142L89.4021 265.198L89.3891 271.706L82.6539 272.651L82.6668 266.142ZM221.312 105.253L214.725 106.179V102.717L214.732 102.413L221.318 101.488V105.253H221.312ZM213.703 101.52L204.419 102.827L204.432 96.7519L213.716 95.445L213.703 101.52ZM203.409 95.8526L196.784 96.7843V92.87L203.416 91.9383V95.8526H203.409ZM186.419 93.2905L186.432 86.8788L195.775 85.5654L195.762 91.9771L186.419 93.2905ZM185.404 85.9794L178.824 86.9046V83.1197L185.41 82.1945V85.9794H185.404ZM177.808 82.2204L168.504 83.5273L168.517 77.1156L177.821 75.8086L177.808 82.2204ZM167.488 76.2162L160.908 77.1415V73.3306L167.495 72.4054V76.2162H167.488ZM29.1213 244.371L35.9213 243.413V247.075L29.1149 248.033V244.371H29.1213ZM36.9371 247.975L46.0791 246.687L46.0662 253.215L36.9241 254.503L36.9371 247.975ZM47.0949 254.108L53.8561 253.157V256.819L47.0885 257.77V254.108H47.0949ZM54.8783 257.718L64.0139 256.437L64.001 262.991L54.8654 264.272L54.8783 257.718ZM65.0297 263.884L71.959 262.907V266.602L65.0168 267.579V263.884H65.0297ZM72.9813 267.501L81.6381 266.285L81.6252 272.793L72.9684 274.01L72.9813 267.501ZM82.6539 273.693L89.3827 272.748V276.41L82.641 277.355V273.693H82.6539ZM90.4179 272.599L213.833 255.253L214.454 255.622V255.538L219.785 258.087L90.4114 276.268V272.606L90.4179 272.599ZM231.774 103.785L222.347 105.111V101.346L231.78 100.019V103.785H231.774ZM214.738 101.371L214.751 95.2962L221.338 94.371L221.325 100.446L214.738 101.371ZM213.716 94.4033L204.432 95.7103V91.7959L213.723 90.489V94.4033H213.716ZM178.837 82.078L178.849 75.6663L185.429 74.7411L185.416 81.1528L178.837 82.078ZM19.2676 86.2512L27.368 91.0584L28.3773 91.686L28.0926 243.472L18.97 244.753L19.1252 160.222L19.2611 86.2512H19.2676ZM18.97 245.794L28.0926 244.513V248.175L18.9635 249.456V245.794H18.97ZM35.9083 248.117L35.8954 254.043V254.645L29.0955 255.603L29.1084 249.075L35.9083 248.117ZM36.9241 255.538L46.0662 254.25V257.912L36.9177 259.2V255.538H36.9241ZM82.641 278.396L89.3762 277.452L89.3633 284.058L82.6345 285.002L82.6474 278.396H82.641ZM231.476 263.625L223.072 258.657L223.305 258.624L222.056 258.029L222.341 106.153L231.767 104.826L231.599 194.339L231.47 263.625H231.476ZM232.803 103.642V99.8769L238.968 99.01V102.775L232.803 103.642ZM203.416 90.8966L196.791 91.8283V90.8319L196.804 85.4165L203.429 84.4849L203.416 90.8966ZM195.775 84.5237L186.432 85.8371V82.0522L195.781 80.7388V84.5237H195.775ZM177.821 74.767L168.517 76.0739V72.2631L177.827 70.9562V74.767H177.821ZM167.495 71.3702L160.915 72.2954L160.928 65.8902L167.508 64.965L167.495 71.3702ZM18.2389 85.6753L17.9477 241.705V244.901L11.1801 245.852L11.4842 82.4404L18.2389 85.6753ZM47.0885 258.812L53.8496 257.861L53.8366 264.415L47.0755 265.366L47.0885 258.812ZM54.8654 265.314L64.001 264.033V267.727L54.8589 269.008V265.314H54.8654ZM65.0168 268.62L71.9461 267.643L71.9332 274.152L65.0038 275.129L65.0168 268.62ZM72.9684 275.051L81.6252 273.835V277.497L72.9619 278.713V275.051H72.9684ZM90.392 283.909L90.4049 277.303L175.498 265.346L221.435 258.889L230.46 264.227L141.996 276.662L90.392 283.915V283.909ZM232.505 264.201L232.77 121.344L232.803 104.678L238.962 103.811L238.658 267.126L238.089 266.854L232.511 264.201H232.505ZM222.354 100.304L222.366 94.2286L231.793 92.9023L231.78 98.9776L222.354 100.304ZM221.338 93.3293L214.751 94.2545V90.3402L221.344 89.415V93.3293H221.338ZM204.445 90.7543L204.458 84.3425L213.742 83.0356L213.729 89.4473L204.445 90.7543ZM203.429 83.4432L196.804 84.3749V80.5899L203.435 79.6583V83.4432H203.429ZM186.445 81.004L186.458 74.5923L195.801 73.2789L195.788 79.6906L186.445 81.004ZM185.429 73.693L178.849 74.6182V70.8073L185.436 69.8821V73.693H185.429ZM168.523 71.2214L168.536 64.8162L177.84 63.5092L177.827 69.9145L168.523 71.2214ZM167.508 63.9233L160.928 64.8485V61.0636L167.514 60.1384V63.9233H167.508ZM159.905 61.2059V64.9908L18.86 84.8148L18.2389 84.5302L12.7329 81.8904L159.905 61.2059ZM11.1801 246.888L17.9412 245.937V249.599L11.1736 250.55V246.888H11.1801ZM28.0797 249.217L28.0667 255.745L18.9441 257.026L18.957 250.498L28.0797 249.217ZM29.0955 256.638L35.8954 255.68V259.342L29.089 260.3V256.638H29.0955ZM46.0597 258.954L46.0468 265.508L36.9047 266.796L36.9177 260.242L46.0597 258.954ZM47.0755 266.408L53.8366 265.456V269.151L47.0691 270.102V266.408H47.0755ZM63.988 268.763L63.9751 275.271L54.8395 276.552L54.8524 270.044L63.988 268.763ZM65.0038 276.171L71.9332 275.194V278.856L64.9909 279.833V276.171H65.0038ZM81.6122 278.539L81.5993 285.145L72.9425 286.361L72.9554 279.755L81.6122 278.539ZM82.628 286.037L89.3633 285.093V288.477L82.628 289.421V286.037ZM90.3855 288.334V284.951L149.398 276.656L231.884 265.062L232.505 265.431V265.34L236.788 267.378L237.403 267.669L93.737 287.862L90.392 288.334H90.3855ZM232.809 98.8353L232.822 93.4264L238.276 98.0718L232.809 98.8417V98.8353ZM222.366 93.187V89.5444L230.066 92.1065L222.366 93.187ZM214.758 89.305L214.771 83.5467L220.645 88.4768L214.764 89.305H214.758ZM186.465 70.0051L194.047 72.4895L186.458 73.5571V70.0115L186.465 70.0051ZM160.934 60.0219L160.947 54.2766L166.815 59.2002L160.941 60.0284L160.934 60.0219ZM17.9283 250.647L17.9154 256.528L11.8724 251.501L17.9218 250.653L17.9283 250.647ZM28.0603 260.183L20.7233 257.815L28.0667 256.78V260.183H28.0603ZM35.8825 260.384L35.8695 266.291L29.7942 261.238L35.8825 260.384ZM81.5993 286.186V289.311L74.7541 287.144L81.5993 286.18V286.186ZM89.3503 289.518L89.3374 295.374L83.3268 290.366L89.3503 289.518ZM247.502 101.572L239.991 102.627V99.1199L244.927 100.731L247.502 101.572ZM211.989 82.2463L204.458 83.3073V79.7812L210.222 81.6704L211.989 82.2463ZM202.73 78.7201L196.817 79.5548L196.83 73.79L200.576 76.9215L202.73 78.7201ZM184.731 68.944L178.856 69.7722L178.869 64.0268L180.642 65.5149L184.737 68.9505L184.731 68.944ZM176.08 62.7199L168.536 63.781V60.2613L169.287 60.5071L176.08 62.7264V62.7199ZM159.918 53.7654L159.905 60.1642L11.0766 81.0881L2.35507 75.9122L159.918 53.7719V53.7654ZM1.34575 76.5074L5.97178 79.2507L9.44616 81.3146L10.4555 81.9422L10.1514 245.995L1.02873 247.276L1.0999 209.42L1.34575 76.5074ZM2.8015 248.065L10.1449 247.03V250.433L5.9459 249.081L2.8015 248.065ZM38.6646 267.592L46.0403 266.556V269.992L41.686 268.575L38.6646 267.592ZM47.7743 271.04L53.8237 270.192L53.8108 276.054L48.2595 271.448L47.7678 271.04H47.7743ZM63.9751 276.313V279.716L56.8258 277.413L56.6187 277.348L63.9751 276.313ZM65.7155 280.771L71.9267 279.897V282.582L71.9137 285.863L70.1086 284.381L65.709 280.771H65.7155ZM90.3726 295.878L90.3855 289.376L239.065 268.478L243.536 271.124L247.936 273.732L213.664 278.545L90.3791 295.872L90.3726 295.878Z" fill="url(#paint0_linear_0_160)" fill-opacity="0.3"/>
<path id="Vector_2" d="M407.201 91.5695L261.892 0.433488L261.193 0L260.811 0.317029L257.744 2.88561L252.678 7.12991L244.889 9.60144L243.077 10.4943L235.216 16.9966L226.967 19.6752L225.149 20.581L217.443 27.0121L215.793 27.5556L209.181 29.7231L207.363 30.6353L199.618 37.1118L193.006 39.2598L191.382 39.7903L189.57 40.6961L186.271 43.4523L181.858 47.1467L181.509 47.2567L172.302 50.2523L172.03 50.8669L106.761 197.541L106.509 198.117L107.136 198.512L252.452 289.648L256.088 287.61L261.51 283.042L269.921 280.273L271.739 279.36L279.27 273.013L287.72 270.225L289.538 269.313L294.196 265.405L297.108 262.966L298.085 262.642L305.506 260.19L307.324 259.271L314.868 252.911L323.408 250.032L325.226 249.107L332.337 243.045L341.589 239.997L342.307 239.234L393.659 123.829L407.576 92.5594L407.828 91.9836L407.201 91.5889V91.5695ZM401.889 94.3193L397.625 96.5255L397.729 96.2991L396.558 97.0496L257.66 9.93788L261.465 1.38457L292.74 21.0015L406.133 92.1195L401.882 94.3193H401.889ZM125.996 186.749L183.314 57.9321L188.736 61.3353L167.644 108.734L135.003 182.097L131.231 184.045L125.99 186.749H125.996ZM189.616 61.8918L192.844 63.9169L192.508 64.6738L142.327 177.452L141.757 177.827L140.567 178.584L136.562 181.127L177.801 88.451L189.616 61.8982V61.8918ZM141.078 179.477L142.721 178.435L267.197 256.502L264.408 262.771L136.361 182.466L141.078 179.477ZM370.937 112.008L362.513 116.369L362.409 116.421L362.506 116.201L361.342 116.945L243.058 42.76L246.868 34.1938L309.692 73.5959L370.937 112.008ZM314.428 221.726L311.296 219.766L354.587 122.477L355.227 122.147L355.156 122.101L356.845 121.027L360.177 118.912L325.789 196.195L314.428 221.732V221.726ZM200.045 68.4264L203.254 70.4386L187.248 106.418L160.113 167.404L159.543 167.779L158.443 168.478L154.387 171.053L169.106 137.972L200.052 68.4264H200.045ZM154.18 172.399L158.663 169.559L160.501 168.394L274.573 239.932L271.797 246.17L154.173 172.405L154.18 172.399ZM310.416 219.209L304.865 215.728L327.581 164.674L343.899 128.008L346.402 126.714L353.131 123.234L310.423 219.209H310.416ZM291 83.0744L353.157 122.056L346.079 125.718L344.571 126.501L344.668 126.281L343.504 127.025L235.662 59.3944L239.499 50.7763L291.007 83.0809L291 83.0744ZM303.979 215.178L300.88 213.231L336.788 132.531L337.429 132.201L337.357 132.156L342.333 128.992L325.582 166.628L303.979 215.178ZM228.041 64.8097L231.23 66.8089L227.413 75.3881L224.223 73.3889L225.026 71.5773L228.041 64.8032V64.8097ZM196.37 147.684L224.748 83.9155L317.98 142.385L289.603 206.153L196.37 147.684ZM324.773 137.675L318.627 141.589L225.168 82.9774L227.873 76.9086L324.78 137.681L324.773 137.675ZM223.861 83.3656L195.309 147.535L189.622 151.145L220.671 81.3664L223.861 83.3656ZM189.421 152.491L189.958 152.154L195.717 148.499L289.176 207.117L286.413 213.328L189.421 152.497V152.491ZM274.01 93.6464L335.352 132.117L326.805 136.542L326.902 136.322L325.737 137.066L228.293 75.951L232.11 67.3718L274.016 93.6529L274.01 93.6464ZM226.986 76.3457L224.282 82.4145L221.092 80.4153L223.796 74.3465L226.986 76.3457ZM219.792 80.81L188.063 152.116L185.32 153.532L179.522 156.522L214.648 77.5879L219.798 80.8164L219.792 80.81ZM245.024 198.79L179.49 157.693L185.106 154.801L187.39 153.623L188.457 153.105L285.992 214.273L282.44 222.256L245.024 198.79ZM287.299 213.871L290.062 207.66L293.168 209.608L290.405 215.819L287.299 213.871ZM293.588 208.657L290.482 206.709L319.034 142.54L324.573 139.02L304.943 183.139L293.588 208.657ZM342.533 127.64L336.387 131.547L232.531 66.4143L235.229 60.3454L342.527 127.64H342.533ZM213.762 77.0315L178.054 157.272L177.484 157.647L172.147 161.018L210.442 74.9546L213.755 77.0315H213.762ZM171.959 162.364L178.455 158.256L282.02 223.208L279.173 229.606L171.959 162.364ZM294.468 209.207L306.483 182.207L326.138 138.037L335.326 133.281L300 212.668L294.468 209.2V209.207ZM222.917 73.79L220.212 79.8589L215.062 76.6304L217.766 70.5615L222.917 73.79ZM283.32 222.806L286.872 214.823L289.978 216.77L286.426 224.754L283.32 222.806ZM291.285 216.369L294.047 210.158L299.579 213.626L296.817 219.837L291.285 216.369ZM234.349 59.789L231.651 65.8579L228.461 63.8586L231.159 57.7898L234.349 59.789ZM227.154 64.2598L223.648 72.1402L223.337 72.839L218.187 69.6104L222.004 61.0313L227.154 64.2598ZM216.887 70.0116L214.182 76.0804L210.869 74.0035L213.574 67.9347L216.887 70.0116ZM225.065 207.66L161.542 167.818L167.799 164.583L169.921 163.49L170.989 162.966L278.746 230.545L274.993 238.968L225.058 207.654L225.065 207.66ZM280.053 230.156L282.9 223.758L286.005 225.705L283.158 232.104L280.053 230.156ZM287.306 225.304L290.858 217.32L296.39 220.788L292.838 228.772L287.306 225.304ZM238.613 50.2199L234.776 58.8379L231.586 56.8387L235.423 48.2207L238.613 50.2199ZM212.694 67.3783L209.99 73.4471L204.555 70.0375L207.259 63.9686L212.694 67.3783ZM204.134 70.995L209.569 74.4047L170.594 161.989L161.568 166.647L188.807 105.435L204.134 70.9885V70.995ZM275.88 239.531L279.632 231.107L282.738 233.055L278.985 241.479L275.88 239.531ZM297.69 220.393L300.453 214.182L303.552 216.129L300.789 222.341L297.69 220.393ZM354.192 121.493L239.92 49.8253L242.637 43.7176L360.384 117.566L357.479 119.41L354.192 121.5V121.493ZM230.279 57.2398L227.581 63.3087L222.431 60.0802L225.129 54.0113L230.279 57.2398ZM221.124 60.4748L217.307 69.054L213.994 66.9772L217.812 58.398L221.124 60.4748ZM284.038 232.654L286.885 226.255L292.417 229.723L289.57 236.122L284.038 232.654ZM293.717 229.328L297.269 221.344L300.369 223.292L296.817 231.276L293.717 229.328ZM301.676 222.891L304.438 216.679L309.989 220.16L307.227 226.371L301.676 222.891ZM241.751 43.1612L239.033 49.2688L235.844 47.2696L238.561 41.162L241.751 43.1612ZM234.537 47.6708L230.7 56.2888L225.55 53.0602L229.387 44.4422L234.537 47.6708ZM224.249 53.4549L221.551 59.5237L218.239 57.4469L220.937 51.3781L224.249 53.4549ZM216.932 57.848L213.115 66.4272L207.68 63.0175L211.497 54.4384L216.932 57.848ZM206.379 63.4187L203.675 69.4875L200.466 67.4753L203.17 61.4065L206.379 63.4187ZM199.159 67.8765L167.242 139.609L152.814 172.03L143.789 176.695L193.724 64.4668L199.159 67.8765ZM207.007 217.533L143.763 177.866L152.148 173.531L153.216 173.007L271.377 247.114L267.624 255.551L207.007 217.533ZM272.684 246.719L275.459 240.482L278.565 242.43L275.789 248.667L272.684 246.719ZM279.865 242.029L283.618 233.605L289.15 237.073L285.397 245.497L279.865 242.029ZM290.45 236.672L293.297 230.273L296.396 232.22L293.549 238.619L290.45 236.672ZM308.113 226.928L310.876 220.717L314.007 222.677L311.245 228.888L308.113 226.928ZM315.308 222.282L327.251 195.432L361.736 117.928L370.904 113.186L320.82 225.737L315.308 222.276V222.282ZM242.178 42.2101L238.988 40.2109L242.799 31.6446L245.988 33.6439L242.178 42.2101ZM237.681 40.6055L234.964 46.7132L229.814 43.4847L232.531 37.377L237.681 40.6055ZM210.617 53.8884L206.8 62.4676L203.591 60.4554L207.408 51.8762L210.617 53.8884ZM268.504 256.101L272.257 247.664L275.362 249.612L271.61 258.048L268.504 256.101ZM276.669 249.217L279.445 242.98L284.977 246.448L282.201 252.685L276.669 249.217ZM303.254 235.306L297.703 231.826L301.255 223.842L306.806 227.322L303.817 234.045L303.254 235.306ZM247.289 33.2492L249.993 27.1739L378.125 107.531L371.972 111.445L247.289 33.2492ZM228.507 43.8858L224.67 52.5038L221.357 50.427L225.194 41.809L228.507 43.8858ZM220.057 50.8281L217.359 56.8969L211.924 53.4873L214.622 47.4184L220.057 50.8281ZM202.284 60.8501L199.579 66.9189L194.145 63.5093L195.38 60.7336L196.849 57.4404L202.284 60.8501ZM286.277 246.053L290.03 237.629L293.129 239.577L289.376 248.001L286.277 246.053ZM294.429 239.169L297.276 232.77L302.827 236.251L299.98 242.65L294.429 239.169ZM304.134 235.863L305.661 232.434L307.693 227.872L310.824 229.833L307.272 237.817L304.141 235.856L304.134 235.863ZM312.125 229.445L314.887 223.233L320.4 226.695L317.637 232.906L312.125 229.445ZM249.113 26.6175L246.409 32.6928L243.478 30.8553L243.219 30.6935L245.924 24.6182L249.113 26.6175ZM241.912 31.0947L238.102 39.6609L232.951 36.4324L236.762 27.8662L241.912 31.0947ZM231.651 36.8271L228.934 42.9347L225.621 40.8579L228.338 34.7502L231.651 36.8271ZM220.477 49.877L215.043 46.4673L218.879 37.8493L224.314 41.259L220.477 49.877ZM213.742 46.8685L211.044 52.9373L207.835 50.9252L210.533 44.8563L213.742 46.8685ZM206.528 51.3198L202.711 59.899L197.276 56.4893L201.093 47.9102L206.528 51.3198ZM195.969 56.8905L193.265 62.9593L190.036 60.9342L192.741 54.8654L195.969 56.8905ZM265.295 263.328L268.083 257.058L271.189 259.006L268.4 265.275L265.295 263.328ZM272.489 258.605L276.242 250.168L281.774 253.636L278.021 262.073L272.489 258.605ZM283.081 253.235L285.856 246.998L288.956 248.945L286.18 255.182L283.081 253.235ZM290.256 248.55L294.009 240.127L299.56 243.607L295.807 252.031L290.256 248.55ZM300.867 243.206L303.714 236.807L306.845 238.768L303.998 245.167L300.867 243.206ZM308.145 238.38L311.698 230.396L317.21 233.857L313.658 241.841L308.145 238.38ZM318.517 233.456L321.28 227.245L324.385 229.192L321.622 235.403L318.517 233.456ZM321.707 226.294L372.373 112.429L373.013 112.099L372.942 112.053L377.924 108.883L324.812 228.241L321.707 226.294ZM253.403 16.9707L249.534 25.6664L246.344 23.6672L250.213 14.9715L253.403 16.9707ZM242.339 30.1436L237.189 26.9151L239.894 20.8398L245.044 24.0683L242.339 30.1436ZM235.882 27.3098L232.072 35.876L228.759 33.7991L232.57 25.2329L235.882 27.3098ZM206.949 50.3687L201.514 46.9591L204.212 40.8902L209.647 44.2999L206.949 50.3687ZM125.964 187.927L134.33 183.605L135.397 183.081L263.981 263.723L260.235 272.134L188.626 227.225L125.958 187.92L125.964 187.927ZM261.128 272.69L264.874 264.279L267.98 266.226L264.234 274.637L261.128 272.69ZM272.069 259.556L277.09 262.707L277.601 263.024L274.812 269.293L269.28 265.825L272.069 259.556ZM278.901 262.623L282.654 254.186L285.753 256.133L282 264.57L278.901 262.623ZM322.502 235.953L325.265 229.742L330.862 233.249L328.099 239.46L322.502 235.953ZM388.82 101.896L380.156 106.392L380.253 106.172L379.089 106.916L250.42 26.2228L254.289 17.5272L330.124 65.0879L388.826 101.902L388.82 101.896ZM253.83 16.0197L250.64 14.0204L253.17 8.3398L256.36 10.339L253.83 16.0197ZM227.458 34.1938L224.741 40.3015L223.893 39.7709L219.306 36.8918L222.024 30.7841L227.458 34.1938ZM217.999 37.2929L214.163 45.9109L210.954 43.8988L214.79 35.2808L217.999 37.2929ZM200.213 47.3602L196.396 55.9394L193.168 53.9143L196.985 45.3351L200.213 47.3602ZM191.861 54.3154L189.156 60.3843L183.734 56.981L186.439 50.9122L191.861 54.3154ZM124.929 188.49L257.117 271.389L259.821 273.085L257.046 279.322L118.608 192.501L124.929 188.49ZM287.06 255.732L289.835 249.495L295.387 252.976L292.611 259.213L287.06 255.732ZM296.694 252.581L300.446 244.157L303.578 246.118L299.825 254.542L296.694 252.581ZM304.878 245.723L307.725 239.324L313.237 242.786L310.391 249.185L304.878 245.723ZM314.544 242.391L318.096 234.407L321.202 236.355L317.65 244.339L314.544 242.391ZM331.289 232.298L325.692 228.791L360.63 150.278L379.49 107.9L388.794 103.073L352.478 184.692L331.295 232.304L331.289 232.298ZM389.855 101.326L268.834 25.427L254.71 16.5696L257.24 10.889L395.594 97.6578L395.063 98.0007L389.861 101.326H389.855ZM245.464 23.1172L240.314 19.8887L244.183 11.1931L249.333 14.4216L245.464 23.1172ZM239.014 20.2834L236.309 26.3587L232.997 24.2818L235.701 18.2065L239.014 20.2834ZM227.879 33.2427L222.444 29.833L226.255 21.2668L231.69 24.6765L227.879 33.2362V33.2427ZM221.144 30.2342L218.426 36.3418L215.217 34.3297L217.935 28.222L221.144 30.2342ZM210.074 43.3488L204.639 39.9391L208.476 31.3211L213.91 34.7308L210.074 43.3488ZM203.338 40.3403L200.64 46.4091L197.412 44.384L200.11 38.3152L203.338 40.3403ZM192.281 53.3643L186.859 49.9611L190.677 41.3819L196.098 44.7852L192.281 53.3643ZM185.552 50.3623L182.848 56.4311L179.639 54.4189L182.343 48.3501L185.552 50.3623ZM179.225 55.37L182.434 57.3822L124.534 187.506L123.965 187.882L118.808 191.155L179.231 55.37H179.225ZM257.926 279.878L260.701 273.641L263.807 275.588L261.031 281.826L257.926 279.878ZM268.853 266.776L274.385 270.244L270.639 278.655L265.107 275.187L268.853 266.776ZM275.686 269.843L278.474 263.574L281.573 265.521L278.785 271.791L275.686 269.843ZM286.639 256.683L292.191 260.164L288.438 268.601L282.887 265.12L286.639 256.683ZM293.497 259.769L296.273 253.532L299.405 255.493L296.629 261.73L293.497 259.769ZM304.458 246.674L309.97 250.136L306.217 258.56L300.705 255.098L304.458 246.674ZM311.277 249.734L314.124 243.336L317.229 245.283L314.383 251.682L311.277 249.734ZM322.082 236.905L327.678 240.411L324.126 248.395L318.53 244.888L322.082 236.905ZM328.985 240.017L331.748 233.805L334.614 235.604L331.851 241.815L328.985 240.017ZM335.035 234.653L332.169 232.854L356.392 178.416L390.256 102.316L390.896 101.986L390.825 101.941L394.824 99.3853L395.393 99.0165L336.413 231.567L335.041 234.653H335.035ZM249.754 13.464L245.173 10.5913L251.999 8.4239L249.754 13.464ZM239.434 19.3323L236.348 17.3978L242.598 12.2282L239.434 19.3323ZM232.11 23.7319L227.232 20.6716L234.524 18.3036L232.11 23.7319ZM200.75 37.5064L206.871 32.3887L203.759 39.3892L200.75 37.5064ZM178.765 53.869L173.894 50.8152L181.179 48.4472L178.765 53.869ZM264.687 276.138L269.669 279.263L262.202 281.722L264.687 276.138ZM278.144 272.606L272.25 277.575L275.265 270.801L278.144 272.606ZM282.46 266.071L287.467 269.209L279.962 271.687L282.46 266.071ZM328.558 240.968L331.204 242.63L325.744 247.289L328.558 240.968ZM335.494 236.154L340.457 239.266L333.023 241.712L335.494 236.154ZM259.86 2.45859L256.774 9.38793L253.804 7.52458L257.777 4.19901L259.854 2.45859H259.86ZM224.657 22.3408L221.564 29.2896L218.575 27.4197L223.227 23.5378L224.65 22.3473L224.657 22.3408ZM216.764 28.3191L214.337 33.7797L209.453 30.7194L214.091 29.199L216.764 28.3255V28.3191ZM198.939 38.4122L196.526 43.8341L191.654 40.7802L193.853 40.0685L198.939 38.4187V38.4122ZM189.072 42.4495L185.973 49.4112L182.99 47.5414L183.592 47.0367L189.072 42.4495ZM172.917 51.4169L178.338 54.8201L117.236 192.132L108.23 196.784L172.917 51.4169ZM108.204 197.955L112.979 195.484L116.57 193.627L117.637 193.103L256.619 280.266L252.873 288.677L220.801 268.562L108.204 197.942V197.955ZM254.49 287.603L257.505 280.829L260.391 282.634L257.02 285.475L254.49 287.603ZM290.043 267.527L293.07 260.72L295.982 262.545L292.475 265.482L290.043 267.527ZM297.8 261.633L300.284 256.056L305.253 259.168L298.408 261.432L297.806 261.633H297.8ZM310.85 250.686L313.736 252.497L307.997 257.337L307.835 257.473L310.856 250.686H310.85ZM315.554 251.572L318.103 245.84L320.38 247.269L323.156 249.01L320.943 249.754L315.554 251.572ZM341.427 238.658L335.915 235.203L396.952 98.033L401.565 95.6456L406.107 93.297L392.035 124.916L341.421 238.664L341.427 238.658Z" fill="url(#paint1_linear_0_160)" fill-opacity="0.3"/>
</g>
<defs>
<linearGradient id="paint0_linear_0_160" x1="0" y1="174.773" x2="250.291" y2="174.773" gradientUnits="userSpaceOnUse">
<stop stop-color="#F8F8F6"/>
<stop offset="1" stop-color="#FF5722"/>
</linearGradient>
<linearGradient id="paint1_linear_0_160" x1="190.813" y1="251.187" x2="323.413" y2="38.8994" gradientUnits="userSpaceOnUse">
<stop stop-color="#F8F8F6"/>
<stop offset="1" stop-color="#FF5722"/>
</linearGradient>
</defs>
</svg>
