<svg preserveAspectRatio="none" width="100%" height="100%" overflow="visible" style="display: block;" viewBox="0 0 407.27 397" fill="none" xmlns="http://www.w3.org/2000/svg">
<g id="_1" clip-path="url(#clip0_0_153)">
<path id="25" d="M407.27 150.893L308.326 97.0639L308.4 57.8845L201.987 0L99.4749 14.4066L99.2758 121.335L0.206441 135.263L0 246.107L98.9514 299.936L98.8777 339.116L205.29 397L307.803 382.593L308.002 275.665L407.079 261.737L407.278 152.685V150.893H407.27ZM378.575 263.33L306.933 273.401L207.687 219.417L204.944 217.928L300.246 204.531L402.235 260.012L378.583 263.337L378.575 263.33ZM101.842 17.3779L191.275 66.0315L200.38 70.9861L200.314 107.15L200.572 108.861L204.914 111.448L204.9 117.487L204.789 177.849L160.493 153.754L101.65 121.741V116.211L101.842 17.3852V17.3779ZM19.9215 243.924L99.0694 232.799L98.9514 295.498V297.127L4.99881 246.026L19.9215 243.932V243.924ZM202.29 323.515L202.349 290.514L203.654 290.329L204.583 290.196L204.516 324.731L202.68 323.728L202.29 323.515ZM105.639 235.755L105.521 300.703L101.325 298.425L101.384 268.483L101.451 233.477L105.528 235.696L105.646 235.763L105.639 235.755ZM107.887 301.374L108.005 238.188V237.045L199.982 287.078V288.434L169.547 292.711L107.895 301.374H107.887ZM199.982 284.276L140.8 252.086L108.005 234.251L108.079 194.74L207.148 180.82L207.266 115.533V112.731L212.531 115.592L299.243 162.764L299.169 202.275L200.1 216.195L199.982 281.238V284.276ZM204.981 75.1665L204.922 106.494L202.688 106.811L202.754 72.2763L204.988 73.4929V75.1739L204.981 75.1665ZM299.383 95.6189L299.265 158.296V159.947L269.324 143.661L207.288 109.915V108.558L254.519 101.923L299.383 95.6189ZM301.639 161.252L301.706 124.167L301.757 96.3045L305.119 98.133L305.945 98.5828L305.879 134.643L305.827 163.53L302.885 161.931L301.639 161.252ZM200.97 325.387L204.509 327.312L204.45 360.512L204.391 393.712L103.876 339.034L200.977 325.387H200.97ZM308.201 164.201L308.319 101.517V99.873L402.279 150.989L308.201 164.209V164.201ZM305.952 95.7737L300.865 93.0089L283.45 95.4567L207.296 106.162L207.355 73.8762L306.019 60.0079L305.96 93.2006V95.7737H305.952ZM269.575 62.7284L206.3 71.6201L202.762 69.6958L202.843 24.3969L202.879 3.2883L303.401 57.9729L269.575 62.7284ZM106.413 303.991L159.918 296.471L199.975 290.845L199.916 323.116L101.252 336.985L101.318 301.219L106.413 303.991ZM206.89 326.021L206.957 289.865V288.066L202.363 285.566L202.489 219.166L305.628 275.274L305.436 379.622L219.594 332.922L206.898 326.014L206.89 326.021ZM200.505 2.61L200.387 68.0148V68.3982L104.304 16.1319L133.456 12.0325L200.505 2.61ZM100.337 123.599L201.803 178.8L202.334 179.087L107.032 192.484L5.0283 136.988L45.3285 131.326L100.33 123.599H100.337ZM2.57313 138.234L105.712 194.342L105.683 209.884L105.639 232.946L101.443 230.668V230.049L100.544 230.174L99.2316 229.459V229.746L99.0694 229.658V230.373L2.37407 243.976L2.50678 171.648L2.56576 138.227L2.57313 138.234ZM206.883 328.956V328.602L302.959 380.868L206.758 394.39L206.876 328.963L206.883 328.956ZM404.697 258.766L314.8 209.862L301.565 202.658L301.595 185.14L301.632 164.047L308.201 166.605L396.963 154.13L404.896 153.017L404.764 226.502L404.705 258.766H404.697Z" fill="url(#paint0_linear_0_153)" fill-opacity="0.3"/>
</g>
<defs>
<linearGradient id="paint0_linear_0_153" x1="0" y1="198.5" x2="407.27" y2="198.5" gradientUnits="userSpaceOnUse">
<stop stop-color="#F8F8F6"/>
<stop offset="1" stop-color="#FF5722"/>
</linearGradient>
<clipPath id="clip0_0_153">
<rect width="407.27" height="397" fill="white"/>
</clipPath>
</defs>
</svg>
