<svg width="193" height="64" viewBox="0 0 193 64" fill="none" xmlns="http://www.w3.org/2000/svg">
<path d="M4.58331 13.2054C5.49441 13.2693 6.59031 13.7957 7.48872 14.0849C10.2782 14.9825 12.9915 16.0935 15.7451 17.0782L24.7447 20.2972C30.537 22.3294 37.9226 24.2866 41.1376 30.0939C43.3732 34.1321 42.1668 38.5108 40.7059 42.6073C40.0011 44.5836 39.1829 46.9056 38.1207 48.7287C37.9151 48.9463 37.6259 49.208 37.404 49.4201C36.7408 44.9653 36.6266 40.9489 32.9487 37.6665C30.1908 35.2052 26.8884 34.0287 23.5271 32.7166C19.1176 30.9957 14.6547 29.4965 10.2669 27.7241C3.02102 25.1071 -2.23394 24.0718 2.84989 15.0638C3.2469 14.3604 3.75295 13.4584 4.58331 13.2054Z" fill="#444B52"/>
<path d="M136.858 31.8327C139.182 31.9079 141.529 31.8218 143.857 31.8483C152.588 31.9484 156.715 41.7415 150.722 48.1658C147.863 50.9067 145.374 50.9112 141.7 50.8974C140.088 50.8908 138.475 50.8934 136.861 50.9052C136.728 46.319 136.89 41.665 136.826 37.0717C136.802 35.3424 136.807 33.5603 136.858 31.8327ZM140.037 47.9119C144.395 47.8449 144.752 48.5703 148.471 46.0137C150.833 43.5248 150.918 39.1413 148.351 36.6932C145.681 34.1473 143.315 34.9974 140.031 34.8455C140.094 35.7569 140.063 36.6944 140.049 37.6093C140.001 41.0388 140.095 44.484 140.037 47.9119Z" fill="#444B52"/>
<path d="M100.794 31.7608C104.021 31.9141 108.075 31.4626 111.179 31.9992C115.839 32.8049 117.549 39.352 113.991 42.5208C112.467 43.8771 111.039 44.1468 109.057 44.1366C107.332 44.1432 105.607 44.1382 103.882 44.1215C104.032 46.0274 103.919 48.9297 103.957 50.9887C102.916 50.9564 101.873 50.952 100.831 50.9754C100.663 49.4592 100.727 44.9216 100.755 43.1152C100.812 39.5332 100.622 35.2634 100.794 31.7608ZM103.874 41.1792C105.368 41.1348 106.898 41.1954 108.394 41.2021C109.931 41.2089 110.479 41.1497 111.7 40.2471C113.01 38.9129 113.136 37.1141 111.751 35.7695C111.353 35.376 110.857 35.0952 110.314 34.9556C109.27 34.6865 105.314 34.9335 103.889 34.8288C103.942 36.0948 104.005 39.9889 103.874 41.1792Z" fill="#444B52"/>
<path d="M87.3098 31.8249C88.0888 31.8512 89.5311 31.7129 90.144 32.0706C90.8746 33.2206 91.4509 34.855 92.0024 36.1082L95.3352 43.6432C95.9468 45.0279 98.2199 49.6536 98.5045 50.8709C97.4301 50.9151 96.2333 50.8901 95.1486 50.8892C94.8621 49.8332 93.5013 46.9627 92.9954 45.9144C92.3428 45.9955 91.1041 45.9489 90.3981 45.9397C88.3983 45.925 86.3986 45.9348 84.3992 45.9691C83.6154 47.66 82.9855 49.1985 82.1362 50.8838C81.1159 50.9266 79.8767 50.8902 78.8403 50.8867C79.2498 49.5218 80.7342 46.6794 81.3487 45.2619C83.2587 40.8561 85.2434 36.1391 87.3098 31.8249ZM85.7228 42.9677C86.4944 42.8688 87.805 42.9053 88.6226 42.918C89.6002 42.9143 90.7436 42.8807 91.7076 42.9133C90.9119 41.3572 90.2423 39.6407 89.4901 38.0577C89.3471 37.7567 88.8266 36.536 88.6966 36.3454C87.7306 38.523 86.6483 40.7936 85.7228 42.9677Z" fill="#444B52"/>
<path d="M123.57 31.8615C124.345 31.817 125.493 31.8608 126.295 31.8672C126.75 32.5029 127.464 34.4862 127.845 35.347C130.112 40.462 132.658 45.7231 134.75 50.8834C133.67 50.906 132.54 50.8906 131.456 50.892C130.517 49.1857 130.073 47.6682 129.263 45.9255C128.264 45.9708 127.079 45.943 126.067 45.944C124.987 45.9265 121.485 46.0347 120.633 45.8807C120.083 47.3283 119.063 49.5471 118.357 50.8719C117.245 50.9116 116.109 50.8875 114.995 50.876C116.57 47.1296 118.434 43.2585 120.09 39.5323C120.974 37.5438 122.443 33.606 123.57 31.8615ZM122.024 42.8931C123.039 42.9086 124.054 42.9166 125.069 42.9171C125.996 42.9064 126.922 42.9066 127.848 42.9179C127.307 41.9589 125.34 36.6946 124.855 36.3517C124.225 37.5593 123.823 38.6979 123.304 39.9506C122.897 40.935 122.41 41.8998 122.024 42.8931Z" fill="#444B52"/>
<path d="M156.766 31.7469C157.836 31.8563 160.473 31.7919 161.645 31.7922L171.399 31.7713C171.36 32.7921 171.408 33.8105 171.364 34.8607C167.636 34.8785 163.61 34.925 159.898 34.8402C159.931 35.8063 159.973 38.9236 159.872 39.7869L170.166 39.7857C170.095 40.6765 170.13 41.9141 170.103 42.8606C167.415 42.8721 164.728 42.8698 162.039 42.8538C161.263 42.8687 160.674 42.8732 159.898 42.82C159.948 44.2578 159.958 46.5352 159.893 47.946C160.783 47.8354 162.569 47.9231 163.535 47.9151C166.139 47.8937 168.763 47.9708 171.368 47.8585C171.392 48.8689 171.391 49.8798 171.365 50.8902C166.505 50.9305 161.627 50.8425 156.768 50.9086C156.715 49.7878 156.717 48.6058 156.733 47.4833C156.807 42.2572 156.618 36.9659 156.766 31.7469Z" fill="#444B52"/>
<path d="M69.521 31.5113C72.7973 31.3178 75.1783 32.1344 77.6473 34.3205C77.2256 34.8805 76.1229 36.0349 75.6251 36.5926C74.4627 35.7347 73.5223 34.9259 72.0683 34.6267C70.3702 34.2772 68.5953 34.5342 67.1387 35.4971C65.5298 36.5548 64.4178 38.219 64.0561 40.1104C63.3436 43.6948 65.7566 47.4812 69.3575 48.1675C71.011 48.4962 72.7271 48.1426 74.116 47.187C74.541 46.9339 75.1858 46.4535 75.6094 46.1582C76.1164 46.8073 77.0632 47.7198 77.6675 48.3337C74.5761 51.8663 68.3387 52.1364 64.6757 49.3212C60.2218 45.898 59.4617 39.5337 62.8962 35.0819C64.5133 32.9858 66.9751 31.9249 69.521 31.5113Z" fill="#444B52"/>
<path d="M188.567 31.8126C189.5 31.9015 191.026 31.8621 191.972 31.8416C191.499 32.6883 190.866 34.3361 190.512 35.2523C188.684 39.1487 187.077 43.0097 185.261 46.9026C184.571 48.38 184.324 49.3666 183.486 50.8939C182.735 50.9254 181.789 50.8885 181.023 50.8772C179.589 48.2208 178.682 45.7084 177.471 43.0271L174.472 36.32C173.803 34.834 173.083 33.3536 172.486 31.8391C173.34 31.8864 175.118 31.7109 175.786 32.0277C176.455 32.775 178.2 37.1714 178.68 38.2899C179.727 40.728 181.377 43.8601 182.175 46.3297C182.859 44.6159 183.684 42.8319 184.439 41.1293C185.799 38.0639 187.151 34.8433 188.567 31.8126Z" fill="#444B52"/>
<path d="M59.8079 16.4258C59.9067 16.4079 60.0274 16.4339 60.1319 16.4471C60.7295 17.0894 59.9315 19.5462 59.4984 20.1581C55.5113 25.7918 51.518 31.4543 47.6002 37.1365C45.4326 40.2806 43.7831 43.9542 41.4335 47.0014C40.8722 47.7294 40.4399 48.5165 39.8328 49.2311L39.5783 49.4058L39.4 49.3586C39.3785 49.3073 39.359 49.2569 39.345 49.2031C38.908 47.5283 46.4276 32.7574 47.7232 30.5226C48.7936 28.6764 49.923 26.7878 51.1417 25.0373C52.7392 22.7425 56.4587 18.1439 58.7951 16.7917C59.1073 16.6111 59.4616 16.5178 59.8079 16.4258Z" fill="#444B52"/>
</svg>
