<svg width="309" height="200" viewBox="0 0 309 200" fill="none" xmlns="http://www.w3.org/2000/svg">
<path d="M70.0199 100.017C75.1697 100.017 79.3444 95.8245 79.3444 90.6534C79.3444 85.4823 75.1697 81.2903 70.0199 81.2903C64.8701 81.2903 60.6953 85.4823 60.6953 90.6534C60.6953 95.8245 64.8701 100.017 70.0199 100.017Z" fill="#C2CDD4"/>
<path d="M60.6953 100.017H79.3444L60.6953 118.743V100.017Z" fill="#C2CDD4"/>
<path d="M109.929 107.64H122.431V104.221H114.058V88.0286H109.929V107.64Z" fill="#C2CDD4"/>
<path d="M130.902 107.928C135.345 107.928 138.111 104.873 138.111 100.343C138.111 95.7851 135.345 92.74 130.902 92.74C126.458 92.74 123.692 95.7851 123.692 100.343C123.692 104.873 126.458 107.928 130.902 107.928ZM130.921 104.768C128.87 104.768 127.822 102.881 127.822 100.315C127.822 97.7484 128.87 95.8522 130.921 95.8522C132.933 95.8522 133.982 97.7484 133.982 100.315C133.982 102.881 132.933 104.768 130.921 104.768Z" fill="#C2CDD4"/>
<path d="M146.546 113.463C150.733 113.463 153.708 111.547 153.708 107.784V92.9316H149.674V95.4019H149.521C148.978 94.2052 147.785 92.74 145.335 92.74C142.121 92.74 139.403 95.249 139.403 100.257C139.403 105.15 142.045 107.43 145.345 107.43C147.681 107.43 148.987 106.252 149.521 105.035H149.693V107.726C149.693 109.747 148.405 110.532 146.641 110.532C144.849 110.532 143.943 109.747 143.608 108.856L139.852 109.364C140.338 111.681 142.598 113.463 146.546 113.463ZM146.632 104.365C144.639 104.365 143.551 102.775 143.551 100.238C143.551 97.7387 144.62 95.9864 146.632 95.9864C148.606 95.9864 149.712 97.6619 149.712 100.238C149.712 102.833 148.587 104.365 146.632 104.365Z" fill="#C2CDD4"/>
<path d="M162.754 107.928C167.198 107.928 169.964 104.873 169.964 100.343C169.964 95.7851 167.198 92.74 162.754 92.74C158.31 92.74 155.545 95.7851 155.545 100.343C155.545 104.873 158.31 107.928 162.754 107.928ZM162.773 104.768C160.723 104.768 159.674 102.881 159.674 100.315C159.674 97.7484 160.723 95.8522 162.773 95.8522C164.785 95.8522 165.834 97.7484 165.834 100.315C165.834 102.881 164.785 104.768 162.773 104.768Z" fill="#C2CDD4"/>
<path d="M171.8 107.64H175.862V92.9316H171.8V107.64ZM173.841 91.0355C175.051 91.0355 176.043 90.1066 176.043 88.9671C176.043 87.8371 175.051 86.9082 173.841 86.9082C172.639 86.9082 171.647 87.8371 171.647 88.9671C171.647 90.1066 172.639 91.0355 173.841 91.0355Z" fill="#C2CDD4"/>
<path d="M178.311 113.156H182.373V105.284H182.497C183.06 106.51 184.29 107.879 186.655 107.879C189.993 107.879 192.596 105.227 192.596 100.305C192.596 95.249 189.878 92.74 186.665 92.74C184.213 92.74 183.041 94.2051 182.497 95.4019H182.316V92.9316H178.311V113.156ZM182.287 100.286C182.287 97.6619 183.394 95.9864 185.368 95.9864C187.38 95.9864 188.448 97.7387 188.448 100.286C188.448 102.852 187.36 104.634 185.368 104.634C183.412 104.634 182.287 102.91 182.287 100.286Z" fill="#C2CDD4"/>
<path d="M206.687 97.1258C206.324 94.4161 204.151 92.74 200.45 92.74C196.702 92.74 194.232 94.4825 194.241 97.3174C194.232 99.52 195.615 100.946 198.476 101.521L201.013 102.029C202.29 102.287 202.873 102.757 202.891 103.494C202.873 104.365 201.928 104.988 200.508 104.988C199.057 104.988 198.094 104.365 197.846 103.168L193.851 103.379C194.232 106.194 196.617 107.928 200.497 107.928C204.293 107.928 207.011 105.984 207.021 103.082C207.011 100.956 205.628 99.6825 202.786 99.0987L200.135 98.5619C198.771 98.2651 198.266 97.7961 198.275 97.0877C198.266 96.2064 199.258 95.6322 200.517 95.6322C201.928 95.6322 202.767 96.4077 202.968 97.3555L206.687 97.1258Z" fill="#C2CDD4"/>
<path d="M218.167 101.377C218.176 103.35 216.832 104.384 215.373 104.384C213.837 104.384 212.846 103.302 212.836 101.569V92.9315H208.773V102.297C208.783 105.735 210.786 107.832 213.732 107.832C215.935 107.832 217.518 106.692 218.176 104.968H218.329V107.64H222.229V92.9315H218.167V101.377Z" fill="#C2CDD4"/>
<path d="M224.673 107.64H228.735V98.811C228.735 97.1832 229.765 96.1013 231.12 96.1013C232.455 96.1013 233.351 97.0206 233.351 98.4664V107.64H237.29V98.6581C237.29 97.1355 238.158 96.1013 239.635 96.1013C240.933 96.1013 241.905 96.9155 241.905 98.5529V107.64H245.958V97.7484C245.958 94.5593 244.07 92.74 241.343 92.74C239.197 92.74 237.528 93.8413 236.927 95.5264H236.774C236.307 93.8219 234.81 92.74 232.798 92.74C230.824 92.74 229.326 93.7935 228.716 95.5264H228.545V92.9316H224.673V107.64Z" fill="#C2CDD4"/>
<path d="M88.6683 100.017C93.8184 100.017 97.9928 95.8245 97.9928 90.6535C97.9928 85.4824 93.8184 81.2903 88.6683 81.2903C83.5185 81.2903 79.3438 85.4824 79.3438 90.6535C79.3438 95.8245 83.5185 100.017 88.6683 100.017Z" fill="#C2CDD4"/>
<path d="M97.9928 100.017H79.3438V118.743H97.9928V100.017Z" fill="#C2CDD4"/>
<path d="M109.929 107.64H122.431V104.221H114.058V88.0286H109.929V107.64Z" fill="#C2CDD4"/>
<path d="M130.902 107.928C135.345 107.928 138.111 104.873 138.111 100.343C138.111 95.7851 135.345 92.74 130.902 92.74C126.458 92.74 123.692 95.7851 123.692 100.343C123.692 104.873 126.458 107.928 130.902 107.928ZM130.921 104.768C128.87 104.768 127.822 102.881 127.822 100.315C127.822 97.7484 128.87 95.8522 130.921 95.8522C132.933 95.8522 133.982 97.7484 133.982 100.315C133.982 102.881 132.933 104.768 130.921 104.768Z" fill="#C2CDD4"/>
<path d="M146.546 113.463C150.733 113.463 153.708 111.547 153.708 107.784V92.9316H149.674V95.4019H149.521C148.978 94.2052 147.785 92.74 145.335 92.74C142.121 92.74 139.403 95.249 139.403 100.257C139.403 105.15 142.045 107.43 145.345 107.43C147.681 107.43 148.987 106.252 149.521 105.035H149.693V107.726C149.693 109.747 148.405 110.532 146.641 110.532C144.849 110.532 143.943 109.747 143.608 108.856L139.852 109.364C140.338 111.681 142.598 113.463 146.546 113.463ZM146.632 104.365C144.639 104.365 143.551 102.775 143.551 100.238C143.551 97.7387 144.62 95.9864 146.632 95.9864C148.606 95.9864 149.712 97.6619 149.712 100.238C149.712 102.833 148.587 104.365 146.632 104.365Z" fill="#C2CDD4"/>
<path d="M162.754 107.928C167.198 107.928 169.964 104.873 169.964 100.343C169.964 95.7851 167.198 92.74 162.754 92.74C158.31 92.74 155.545 95.7851 155.545 100.343C155.545 104.873 158.31 107.928 162.754 107.928ZM162.773 104.768C160.723 104.768 159.674 102.881 159.674 100.315C159.674 97.7484 160.723 95.8522 162.773 95.8522C164.785 95.8522 165.834 97.7484 165.834 100.315C165.834 102.881 164.785 104.768 162.773 104.768Z" fill="#C2CDD4"/>
<path d="M171.8 107.64H175.862V92.9316H171.8V107.64ZM173.841 91.0355C175.051 91.0355 176.043 90.1066 176.043 88.9671C176.043 87.8371 175.051 86.9082 173.841 86.9082C172.639 86.9082 171.647 87.8371 171.647 88.9671C171.647 90.1066 172.639 91.0355 173.841 91.0355Z" fill="#C2CDD4"/>
<path d="M178.311 113.156H182.373V105.284H182.497C183.06 106.51 184.29 107.879 186.655 107.879C189.993 107.879 192.596 105.227 192.596 100.305C192.596 95.249 189.878 92.74 186.665 92.74C184.213 92.74 183.041 94.2051 182.497 95.4019H182.316V92.9316H178.311V113.156ZM182.287 100.286C182.287 97.6619 183.394 95.9864 185.368 95.9864C187.38 95.9864 188.448 97.7387 188.448 100.286C188.448 102.852 187.36 104.634 185.368 104.634C183.412 104.634 182.287 102.91 182.287 100.286Z" fill="#C2CDD4"/>
<path d="M206.687 97.1258C206.324 94.4161 204.151 92.74 200.45 92.74C196.702 92.74 194.232 94.4825 194.241 97.3174C194.232 99.52 195.615 100.946 198.476 101.521L201.013 102.029C202.29 102.287 202.873 102.757 202.891 103.494C202.873 104.365 201.928 104.988 200.508 104.988C199.057 104.988 198.094 104.365 197.846 103.168L193.851 103.379C194.232 106.194 196.617 107.928 200.497 107.928C204.293 107.928 207.011 105.984 207.021 103.082C207.011 100.956 205.628 99.6825 202.786 99.0987L200.135 98.5619C198.771 98.2651 198.266 97.7961 198.275 97.0877C198.266 96.2064 199.258 95.6322 200.517 95.6322C201.928 95.6322 202.767 96.4077 202.968 97.3555L206.687 97.1258Z" fill="#C2CDD4"/>
<path d="M218.167 101.377C218.176 103.35 216.832 104.384 215.373 104.384C213.837 104.384 212.846 103.302 212.836 101.569V92.9315H208.773V102.297C208.783 105.735 210.786 107.832 213.732 107.832C215.935 107.832 217.518 106.692 218.176 104.968H218.329V107.64H222.229V92.9315H218.167V101.377Z" fill="#C2CDD4"/>
<path d="M224.673 107.64H228.735V98.811C228.735 97.1832 229.765 96.1013 231.12 96.1013C232.455 96.1013 233.351 97.0206 233.351 98.4664V107.64H237.29V98.6581C237.29 97.1355 238.158 96.1013 239.635 96.1013C240.933 96.1013 241.905 96.9155 241.905 98.5529V107.64H245.958V97.7484C245.958 94.5593 244.07 92.74 241.343 92.74C239.197 92.74 237.528 93.8413 236.927 95.5264H236.774C236.307 93.8219 234.81 92.74 232.798 92.74C230.824 92.74 229.326 93.7935 228.716 95.5264H228.545V92.9316H224.673V107.64Z" fill="#C2CDD4"/>
</svg>
