<svg width="309" height="200" viewBox="0 0 309 200" fill="none" xmlns="http://www.w3.org/2000/svg">
<path d="M58.2246 107.734H63.7907V133.047H58.2246V107.734Z" fill="black"/>
<path d="M66.8276 124.458C66.8207 120.771 69.0353 117.443 72.4382 116.027C75.841 114.611 79.7613 115.387 82.3696 117.991C84.978 120.596 85.7604 124.517 84.3516 127.924C82.9429 131.331 79.6208 133.553 75.9354 133.553C73.5145 133.58 71.1844 132.632 69.4708 130.92C67.7572 129.209 66.8045 126.88 66.8276 124.458ZM79.8924 124.458C79.8362 122.286 78.0406 120.565 75.869 120.602C73.6974 120.639 71.9617 122.42 71.9799 124.593C71.9982 126.766 73.7635 128.518 75.9354 128.519C77.0119 128.549 78.0518 128.127 78.8035 127.356C79.5552 126.584 79.95 125.533 79.8924 124.458Z" fill="black"/>
<path d="M105.79 115.817V132.315C105.79 138.154 101.283 140.616 96.7261 140.616C93.459 140.862 90.3296 139.241 88.6147 136.414L93.002 133.848C93.7143 135.302 95.2307 136.169 96.8281 136.035C97.8693 136.211 98.9321 135.887 99.7047 135.159C100.477 134.43 100.872 133.38 100.773 132.315V130.714C99.5567 132.229 97.7 133.067 95.7738 132.97C90.9653 132.97 87.0673 129.022 87.0673 124.152C87.0673 119.282 90.9653 115.335 95.7738 115.335C97.6984 115.246 99.5517 116.082 100.773 117.591V115.869L105.79 115.817ZM100.773 124.152C100.843 122.439 99.8769 120.854 98.3333 120.149C96.7896 119.444 94.9778 119.76 93.7556 120.947C92.5334 122.134 92.1462 123.954 92.7771 125.546C93.4081 127.137 94.9307 128.181 96.624 128.182C97.7166 128.261 98.7908 127.867 99.5813 127.099C100.372 126.332 100.805 125.261 100.773 124.152Z" fill="black"/>
<path d="M108.827 124.458C108.82 120.771 111.034 117.443 114.437 116.027C117.84 114.611 121.76 115.387 124.369 117.991C126.977 120.596 127.759 124.517 126.351 127.924C124.942 131.331 121.62 133.553 117.934 133.553C115.514 133.58 113.183 132.632 111.47 130.92C109.756 129.209 108.803 126.88 108.827 124.458ZM121.891 124.458C121.835 122.286 120.04 120.565 117.868 120.602C115.696 120.639 113.961 122.42 113.979 124.593C113.997 126.766 115.763 128.518 117.934 128.519C119.005 128.539 120.036 128.113 120.78 127.343C121.524 126.573 121.914 125.527 121.857 124.458H121.891Z" fill="black"/>
<path d="M129.572 110.89C129.572 109.147 131.045 107.734 132.862 107.734C134.678 107.734 136.151 109.147 136.151 110.89C136.151 112.633 134.678 114.045 132.862 114.045C131.049 114.036 129.582 112.629 129.572 110.89ZM130.133 115.571H135.554V133.047H130.133V115.571Z" fill="black"/>
<path d="M157.39 124.485C157.514 126.799 156.729 129.068 155.208 130.789C153.688 132.51 151.558 133.54 149.291 133.651C147.383 133.745 145.533 132.97 144.239 131.536V140.135H139.187V115.817H144.239V117.451C145.533 116.017 147.383 115.242 149.291 115.336C151.554 115.447 153.682 116.475 155.202 118.192C156.722 119.909 157.51 122.173 157.39 124.485ZM152.339 124.485C152.283 122.233 150.47 120.443 148.264 120.462C146.059 120.481 144.276 122.302 144.257 124.555C144.238 126.807 145.991 128.658 148.196 128.715C149.312 128.788 150.404 128.364 151.192 127.553C151.979 126.743 152.385 125.624 152.305 124.485H152.339Z" fill="black"/>
<path d="M173.595 127.864C173.595 131.831 170.154 133.524 166.37 133.524C163.277 133.796 160.328 132.171 158.921 129.42L163.428 126.873C163.805 128.154 165.03 129.001 166.37 128.907C167.626 128.907 168.245 128.514 168.245 127.83C168.245 125.932 159.643 126.941 159.643 120.991C159.643 117.23 162.843 115.332 166.525 115.332C169.291 115.248 171.886 116.662 173.303 119.025L168.778 121.384C168.37 120.462 167.453 119.865 166.439 119.863C165.544 119.863 164.993 120.205 164.993 120.837C165.062 122.803 173.595 121.487 173.595 127.864Z" fill="black"/>
<path d="M192.318 115.835V133.045H187.126V131.44C185.901 132.886 184.049 133.667 182.143 133.54C178.682 133.54 175.619 131.064 175.619 126.403V115.835H180.81V125.652C180.718 126.499 181.017 127.342 181.624 127.948C182.231 128.554 183.083 128.858 183.942 128.776C185.846 128.776 187.178 127.684 187.178 125.242V115.835H192.318Z" fill="black"/>
<path d="M222.678 122.487V133.047H217.534V122.932C217.534 121.223 216.693 120.095 215.047 120.095C213.401 120.095 212.338 121.308 212.338 123.342V133.047H207.194V122.932C207.194 121.223 206.371 120.095 204.707 120.095C203.044 120.095 202.015 121.308 202.015 123.342V133.047H196.871V115.824H202.015V117.413C203.108 115.987 204.85 115.209 206.645 115.345C208.45 115.258 210.168 116.12 211.172 117.618C212.338 116.053 214.229 115.195 216.179 115.345C220.088 115.345 222.678 118.181 222.678 122.487Z" fill="black"/>
<path d="M226.98 115.328C229.076 115.328 230.775 113.628 230.775 111.531C230.775 109.434 229.076 107.734 226.98 107.734C224.884 107.734 223.184 109.434 223.184 111.531C223.184 113.628 224.884 115.328 226.98 115.328Z" fill="black"/>
<path d="M116.668 94.5719C126.589 94.5719 134.632 86.5256 134.632 76.6C134.632 66.6744 126.589 58.6281 116.668 58.6281C106.748 58.6281 98.7051 66.6744 98.7051 76.6C98.7051 86.5256 106.748 94.5719 116.668 94.5719Z" fill="black"/>
<path d="M157.15 94.572C167.071 94.572 175.114 86.5256 175.114 76.6C175.114 66.6744 167.071 58.6281 157.15 58.6281C147.229 58.6281 139.187 66.6744 139.187 76.6C139.187 86.5256 147.229 94.572 157.15 94.572Z" fill="black"/>
<path d="M94.6575 58.1218H58.7306V94.0657H94.6575V58.1218Z" fill="black"/>
</svg>
