<svg width="339" height="48" viewBox="0 0 339 48" fill="none" xmlns="http://www.w3.org/2000/svg">
<path d="M22.4485 1.04548C34.9208 -0.0517014 45.9079 9.22874 46.9571 21.7473C48.0064 34.266 38.7187 45.2575 26.2387 46.266C13.8212 47.2695 2.93362 38.0067 1.88956 25.5506C0.845515 13.0945 10.0383 2.13718 22.4485 1.04548ZM33.7295 34.1046C36.517 31.0771 37.3633 28.8264 37.7685 24.7349L11.2047 24.7391C11.3199 28.5401 12.5271 31.6744 15.3249 34.318C17.8768 36.7428 21.2819 38.0544 24.7952 37.9662C28.3267 37.8589 31.1837 36.4767 33.7295 34.1046ZM24.9125 22.8238C26.562 22.55 27.9352 21.403 28.5022 19.8248C29.0691 18.2466 28.7412 16.4843 27.6451 15.2177C26.5489 13.951 24.8559 13.3781 23.219 13.72C20.7599 14.2337 19.1614 16.6264 19.6224 19.104C20.0833 21.5817 22.4343 23.2348 24.9125 22.8238ZM29.7638 13.9306L29.765 22.6414C30.2513 22.6533 31.1362 22.7314 31.5272 22.5258C31.6905 20.6789 31.6056 17.4091 31.6031 15.4558C32.2616 17.1302 33.831 21.2324 34.5931 22.6492L37.7598 22.654L37.7649 13.933L35.8794 13.9207C35.8776 16.3345 35.8494 18.7949 35.8749 21.2042C35.1006 19.1817 33.5363 15.7624 32.9838 13.923L29.7638 13.9306ZM11.1431 13.9146L11.1415 22.6339C13.4775 22.6907 16.9114 23.2556 18.5129 21.3691C19.0361 19.7614 18.8527 19.4349 17.9622 18.049C20.7773 13.0954 13.7669 13.8705 11.1431 13.9146Z" fill="#444B52"/>
<path d="M23.3811 15.4735C23.8964 15.4503 24.4992 15.4031 24.9811 15.586C25.6604 15.8516 26.2094 16.373 26.5109 17.039C27.2751 18.721 26.44 20.2995 24.8326 21.0222C21.2615 21.4587 20.4107 17.2074 23.3811 15.4735Z" fill="#444B52"/>
<path d="M12.9015 19.0439C14.0059 19.0037 15.8937 18.759 16.7385 19.4161C17.064 20.0037 16.9805 19.8253 16.9336 20.5412C16.1383 20.8858 13.9262 20.9252 13.0712 20.7599C12.8356 20.3912 12.9091 19.5573 12.9015 19.0439Z" fill="#444B52"/>
<path d="M13.479 15.6916C14.4351 15.6762 16.2789 15.4709 16.7481 16.4093C16.6676 16.8487 16.5119 16.9671 16.1938 17.2853C15.1878 17.3242 13.61 17.6102 12.9052 16.8799C12.8779 16.4651 12.8275 16.1629 13.0178 15.7868L13.479 15.6916Z" fill="#444B52"/>
<path d="M63.8709 9.50888C66.0365 9.44683 68.4002 9.44507 70.6163 9.48106C75.2424 9.55618 84.0174 8.48406 85.3646 14.5707C86.2445 18.5454 84.5752 21.4912 80.4802 22.2268C85.2338 23.4459 86.7206 25.5307 86.012 30.43C84.457 36.1224 76.3131 35.3408 71.825 35.332C69.1692 35.3426 66.5135 35.3237 63.8583 35.2752L63.8709 9.50888ZM78.4757 29.8578C80.6337 27.3085 79.1613 25.1661 76.1075 24.9329C74.2033 24.7874 72.259 24.8798 70.3481 24.9095L70.3493 30.5692C72.883 30.6027 76.3013 30.9723 78.4757 29.8578ZM70.3498 20.0643C72.7465 20.1045 76.0765 20.5048 78.0114 19.2334C78.7943 18.2853 79.3214 16.2973 78.1148 15.4729C76.1106 14.1037 72.7097 14.5185 70.3501 14.5371L70.3498 20.0643Z" fill="#444B52"/>
<path d="M185.945 7.49723L192.55 7.4953C192.715 16.5705 192.583 26.1974 192.55 35.3102C190.56 35.3302 188.57 35.322 186.582 35.2857C186.544 34.129 186.437 32.8423 186.362 31.6767C184.634 34.9359 182.179 36 178.602 35.5411C178.48 35.5358 178.361 35.522 178.242 35.4997C170.548 34.0631 170.172 20.508 175.732 16.6168C179.298 14.1231 183.523 15.2823 185.942 18.8849L185.945 7.49723ZM182.982 30.7742C187.587 29.2873 186.809 19.7999 181.895 20.2822C178.551 21.2072 178.232 24.7315 178.9 27.7595C179.384 29.94 180.807 30.7961 182.982 30.7742Z" fill="#444B52"/>
<path d="M149.125 9.50253L169.103 9.50255L169.116 14.765L155.782 14.7801L155.783 19.9401L166.363 19.9615V24.8432C164.618 24.875 156.955 24.6896 155.78 24.9449L155.783 30.059L169.639 30.0716L169.642 35.3125L149.126 35.3064L149.125 9.50253Z" fill="#444B52"/>
<path d="M97.0361 15.3358C102.648 14.0775 108.214 17.6192 109.473 23.2488C110.732 28.8784 107.207 34.4668 101.597 35.7346C95.981 37.0039 90.4034 33.4618 89.1433 27.8254C87.8829 22.1891 91.4178 16.5956 97.0361 15.3358ZM99.9884 30.9087C103.325 29.9817 103.357 25.8586 102.717 23.0056C102.267 20.9954 100.846 20.0854 98.8342 20.1291C95.3588 20.8827 95.3227 24.9097 95.8339 27.8212C96.2444 30.159 97.7604 30.9539 99.9884 30.9087Z" fill="#444B52"/>
<path d="M300.707 15.3454C306.336 14.07 311.925 17.6309 313.169 23.2851C314.413 28.9392 310.837 34.5301 305.196 35.7509C299.593 36.9632 294.068 33.4048 292.833 27.7893C291.596 22.1737 295.117 16.6122 300.707 15.3454ZM303.71 30.8994C307.091 29.9669 306.965 25.7833 306.383 22.9269C305.972 20.9172 304.362 20.0324 302.384 20.1402C301.414 20.3892 300.684 20.7219 300.189 21.6359C298.931 23.958 298.752 28.9845 301.329 30.5356C302.015 30.9477 302.955 30.9231 303.71 30.8994Z" fill="#444B52"/>
<path d="M249.562 15.4766L250.598 15.4345C266.63 14.8608 258.668 28.5073 261.613 31.2646C262.177 31.5498 262.967 31.439 263.612 31.402C263.442 32.678 263.25 33.9509 263.035 35.2202C260.954 35.7804 258.112 36.1659 256.442 34.3192C256.104 33.9463 255.7 33.1012 255.321 32.9899C252.845 36.0249 248.985 35.9593 245.489 35.2939C243.565 34.328 242.546 33.2575 242.473 31.0784C242.254 24.9959 249.192 24.6765 253.53 23.7651C254.368 23.5891 254.497 23.1694 254.392 22.3859C254.046 19.7735 252.143 19.9706 250.166 20.1213C248.761 20.9584 248.539 21.3803 248.096 22.9219C246.866 22.6937 243.873 21.8011 242.719 21.3726C243.656 17.3177 245.859 16.3677 249.562 15.4766ZM249.961 31.2847C252.063 31.5209 253.139 31.1538 254.402 29.4227C254.427 28.8056 254.528 27.6656 254.343 27.1293L254.035 27.1138C252.749 27.3716 248.637 27.8569 248.988 29.9136C249.087 30.4961 249.508 30.9356 249.961 31.2847Z" fill="#444B52"/>
<path d="M197.168 15.8127L203.776 15.817C203.827 18.2955 203.183 28.4708 204.6 29.9269C205.11 30.4496 205.883 30.5848 206.583 30.5831C207.432 30.5811 208.157 30.3541 208.763 29.7397C209.334 29.1612 209.683 28.3482 209.847 27.5603C210.397 24.9449 210.028 18.8487 210.021 15.8114L216.649 15.8144L216.659 24.1661L216.657 35.315C214.681 35.3252 212.704 35.3169 210.73 35.2904C210.653 34.1625 210.589 33.0341 210.533 31.905C208.957 34.5917 206.951 35.6545 203.913 35.6748C196.575 35.7239 197.146 30.0676 197.153 24.8208L197.168 15.8127Z" fill="#444B52"/>
<path d="M124.539 15.4732C133.179 14.9782 132.962 20.0489 132.942 26.7873L132.915 35.3134L126.295 35.3053C126.268 31.6408 126.386 27.9179 126.288 24.252C126.261 23.2368 125.939 21.6728 125.135 20.9652C124.478 20.3864 123.091 20.5761 122.226 20.63C121.359 21.1924 120.915 21.5339 120.472 22.4713C119.67 24.5646 119.987 32.648 119.984 35.3099C117.78 35.3361 115.576 35.3257 113.373 35.2783L113.373 15.8107L119.307 15.8133C119.342 17.0599 119.397 18.1424 119.505 19.3844C120.962 16.8761 121.885 16.3066 124.539 15.4732Z" fill="#444B52"/>
<path d="M328.148 15.4846C336.755 14.8664 336.555 19.8207 336.547 26.4734L336.535 35.3126C334.324 35.327 332.114 35.3182 329.903 35.2862C329.883 31.5789 329.977 27.8337 329.909 24.1247C329.893 23.1961 329.641 21.684 328.909 21.025C328.198 20.3839 326.849 20.5684 325.925 20.6227C324.814 21.3384 324.558 21.5937 324.015 22.7973C323.5 24.4749 323.723 32.9418 323.682 35.3117C321.487 35.3355 319.292 35.3237 317.097 35.276C316.907 29.2272 317.059 21.9064 317.096 15.8109L322.977 15.814C323.106 16.8925 323.111 18.4159 323.141 19.5365C324.573 16.9379 325.412 16.4059 328.148 15.4846Z" fill="#444B52"/>
<path d="M228.554 15.4847C233.587 15.2346 238.629 15.5934 240.066 21.4399C238.934 21.9574 235.327 23.0297 233.946 23.4732C233.682 22.1019 233.177 20.5649 231.72 20.1989C229.681 19.6862 227.779 21.122 227.344 23.092C226.898 25.1097 226.85 27.2517 227.79 29.0835C228.696 30.8449 230.828 31.4161 232.539 30.5767C233.543 30.0684 233.867 28.8473 234.157 27.8139L235.752 28.2848C236.947 28.7459 238.863 29.2802 240.131 29.6781C239.343 33.3065 236.683 35.0616 233.124 35.5293C230.285 35.9133 227.286 35.6432 224.765 34.2212C219.259 31.115 218.996 21.3929 223.752 17.5355C225.276 16.299 226.711 15.946 228.554 15.4847Z" fill="#444B52"/>
<path d="M273.344 9.67285L273.527 9.7366C273.675 11.3097 273.579 14.1302 273.57 15.7929L279.299 15.8135C279.336 17.3676 279.311 19.0162 279.314 20.5785L273.572 20.6029C273.59 22.4256 273.1 28.8818 274.019 30.0815C275.467 31.9716 278.445 30.2004 278.842 30.2559C278.887 30.3791 278.929 30.5037 278.968 30.6291C279.152 31.2209 279.609 33.774 279.329 34.3121C278.238 35.0489 277.252 35.2949 275.972 35.5251C272.581 35.9252 267.807 35.4525 267.168 31.4912C266.68 28.4576 266.933 23.7702 266.946 20.5861L263.592 20.5811C263.554 19.0383 263.589 17.3645 263.591 15.811L266.944 15.8049L266.953 11.3878C268.661 11.0438 271.486 10.1382 273.344 9.67285Z" fill="#444B52"/>
<path d="M282.357 15.8125L288.979 15.8153V35.3162C286.789 35.3213 284.533 35.3562 282.352 35.273L282.357 15.8125Z" fill="#444B52"/>
<path d="M284.879 7.19773C290.957 6.87261 290.916 12.7131 286.832 13.4832C284.638 13.654 282.037 13.4073 281.661 10.6912C281.557 9.92548 281.759 9.14942 282.222 8.53265C283.005 7.5011 283.677 7.36029 284.879 7.19773Z" fill="#444B52"/>
</svg>
