<svg width="310" height="200" viewBox="0 0 310 200" fill="none" xmlns="http://www.w3.org/2000/svg">
<path d="M112.23 91.39H114.23V105.31H120.23V107.31H112.23V91.39ZM126.46 91.39C127.647 91.39 128.807 91.7419 129.794 92.4012C130.781 93.0605 131.55 93.9976 132.004 95.0939C132.458 96.1903 132.577 97.3967 132.345 98.5606C132.114 99.7244 131.542 100.794 130.703 101.633C129.864 102.472 128.795 103.043 127.631 103.275C126.467 103.506 125.261 103.387 124.164 102.933C123.068 102.479 122.131 101.71 121.472 100.723C120.812 99.7367 120.46 98.5767 120.46 97.39C120.46 96.6021 120.616 95.8219 120.917 95.0939C121.219 94.366 121.661 93.7045 122.218 93.1474C122.775 92.5902 123.436 92.1483 124.164 91.8467C124.892 91.5452 125.673 91.39 126.46 91.39ZM126.46 101.39C127.252 101.39 128.025 101.155 128.683 100.716C129.341 100.276 129.853 99.6517 130.156 98.9207C130.459 98.1898 130.538 97.3856 130.384 96.6096C130.229 95.8337 129.848 95.121 129.289 94.5616C128.729 94.0022 128.017 93.6212 127.241 93.4669C126.465 93.3125 125.661 93.3917 124.93 93.6945C124.199 93.9972 123.574 94.5099 123.135 95.1677C122.695 95.8255 122.46 96.5989 122.46 97.39C122.466 98.4474 122.89 99.4597 123.639 100.206C124.389 100.951 125.403 101.37 126.46 101.37V101.39ZM122.46 105.33H130.46V107.33H122.46V105.33ZM148.06 107.33H146.06V105.9C144.771 106.803 143.235 107.288 141.66 107.29C140.318 107.299 138.995 106.97 137.813 106.333C136.631 105.697 135.628 104.773 134.897 103.647C134.166 102.521 133.73 101.229 133.629 99.89C133.529 98.5512 133.767 97.2087 134.321 95.986C134.876 94.7633 135.729 93.6999 136.802 92.8936C137.876 92.0873 139.135 91.5641 140.464 91.3723C141.792 91.1804 143.148 91.3261 144.406 91.7958C145.664 92.2655 146.783 93.0441 147.66 94.06L146.19 95.37C145.523 94.6236 144.679 94.0562 143.736 93.7195C142.793 93.3827 141.781 93.2874 140.791 93.4421C139.802 93.5967 138.867 93.9966 138.072 94.6051C137.277 95.2137 136.647 96.0116 136.239 96.9261C135.831 97.8406 135.658 98.8426 135.737 99.8409C135.815 100.839 136.143 101.802 136.689 102.641C137.235 103.481 137.982 104.17 138.863 104.647C139.743 105.123 140.729 105.372 141.73 105.37C142.562 105.372 143.383 105.194 144.139 104.849C144.895 104.504 145.567 103.999 146.11 103.37H140.71V101.37H148.08L148.06 107.33ZM155.42 91.43C156.607 91.43 157.767 91.7819 158.754 92.4412C159.741 93.1005 160.51 94.0376 160.964 95.1339C161.418 96.2303 161.537 97.4367 161.305 98.6006C161.074 99.7644 160.502 100.834 159.663 101.673C158.824 102.512 157.755 103.083 156.591 103.315C155.427 103.546 154.221 103.427 153.124 102.973C152.028 102.519 151.091 101.75 150.432 100.763C149.772 99.7767 149.42 98.6167 149.42 97.43C149.415 96.637 149.567 95.8509 149.868 95.117C150.168 94.3831 150.611 93.716 151.171 93.1544C151.73 92.5927 152.396 92.1476 153.129 91.8448C153.862 91.5419 154.647 91.3873 155.44 91.39L155.42 91.43ZM155.42 101.43C156.212 101.43 156.985 101.195 157.643 100.756C158.301 100.316 158.813 99.6917 159.116 98.9607C159.419 98.2298 159.498 97.4256 159.344 96.6497C159.189 95.8737 158.808 95.161 158.249 94.6016C157.689 94.0422 156.977 93.6612 156.201 93.5069C155.425 93.3525 154.621 93.4317 153.89 93.7345C153.159 94.0372 152.534 94.5499 152.095 95.2077C151.655 95.8655 151.42 96.6389 151.42 97.43C151.436 98.4839 151.867 99.489 152.62 100.227C153.373 100.965 154.386 101.375 155.44 101.37L155.42 101.43ZM151.42 105.37H159.42V107.37H151.42V105.37ZM163.55 91.39H165.55V107.29H163.55V91.39ZM168.32 91.39H170.32C170.424 91.3791 170.527 91.3791 170.63 91.39C171.468 91.2991 172.315 91.3857 173.117 91.644C173.919 91.9024 174.658 92.3267 175.285 92.8894C175.912 93.4521 176.413 94.1406 176.757 94.91C177.1 95.6794 177.278 96.5125 177.278 97.355C177.278 98.1975 177.1 99.0306 176.757 99.8C176.413 100.569 175.912 101.258 175.285 101.821C174.658 102.383 173.919 102.808 173.117 103.066C172.315 103.324 171.468 103.411 170.63 103.32H170.32V107.32H168.32V91.39ZM170.32 93.39V101.3H170.63C171.195 101.375 171.77 101.329 172.315 101.164C172.861 100.999 173.365 100.72 173.794 100.344C174.222 99.9689 174.566 99.5062 174.801 98.9872C175.037 98.4682 175.158 97.9049 175.158 97.335C175.158 96.7651 175.037 96.2018 174.801 95.6828C174.566 95.1638 174.222 94.7011 173.794 94.3257C173.365 93.9503 172.861 93.6708 172.315 93.506C171.77 93.3411 171.195 93.2948 170.63 93.37C170.522 93.3813 170.414 93.4048 170.31 93.44L170.32 93.39ZM184.73 92.54L183.25 93.71C182.995 93.4432 182.669 93.2548 182.31 93.167C181.952 93.0792 181.575 93.0956 181.226 93.2143C180.876 93.3329 180.567 93.549 180.336 93.8369C180.105 94.1249 179.961 94.4729 179.92 94.84V95C179.92 95.88 180.53 96.47 181.72 96.55C186.3 96.83 188.4 98.98 188.4 101.82V102C188.282 103.124 187.844 104.19 187.137 105.072C186.43 105.954 185.485 106.615 184.413 106.975C183.342 107.335 182.19 107.38 181.094 107.105C179.998 106.829 179.004 106.244 178.23 105.42L179.76 104.24C180.117 104.622 180.552 104.921 181.035 105.118C181.518 105.315 182.039 105.404 182.56 105.38C183.524 105.431 184.469 105.107 185.2 104.478C185.93 103.848 186.389 102.96 186.48 102V101.86C186.48 99.19 183.86 98.7 181.59 98.48C179.49 98.28 177.98 96.97 177.98 95.08V95C178.055 94.016 178.504 93.098 179.235 92.4356C179.966 91.7731 180.924 91.4167 181.91 91.44C182.433 91.4246 182.953 91.5189 183.437 91.717C183.921 91.9151 184.359 92.2125 184.72 92.59L184.73 92.54ZM196.23 105.26C198.72 105.26 200.69 102.57 200.69 99.26V91.26H202.69V99.26C202.69 103.66 199.81 107.21 196.27 107.21C192.73 107.21 189.85 103.66 189.85 99.26V91.26H191.85V99.26C191.77 102.62 193.74 105.31 196.22 105.31L196.23 105.26ZM218.04 107.26H216.04V97.36L211.43 103.36L206.82 97.36V107.29H204.82V91.39L211.42 100.08L218.02 91.39L218.04 107.26Z" fill="#394149"/>
<path d="M102.63 89C102.63 87.5572 102.057 86.1735 101.037 85.1533C100.016 84.1331 98.6328 83.56 97.19 83.56C95.7472 83.56 94.3635 84.1331 93.3433 85.1533C92.3231 86.1735 91.75 87.5572 91.75 89V105.45L96.23 108.66V116.48H98.15V108.66L102.63 105.45V89ZM100.71 98.2L98.15 100.76V98.36L100.71 95.8V98.2ZM93.71 95.8L96.27 98.36V100.76L93.71 98.2V95.8ZM100.71 93.08L97.19 96.6L93.67 93V90.6L97.19 94.12L100.71 90.6V93.08ZM97.19 85.48C97.9641 85.4834 98.7158 85.7405 99.3299 86.2119C99.944 86.6833 100.387 87.343 100.59 88.09L97.19 91.48L93.79 88.09C93.9859 87.3356 94.4254 86.667 95.0401 86.1878C95.6549 85.7087 96.4106 85.4458 97.19 85.44V85.48ZM93.67 104.48V100.88L96.23 103.44V106.3L93.67 104.48ZM98.15 106.31V103.44L100.71 100.88V104.47L98.15 106.31Z" fill="#394149"/>
</svg>
