<svg width="309" height="200" viewBox="0 0 309 200" fill="none" xmlns="http://www.w3.org/2000/svg">
<path d="M75.8221 99.2048C80.5979 99.2048 84.4693 95.3292 84.4693 90.5488C84.4693 85.7682 80.5979 81.8928 75.8221 81.8928C71.0464 81.8928 67.1748 85.7682 67.1748 90.5488C67.1748 95.3292 71.0464 99.2048 75.8221 99.2048Z" fill="black"/>
<path d="M75.8221 116.517C80.5979 116.517 84.4693 112.641 84.4693 107.861C84.4693 103.08 80.5979 99.2048 75.8221 99.2048C71.0464 99.2048 67.1748 103.08 67.1748 107.861C67.1748 112.641 71.0464 116.517 75.8221 116.517Z" fill="black"/>
<path d="M112.833 106.252H124.427V103.092H116.662V88.1222H112.833V106.252Z" fill="black"/>
<path d="M132.283 106.518C136.403 106.518 138.968 103.694 138.968 99.5065C138.968 95.2928 136.403 92.4776 132.283 92.4776C128.161 92.4776 125.597 95.2928 125.597 99.5065C125.597 103.694 128.161 106.518 132.283 106.518ZM132.3 103.597C130.399 103.597 129.426 101.853 129.426 99.4803C129.426 97.1077 130.399 95.3548 132.3 95.3548C134.166 95.3548 135.139 97.1077 135.139 99.4803C135.139 101.853 134.166 103.597 132.3 103.597Z" fill="black"/>
<path d="M146.792 111.635C150.674 111.635 153.434 109.864 153.434 106.385V92.6548H149.693V94.9385H149.551C149.047 93.8322 147.941 92.4777 145.669 92.4777C142.688 92.4777 140.168 94.7972 140.168 99.4273C140.168 103.951 142.617 106.058 145.678 106.058C147.844 106.058 149.056 104.969 149.551 103.844H149.71V106.332C149.71 108.2 148.516 108.926 146.88 108.926C145.218 108.926 144.378 108.2 144.068 107.376L140.584 107.846C141.035 109.988 143.13 111.635 146.792 111.635ZM146.872 103.225C145.023 103.225 144.015 101.755 144.015 99.4094C144.015 97.0988 145.006 95.4789 146.872 95.4789C148.702 95.4789 149.728 97.0278 149.728 99.4094C149.728 101.808 148.684 103.225 146.872 103.225Z" fill="black"/>
<path d="M161.821 106.518C165.942 106.518 168.506 103.694 168.506 99.5065C168.506 95.2927 165.942 92.4775 161.821 92.4775C157.699 92.4775 155.135 95.2927 155.135 99.5065C155.135 103.694 157.699 106.518 161.821 106.518ZM161.838 103.597C159.937 103.597 158.964 101.853 158.964 99.4802C158.964 97.1076 159.937 95.3547 161.838 95.3547C163.704 95.3547 164.677 97.1076 164.677 99.4802C164.677 101.853 163.704 103.597 161.838 103.597Z" fill="black"/>
<path d="M170.21 106.252H173.977V92.6548H170.21V106.252ZM172.103 90.9019C173.226 90.9019 174.146 90.0432 174.146 88.9898C174.146 87.9451 173.226 87.0864 172.103 87.0864C170.988 87.0864 170.068 87.9451 170.068 88.9898C170.068 90.0432 170.988 90.9019 172.103 90.9019Z" fill="black"/>
<path d="M176.248 111.352H180.016V104.075H180.131C180.652 105.208 181.793 106.473 183.986 106.473C187.081 106.473 189.496 104.021 189.496 99.4713C189.496 94.7971 186.975 92.4776 183.995 92.4776C181.722 92.4776 180.635 93.8321 180.131 94.9385H179.962V92.6547H176.248V111.352ZM179.936 99.4534C179.936 97.0278 180.962 95.4788 182.793 95.4788C184.658 95.4788 185.649 97.0987 185.649 99.4534C185.649 101.826 184.64 103.473 182.793 103.473C180.979 103.473 179.936 101.879 179.936 99.4534Z" fill="black"/>
<path d="M202.563 96.5322C202.227 94.0271 200.211 92.4776 196.779 92.4776C193.303 92.4776 191.013 94.0886 191.021 96.7093C191.013 98.7455 192.295 100.064 194.948 100.596L197.301 101.065C198.486 101.304 199.026 101.738 199.043 102.42C199.026 103.225 198.15 103.8 196.832 103.8C195.488 103.8 194.595 103.225 194.365 102.118L190.659 102.313C191.013 104.916 193.224 106.518 196.823 106.518C200.343 106.518 202.864 104.721 202.872 102.038C202.864 100.073 201.581 98.8958 198.946 98.356L196.487 97.8598C195.223 97.5854 194.754 97.1518 194.763 96.497C194.754 95.6822 195.674 95.1514 196.841 95.1514C198.15 95.1514 198.928 95.8683 199.114 96.7445L202.563 96.5322Z" fill="black"/>
<path d="M213.209 100.463C213.218 102.287 211.971 103.243 210.618 103.243C209.194 103.243 208.274 102.242 208.266 100.64V92.6548H204.498V101.313C204.507 104.491 206.364 106.429 209.097 106.429C211.14 106.429 212.607 105.376 213.218 103.782H213.36V106.252H216.977V92.6548H213.209V100.463Z" fill="black"/>
<path d="M219.243 106.252H223.011V98.09C223.011 96.5852 223.966 95.585 225.222 95.585C226.46 95.585 227.291 96.4349 227.291 97.7715V106.252H230.944V97.9486C230.944 96.5411 231.749 95.585 233.119 95.585C234.322 95.585 235.224 96.3377 235.224 97.8514V106.252H238.983V97.1077C238.983 94.1595 237.232 92.4776 234.702 92.4776C232.713 92.4776 231.165 93.4957 230.608 95.0536H230.466C230.033 93.4778 228.644 92.4776 226.778 92.4776C224.948 92.4776 223.559 93.4516 222.993 95.0536H222.834V92.6547H219.243V106.252Z" fill="black"/>
<path d="M93.1163 99.2048C97.8923 99.2048 101.763 95.3292 101.763 90.5488C101.763 85.7683 97.8923 81.8929 93.1163 81.8929C88.3405 81.8929 84.469 85.7683 84.469 90.5488C84.469 95.3292 88.3405 99.2048 93.1163 99.2048Z" fill="black"/>
<path d="M93.1163 116.517C97.8923 116.517 101.763 112.641 101.763 107.861C101.763 103.08 97.8923 99.2048 93.1163 99.2048C88.3405 99.2048 84.469 103.08 84.469 107.861C84.469 112.641 88.3405 116.517 93.1163 116.517Z" fill="black"/>
<path d="M112.833 106.252H124.427V103.092H116.662V88.1222H112.833V106.252Z" fill="black"/>
<path d="M132.283 106.518C136.403 106.518 138.968 103.694 138.968 99.5065C138.968 95.2928 136.403 92.4776 132.283 92.4776C128.161 92.4776 125.597 95.2928 125.597 99.5065C125.597 103.694 128.161 106.518 132.283 106.518ZM132.3 103.597C130.399 103.597 129.426 101.853 129.426 99.4803C129.426 97.1077 130.399 95.3548 132.3 95.3548C134.166 95.3548 135.139 97.1077 135.139 99.4803C135.139 101.853 134.166 103.597 132.3 103.597Z" fill="black"/>
<path d="M146.792 111.635C150.674 111.635 153.434 109.864 153.434 106.385V92.6548H149.693V94.9385H149.551C149.047 93.8322 147.941 92.4777 145.669 92.4777C142.688 92.4777 140.168 94.7972 140.168 99.4273C140.168 103.951 142.617 106.058 145.678 106.058C147.844 106.058 149.056 104.969 149.551 103.844H149.71V106.332C149.71 108.2 148.516 108.926 146.88 108.926C145.218 108.926 144.378 108.2 144.068 107.376L140.584 107.846C141.035 109.988 143.13 111.635 146.792 111.635ZM146.872 103.225C145.023 103.225 144.015 101.755 144.015 99.4094C144.015 97.0988 145.006 95.4789 146.872 95.4789C148.702 95.4789 149.728 97.0278 149.728 99.4094C149.728 101.808 148.684 103.225 146.872 103.225Z" fill="black"/>
<path d="M161.821 106.518C165.942 106.518 168.506 103.694 168.506 99.5065C168.506 95.2927 165.942 92.4775 161.821 92.4775C157.699 92.4775 155.135 95.2927 155.135 99.5065C155.135 103.694 157.699 106.518 161.821 106.518ZM161.838 103.597C159.937 103.597 158.964 101.853 158.964 99.4802C158.964 97.1076 159.937 95.3547 161.838 95.3547C163.704 95.3547 164.677 97.1076 164.677 99.4802C164.677 101.853 163.704 103.597 161.838 103.597Z" fill="black"/>
<path d="M170.21 106.252H173.977V92.6548H170.21V106.252ZM172.103 90.9019C173.226 90.9019 174.146 90.0432 174.146 88.9898C174.146 87.9451 173.226 87.0864 172.103 87.0864C170.988 87.0864 170.068 87.9451 170.068 88.9898C170.068 90.0432 170.988 90.9019 172.103 90.9019Z" fill="black"/>
<path d="M176.248 111.352H180.016V104.075H180.131C180.652 105.208 181.793 106.473 183.986 106.473C187.081 106.473 189.496 104.021 189.496 99.4713C189.496 94.7971 186.975 92.4776 183.995 92.4776C181.722 92.4776 180.635 93.8321 180.131 94.9385H179.962V92.6547H176.248V111.352ZM179.936 99.4534C179.936 97.0278 180.962 95.4788 182.793 95.4788C184.658 95.4788 185.649 97.0987 185.649 99.4534C185.649 101.826 184.64 103.473 182.793 103.473C180.979 103.473 179.936 101.879 179.936 99.4534Z" fill="black"/>
<path d="M202.563 96.5322C202.227 94.0271 200.211 92.4776 196.779 92.4776C193.303 92.4776 191.013 94.0886 191.021 96.7093C191.013 98.7455 192.295 100.064 194.948 100.596L197.301 101.065C198.486 101.304 199.026 101.738 199.043 102.42C199.026 103.225 198.15 103.8 196.832 103.8C195.488 103.8 194.595 103.225 194.365 102.118L190.659 102.313C191.013 104.916 193.224 106.518 196.823 106.518C200.343 106.518 202.864 104.721 202.872 102.038C202.864 100.073 201.581 98.8958 198.946 98.356L196.487 97.8598C195.223 97.5854 194.754 97.1518 194.763 96.497C194.754 95.6822 195.674 95.1514 196.841 95.1514C198.15 95.1514 198.928 95.8683 199.114 96.7445L202.563 96.5322Z" fill="black"/>
<path d="M213.209 100.463C213.218 102.287 211.971 103.243 210.618 103.243C209.194 103.243 208.274 102.242 208.266 100.64V92.6548H204.498V101.313C204.507 104.491 206.364 106.429 209.097 106.429C211.14 106.429 212.607 105.376 213.218 103.782H213.36V106.252H216.977V92.6548H213.209V100.463Z" fill="black"/>
<path d="M219.243 106.252H223.011V98.09C223.011 96.5852 223.966 95.585 225.222 95.585C226.46 95.585 227.291 96.4349 227.291 97.7715V106.252H230.944V97.9486C230.944 96.5411 231.749 95.585 233.119 95.585C234.322 95.585 235.224 96.3377 235.224 97.8514V106.252H238.983V97.1077C238.983 94.1595 237.232 92.4776 234.702 92.4776C232.713 92.4776 231.165 93.4957 230.608 95.0536H230.466C230.033 93.4778 228.644 92.4776 226.778 92.4776C224.948 92.4776 223.559 93.4516 222.993 95.0536H222.834V92.6547H219.243V106.252Z" fill="black"/>
</svg>
