<svg width="309" height="200" viewBox="0 0 309 200" fill="none" xmlns="http://www.w3.org/2000/svg">
<path d="M127.51 94.26H130.72V107.26H127.51V94.26ZM132 102.37C132 99.15 134 97.22 137 97.22C140 97.22 142 99.15 142 102.37C142 105.59 140.07 107.54 137 107.54C133.93 107.54 132 105.66 132 102.37ZM138.82 102.37C138.82 100.6 138.13 99.56 137.03 99.56C135.93 99.56 135.25 100.56 135.25 102.37C135.25 104.18 135.93 105.17 137.03 105.17C138.13 105.17 138.84 104.18 138.84 102.38L138.82 102.37ZM143.28 107.93H146.38C146.521 108.264 146.767 108.542 147.081 108.723C147.395 108.903 147.76 108.976 148.12 108.93C149.35 108.93 149.99 108.27 149.99 107.29V105.49H150C149.735 106.05 149.306 106.518 148.771 106.83C148.235 107.142 147.618 107.285 147 107.24C144.65 107.24 143.09 105.45 143.09 102.37C143.09 99.29 144.58 97.37 147.09 97.37C147.724 97.336 148.353 97.4996 148.89 97.8381C149.427 98.1766 149.846 98.6734 150.09 99.26H150V97.45H153.18V107.19C153.18 109.54 151.1 111.01 148.04 111.01C145.26 111 143.48 109.73 143.3 107.94L143.28 107.93ZM150 102.37C150 100.8 149.28 99.81 148.14 99.81C147 99.81 146.3 100.81 146.3 102.37C146.3 103.93 146.99 104.85 148.14 104.85C149.29 104.85 150 104 150 102.37ZM154.45 102.37C154.45 99.15 156.45 97.22 159.45 97.22C162.45 97.22 164.45 99.15 164.45 102.37C164.45 105.59 162.51 107.54 159.45 107.54C156.39 107.54 154.47 105.66 154.47 102.37H154.45ZM161.27 102.37C161.27 100.6 160.57 99.56 159.48 99.56C158.39 99.56 157.7 100.56 157.7 102.37C157.7 104.18 158.38 105.17 159.48 105.17C160.58 105.17 161.29 104.18 161.29 102.38L161.27 102.37ZM165.75 95.08C165.736 94.753 165.82 94.4293 165.991 94.1506C166.163 93.8718 166.414 93.6508 166.712 93.5158C167.01 93.3809 167.342 93.3383 167.664 93.3934C167.987 93.4486 168.286 93.599 168.522 93.8253C168.759 94.0516 168.922 94.3435 168.991 94.6634C169.06 94.9833 169.032 95.3166 168.91 95.6203C168.788 95.9241 168.579 96.1845 168.308 96.368C168.037 96.5515 167.717 96.6497 167.39 96.65C167.18 96.6553 166.972 96.619 166.777 96.5432C166.582 96.4675 166.404 96.3537 166.253 96.2086C166.103 96.0635 165.982 95.8898 165.899 95.6978C165.816 95.5058 165.772 95.2992 165.77 95.09L165.75 95.08ZM165.75 97.44H169V107.3H165.8L165.75 97.44ZM180.69 102.37C180.69 105.58 179.25 107.44 176.8 107.44C176.172 107.479 175.548 107.324 175.012 106.997C174.475 106.669 174.052 106.185 173.8 105.61H173.74V110.47H170.53V97.47H173.72V99.23H173.78C174.024 98.6432 174.442 98.146 174.979 97.806C175.516 97.466 176.145 97.2998 176.78 97.33C179.3 97.31 180.75 99.16 180.75 102.38L180.69 102.37ZM177.42 102.37C177.42 100.81 176.69 99.8 175.56 99.8C174.43 99.8 173.72 100.8 173.71 102.37C173.7 103.94 174.43 104.93 175.56 104.93C176.69 104.93 177.48 104 177.48 102.38L177.42 102.37ZM186.17 97.21C188.86 97.21 190.53 98.48 190.55 100.52H187.62C187.62 99.81 187.03 99.37 186.15 99.37C185.27 99.37 184.85 99.71 184.85 100.22C184.85 100.73 185.22 100.89 185.96 101.04L188.02 101.46C190.02 101.88 190.82 102.68 190.82 104.17C190.82 106.17 188.97 107.53 186.22 107.53C183.47 107.53 181.68 106.21 181.55 104.2H184.66C184.75 104.93 185.33 105.36 186.27 105.36C187.21 105.36 187.65 105.06 187.65 104.53C187.65 104 187.35 103.91 186.58 103.75L184.72 103.36C182.79 102.95 181.78 101.94 181.78 100.43C181.84 98.47 183.52 97.22 186.23 97.22L186.17 97.21ZM201.57 107.29H198.46V105.44H198.4C198.225 106.057 197.846 106.596 197.325 106.969C196.803 107.342 196.17 107.525 195.53 107.49C195.046 107.506 194.565 107.419 194.118 107.236C193.67 107.052 193.266 106.776 192.933 106.426C192.6 106.076 192.344 105.659 192.183 105.203C192.022 104.747 191.96 104.262 192 103.78V97.45H195.21V103.09C195.21 104.25 195.82 104.88 196.82 104.88C197.054 104.878 197.286 104.826 197.498 104.727C197.711 104.628 197.9 104.485 198.053 104.307C198.205 104.129 198.318 103.92 198.383 103.694C198.448 103.469 198.464 103.232 198.43 103V97.45H201.63L201.57 107.29ZM203.12 97.44H206.24V99.34H206.31C206.482 98.7313 206.851 98.197 207.36 97.8206C207.868 97.4443 208.487 97.2471 209.12 97.26C209.754 97.2048 210.387 97.3884 210.894 97.7749C211.401 98.1614 211.745 98.723 211.86 99.35H212C212.199 98.7197 212.602 98.1731 213.144 97.7951C213.687 97.4172 214.339 97.229 215 97.26C215.439 97.2433 215.876 97.3195 216.284 97.4835C216.691 97.6476 217.059 97.8959 217.364 98.2121C217.669 98.5284 217.904 98.9054 218.053 99.3187C218.202 99.7319 218.262 100.172 218.23 100.61V107.3H215V101.43C215 100.43 214.53 99.87 213.62 99.87C213.418 99.8667 213.218 99.907 213.033 99.9883C212.848 100.07 212.683 100.19 212.549 100.341C212.415 100.492 212.315 100.67 212.257 100.863C212.198 101.056 212.182 101.26 212.21 101.46V107.3H209.15V101.4C209.15 100.4 208.66 99.87 207.78 99.87C207.576 99.8684 207.374 99.9104 207.187 99.9932C207.001 100.076 206.834 100.198 206.699 100.35C206.564 100.503 206.462 100.682 206.402 100.877C206.342 101.072 206.324 101.278 206.35 101.48V107.3H203.14L203.12 97.44ZM121.16 95.11C121.16 93.1197 120.559 91.1757 119.435 89.5328C118.312 87.8898 116.718 86.6245 114.864 85.9025C113.009 85.1805 110.979 85.0355 109.041 85.4865C107.102 85.9375 105.345 86.9634 104 88.43H91.5195V114.77H117.87V102.46C118.904 101.535 119.731 100.402 120.298 99.1358C120.865 97.8693 121.159 96.4975 121.16 95.11ZM116.09 95.11C116.092 96.0637 115.811 96.9966 115.282 97.7905C114.754 98.5845 114.002 99.2038 113.121 99.5702C112.24 99.9365 111.271 100.033 110.335 99.8486C109.4 99.6637 108.54 99.2055 107.865 98.5318C107.19 97.8581 106.73 96.9993 106.543 96.064C106.356 95.1287 106.451 94.1591 106.815 93.2778C107.18 92.3964 107.798 91.6431 108.591 91.113C109.384 90.5829 110.316 90.3 111.27 90.3C112.546 90.3 113.771 90.8064 114.674 91.7082C115.578 92.6099 116.087 93.8334 116.09 95.11ZM112.8 109.7H96.5895V93.5H101.53C101.434 94.0314 101.384 94.57 101.38 95.11C101.382 97.7322 102.425 100.246 104.279 102.1C106.133 103.954 108.647 104.997 111.27 105C111.782 104.997 112.294 104.954 112.8 104.87V109.7Z" fill="#394149"/>
</svg>
