<svg width="207" height="48" viewBox="0 0 207 48" fill="none" xmlns="http://www.w3.org/2000/svg">
<path d="M30.2155 33.6955C31.2978 35.1127 31.8417 36.8236 31.8417 38.8282C31.8417 41.7581 30.6619 44.0174 28.3041 45.608C25.9445 47.2003 22.5345 47.9947 18.074 47.9947H0V14.5699H17.1157C21.3866 14.5699 24.6372 15.3572 26.8692 16.9336C29.0995 18.51 30.2155 20.6349 30.2155 23.3082C30.2155 24.9006 29.824 26.3248 29.0445 27.581C28.2633 28.8389 27.1562 29.8333 25.7213 30.5657C27.6345 31.2345 29.1313 32.2766 30.2155 33.6938V33.6955ZM9.37092 21.3992V27.8446H15.8721C19.0589 27.8446 20.6532 26.7636 20.6532 24.598C20.6532 22.4324 19.0589 21.3992 15.8721 21.3992H9.37092ZM22.2776 37.7772C22.2776 35.5179 20.6196 34.3873 17.3052 34.3873H9.36915V41.1671H17.3052C20.6196 41.1671 22.2776 40.0383 22.2776 37.7772Z" fill="#444B52"/>
<path d="M51.3931 39.1148H46.2293V47.9965H36.7627V14.5716H52.0609C55.0883 14.5716 57.7171 15.0723 59.9491 16.0755C62.1794 17.0787 63.9012 18.51 65.1129 20.373C66.3228 22.2343 66.9286 24.4246 66.9286 26.9387C66.9286 29.4529 66.3617 31.468 65.2315 33.2656C64.0996 35.065 62.4823 36.4733 60.3796 37.4924L67.5982 47.9965H57.462L51.3913 39.1148H51.3931ZM55.8872 23.31C54.8987 22.4501 53.432 22.0202 51.4887 22.0202H46.2293V31.8095H51.4887C53.432 31.8095 54.8987 31.3884 55.8872 30.5445C56.8739 29.7006 57.3699 28.4992 57.3699 26.9387C57.3699 25.3783 56.8757 24.1699 55.8872 23.31Z" fill="#444B52"/>
<path d="M72.1419 14.5716H81.6085V47.9965H72.1419V14.5716Z" fill="#444B52"/>
<path d="M88.3489 14.5716H104.173C107.838 14.5716 111.089 15.2563 113.925 16.6257C116.761 17.9951 118.961 19.936 120.522 22.4519C122.082 24.9678 122.865 27.9118 122.865 31.2858C122.865 34.6598 122.084 37.6056 120.522 40.1197C118.961 42.6356 116.761 44.5765 113.925 45.9459C111.089 47.3153 107.836 48 104.173 48H88.3489V14.5716ZM103.791 40.4523C106.658 40.4523 108.961 39.6403 110.699 38.0178C112.435 36.3937 113.305 34.1502 113.305 31.2858C113.305 28.4214 112.435 26.1762 110.699 24.5538C108.961 22.9296 106.658 22.1193 103.791 22.1193H97.8137V40.4541H103.791V40.4523Z" fill="#444B52"/>
<path d="M191.519 47.9965H164.65V14.5716H190.898V21.8769H174.021V27.512H188.889V34.5784H174.021V40.6894H191.519V47.9965Z" fill="#444B52"/>
<path d="M145.618 22.7845H158.966V14.5734H145.906C134.048 14.5734 127.039 21.592 127.039 31.3318C127.039 41.0716 134.048 47.9947 145.906 47.9947H158.966V31.284H150.466V39.7853L145.62 39.7818C140.148 39.7818 136.594 36.5352 136.594 31.2363C136.594 25.9373 140.146 22.7845 145.62 22.7845" fill="#444B52"/>
<path d="M207 0H181.672V7.30704H207V0Z" fill="#FF4713"/>
</svg>
