<svg width="310" height="200" viewBox="0 0 310 200" fill="none" xmlns="http://www.w3.org/2000/svg">
<g clip-path="url(#clip0_1299_121)">
<path fill-rule="evenodd" clip-rule="evenodd" d="M127.64 85.8C127.64 84.7 128.54 83.8 129.74 83.8H133.34C134.14 83.8 134.94 84.1 135.54 84.6L136.64 85.5H136.74C138.74 84.9 141.14 84.8 143.54 84.8C145.94 84.8 148.34 84.9 150.34 85.5H150.44L151.54 84.6C152.14 84.1 152.94 83.8 153.74 83.8H157.34C158.44 83.8 159.44 84.7 159.44 85.8V87.1C159.44 88.1 159.04 89 158.34 89.7L157.34 90.4001C156.94 90.8001 156.44 91.1 155.84 91.2L155.64 91.3001C156.44 93.2001 156.94 95.3 156.94 97C156.94 103.7 152.74 106.6 149.04 109.2C146.14 111.2 143.54 113 143.54 116.3C143.54 113 140.94 111.2 138.04 109.2C134.34 106.6 130.14 103.8 130.14 97C130.14 95.3 130.64 93.3001 131.44 91.3001L131.24 91.2C130.64 91 130.14 90.8001 129.74 90.4001L128.84 89.6C128.14 88.9 127.74 88 127.74 87V85.8H127.64ZM146.24 102.5C146.24 102.8 146.14 103.1 145.84 103.4C145.54 103.6 145.24 103.8 144.94 103.8C144.64 103.8 144.34 103.7 144.14 103.5C144.54 104.6 145.54 105.6 147.14 104C148.54 102.5 147.04 99.3001 145.64 97.4001C145.14 96.8001 144.44 96.5 143.64 96.5C142.84 96.5 142.04 96.8001 141.64 97.4001C140.24 99.3001 138.74 102.5 140.14 104C141.74 105.6 142.74 104.6 143.14 103.5C142.94 103.7 142.64 103.8 142.34 103.8C141.94 103.8 141.64 103.7 141.44 103.4C141.14 103.2 141.04 102.9 141.04 102.5H146.24ZM138.44 93H134.74L137.64 95.3001C138.24 95.8001 139.24 95.6 139.64 95C140.14 94.1 139.44 93 138.44 93ZM148.64 93H152.34L149.44 95.3001C148.84 95.8001 147.84 95.6 147.44 95C146.94 94.1 147.64 93 148.64 93Z" fill="black"/>
<path d="M163.84 106.8H167.14V94.3H163.84V106.8ZM163.84 92.3H167.14V89.3H163.84V92.3ZM169.24 110.8H172.54V105.3C173.24 106.4 174.34 107.1 176.14 107.1C179.34 107.1 181.54 104.5 181.54 100.5C181.54 96.6 179.44 93.9 176.14 93.9C174.44 93.9 173.24 94.7 172.44 95.8H172.34V94.2H169.14V110.8H169.24ZM175.54 104.4C173.54 104.4 172.54 102.9 172.54 100.7C172.54 98.5 173.34 96.7 175.44 96.7C177.44 96.7 178.34 98.4 178.34 100.7C178.24 103 177.24 104.4 175.54 104.4ZM188.24 107.1C191.34 107.1 193.54 105.6 193.54 103.1C193.54 100.2 191.24 99.6 189.14 99.2C187.34 98.8 185.74 98.7 185.74 97.7C185.74 96.8 186.64 96.3 187.84 96.3C189.24 96.3 190.14 96.8 190.24 98.1H193.24C193.04 95.6 191.14 94 187.84 94C185.04 94 182.74 95.3 182.74 98C182.74 100.7 184.94 101.3 187.14 101.8C188.84 102.1 190.44 102.3 190.44 103.5C190.44 104.4 189.64 104.9 188.14 104.9C186.64 104.9 185.64 104.3 185.44 102.8H182.34C182.64 105.4 184.64 107.1 188.24 107.1ZM206.04 106.8V94.3H202.74V101.5C202.74 103.2 201.84 104.3 200.24 104.3C198.84 104.3 198.14 103.5 198.14 102V94.2H194.84V102.5C194.84 105.2 196.44 107 199.14 107C200.94 107 201.84 106.3 202.74 105.2H202.84V106.7H206.04V106.8ZM208.24 106.8H211.54V99.6C211.54 97.9 212.44 96.9 213.74 96.9C214.94 96.9 215.64 97.6 215.64 99V106.8H218.94V99.6C218.94 97.9 219.84 96.9 221.14 96.9C222.34 96.9 223.04 97.6 223.04 99V106.8H226.34V98.4C226.34 95.7 224.84 94 222.24 94C220.64 94 219.34 94.8 218.54 96.2C217.94 94.9 216.64 94 215.04 94C213.34 94 212.14 94.9 211.44 96H211.34V94.3H208.14V106.8H208.24ZM80.3398 106.8H83.6398V89.4H80.3398V106.8ZM91.7398 107.1C95.6398 107.1 98.2398 104.2 98.2398 100.5C98.2398 96.8 95.5398 93.9 91.7398 93.9C87.8398 93.9 85.2398 96.8 85.2398 100.5C85.2398 104.2 87.8398 107.1 91.7398 107.1ZM91.7398 104.6C89.7398 104.6 88.5398 103 88.5398 100.5C88.5398 98.1 89.6398 96.4 91.7398 96.4C93.7398 96.4 94.9398 98.1 94.9398 100.5C94.9398 103 93.7398 104.6 91.7398 104.6ZM105.24 111C107.04 111 108.74 110.6 109.74 109.6C110.64 108.7 111.24 107.6 111.24 105.8V94.3H108.04V95.6C107.24 94.6 106.14 93.9 104.54 93.9C101.34 93.9 99.1398 96.3 99.1398 100C99.1398 103.8 101.84 106 104.64 106C106.24 106 107.14 105.4 107.94 104.5H108.04V105.9C108.04 107.6 107.14 108.5 105.24 108.5C103.74 108.5 103.04 107.9 102.74 107.1H99.4398C99.8398 109.6 101.84 111 105.24 111ZM105.24 103.4C103.54 103.4 102.44 102.2 102.44 100C102.44 97.9 103.54 96.6 105.24 96.6C107.24 96.6 108.24 98.2 108.24 100C108.14 101.8 107.34 103.4 105.24 103.4ZM119.34 107.1C123.24 107.1 125.84 104.2 125.84 100.5C125.84 96.8 123.14 93.9 119.34 93.9C115.54 93.9 112.84 96.8 112.84 100.5C112.84 104.2 115.44 107.1 119.34 107.1ZM119.34 104.6C117.34 104.6 116.14 103 116.14 100.5C116.14 98.1 117.24 96.4 119.34 96.4C121.34 96.4 122.54 98.1 122.54 100.5C122.44 103 121.34 104.6 119.34 104.6ZM226.24 91.6C226.24 91 226.74 90.6 227.24 90.6H229.24C229.84 90.6 230.24 91.1 230.24 91.6C230.24 92.2 229.74 92.6 229.24 92.6H227.24C226.74 92.6 226.24 92.1 226.24 91.6Z" fill="black"/>
</g>
<defs>
<clipPath id="clip0_1299_121">
<rect width="150" height="100" fill="white" transform="translate(80 50)"/>
</clipPath>
</defs>
</svg>
