<svg width="310" height="200" viewBox="0 0 310 200" fill="none" xmlns="http://www.w3.org/2000/svg">
<path d="M119.73 95.71C120.09 95.71 120.21 95.84 120.21 96.19V104.11H124.28C124.63 104.11 124.76 104.24 124.76 104.59V105.29C124.76 105.64 124.63 105.77 124.28 105.77H118.92C118.57 105.77 118.43 105.64 118.43 105.29V96.19C118.43 95.84 118.57 95.71 118.92 95.71H119.73ZM128.31 99.2C128.31 96.89 129.77 95.5 132.31 95.5C134.85 95.5 136.31 96.89 136.31 99.2V102.28C136.31 104.59 134.84 105.98 132.31 105.98C129.78 105.98 128.31 104.59 128.31 102.28V99.2ZM134.63 99.2C134.63 97.9 133.82 97.2 132.36 97.2C130.9 97.2 130.1 97.91 130.1 99.2V102.3C130.1 103.61 130.9 104.3 132.36 104.3C133.82 104.3 134.63 103.58 134.63 102.3V99.2ZM148.22 100.26C148.61 100.26 148.7 100.39 148.7 100.74V102.64C148.711 103.088 148.621 103.532 148.437 103.94C148.254 104.348 147.982 104.711 147.64 105C146.792 105.676 145.722 106.011 144.64 105.94C142.05 105.94 140.64 104.55 140.64 102.24V99.14C140.64 96.86 142.1 95.46 144.64 95.46C146.64 95.46 147.94 96.25 148.49 97.83C148.521 97.8894 148.537 97.9551 148.538 98.0219C148.539 98.0888 148.524 98.1549 148.495 98.2151C148.466 98.2753 148.423 98.3279 148.37 98.3687C148.317 98.4094 148.256 98.4373 148.19 98.45L147.41 98.72C147.07 98.84 146.93 98.77 146.81 98.42C146.644 97.9929 146.341 97.6331 145.948 97.3977C145.555 97.1623 145.095 97.0645 144.64 97.12C143.17 97.12 142.37 97.83 142.37 99.12V102.3C142.37 103.61 143.18 104.3 144.64 104.3C146.1 104.3 147 103.63 147 102.65V101.91H144.83C144.47 101.91 144.34 101.77 144.34 101.42V100.74C144.34 100.39 144.47 100.26 144.83 100.26H148.22ZM152.83 99.2C152.83 96.89 154.29 95.5 156.83 95.5C159.37 95.5 160.83 96.89 160.83 99.2V102.28C160.83 104.59 159.36 105.98 156.83 105.98C154.3 105.98 152.83 104.59 152.83 102.28V99.2ZM159.14 99.2C159.14 97.9 158.33 97.2 156.88 97.2C155.43 97.2 154.61 97.91 154.61 99.2V102.3C154.61 103.61 155.42 104.3 156.88 104.3C158.34 104.3 159.14 103.58 159.14 102.3V99.2ZM165.54 96C165.54 95.78 165.61 95.71 165.83 95.71H166.29C166.51 95.71 166.56 95.78 166.56 96V105.48C166.56 105.7 166.56 105.77 166.29 105.77H165.83C165.61 105.77 165.54 105.7 165.54 105.48V96ZM175.67 95.71C176.503 95.71 177.301 96.0408 177.89 96.6297C178.479 97.2185 178.81 98.0172 178.81 98.85C178.81 99.6828 178.479 100.481 177.89 101.07C177.301 101.659 176.503 101.99 175.67 101.99H172.67V105.48C172.67 105.7 172.62 105.77 172.41 105.77H171.94C171.73 105.77 171.65 105.7 171.65 105.48V96C171.65 95.78 171.73 95.71 171.94 95.71H175.67ZM175.58 101C175.866 101 176.15 100.944 176.414 100.834C176.679 100.724 176.919 100.564 177.121 100.361C177.324 100.159 177.484 99.9187 177.594 99.6542C177.704 99.3898 177.76 99.1063 177.76 98.82C177.76 98.5337 177.704 98.2502 177.594 97.9857C177.484 97.7213 177.324 97.4809 177.121 97.2785C176.919 97.0761 176.679 96.9155 176.414 96.8059C176.15 96.6964 175.866 96.64 175.58 96.64H172.58V101H175.58ZM186.62 95.51C187.392 95.4248 188.171 95.5909 188.841 95.9836C189.511 96.3764 190.037 96.9748 190.34 97.69C190.42 97.85 190.34 97.98 190.18 98.06L189.74 98.26C189.56 98.33 189.49 98.32 189.38 98.13C189.153 97.5992 188.764 97.1542 188.268 96.8594C187.772 96.5645 187.195 96.4352 186.62 96.49C184.93 96.49 184.01 97.16 184.01 98.36C184 98.7267 184.123 99.0846 184.357 99.3677C184.59 99.6507 184.918 99.8398 185.28 99.9C185.818 100.075 186.375 100.183 186.94 100.22C187.623 100.256 188.297 100.395 188.94 100.63C189.433 100.786 189.857 101.107 190.141 101.538C190.425 101.97 190.552 102.486 190.5 103C190.5 104.87 189.14 106 186.64 106C185.82 106.094 184.993 105.904 184.296 105.462C183.599 105.019 183.074 104.352 182.81 103.57C182.792 103.534 182.783 103.495 182.782 103.455C182.781 103.416 182.789 103.376 182.806 103.34C182.822 103.304 182.846 103.271 182.876 103.245C182.906 103.22 182.942 103.201 182.98 103.19L183.42 103.03C183.455 103.016 183.492 103.009 183.529 103.01C183.567 103.011 183.604 103.02 183.637 103.036C183.671 103.052 183.701 103.075 183.726 103.103C183.751 103.131 183.769 103.164 183.78 103.2C184.004 103.765 184.401 104.244 184.916 104.568C185.43 104.891 186.034 105.043 186.64 105C188.53 105 189.46 104.34 189.46 103C189.478 102.648 189.37 102.301 189.155 102.021C188.941 101.74 188.635 101.545 188.29 101.47C187.773 101.316 187.239 101.222 186.7 101.19L185.62 101.05C185.282 100.978 184.948 100.888 184.62 100.78C184.296 100.682 183.994 100.522 183.73 100.31C183.465 100.07 183.256 99.7741 183.117 99.4441C182.979 99.114 182.915 98.7575 182.93 98.4C183 96.65 184.31 95.51 186.62 95.51ZM195.89 102.35C195.932 103.057 196.243 103.721 196.759 104.207C197.275 104.693 197.957 104.963 198.665 104.963C199.373 104.963 200.055 104.693 200.571 104.207C201.087 103.721 201.398 103.057 201.44 102.35V96C201.44 95.78 201.51 95.71 201.73 95.71H202.19C202.41 95.71 202.48 95.78 202.48 96V102.34C202.48 104.61 201.14 105.98 198.67 105.98C196.2 105.98 194.86 104.61 194.86 102.34V96C194.86 95.78 194.93 95.71 195.14 95.71H195.61C195.82 95.71 195.89 95.78 195.89 96V102.35ZM216.28 95.71C216.5 95.71 216.57 95.78 216.57 96V105.48C216.57 105.7 216.5 105.77 216.28 105.77H215.86C215.65 105.77 215.58 105.7 215.58 105.48V99.71C215.58 98.8704 215.637 98.0319 215.75 97.2H215.69C215.378 97.9607 215.013 98.6991 214.6 99.41L212.45 103.2C212.424 103.266 212.378 103.322 212.319 103.361C212.26 103.401 212.191 103.421 212.12 103.42H211.84C211.768 103.42 211.698 103.4 211.637 103.361C211.577 103.322 211.529 103.266 211.5 103.2L209.32 99.37C208.933 98.6693 208.599 97.9406 208.32 97.19H208.26C208.362 98.0295 208.416 98.8743 208.42 99.72V105.48C208.42 105.7 208.35 105.77 208.13 105.77H207.74C207.52 105.77 207.45 105.7 207.45 105.48V96C207.45 95.78 207.52 95.71 207.74 95.71H208.1C208.182 95.7023 208.265 95.7203 208.336 95.7615C208.408 95.8027 208.465 95.865 208.5 95.94L212 102.16L215.48 96C215.59 95.79 215.65 95.76 215.87 95.76L216.28 95.71ZM101.94 103.55V110.78C101.94 111.057 101.83 111.323 101.634 111.519C101.438 111.715 101.172 111.825 100.895 111.825C100.618 111.825 100.352 111.715 100.156 111.519C99.9601 111.323 99.85 111.057 99.85 110.78V103.56C100.141 103.772 100.49 103.891 100.85 103.9C101.243 103.911 101.627 103.788 101.94 103.55ZM110.84 101.46C110.575 101.46 110.32 101.565 110.133 101.753C109.945 101.94 109.84 102.195 109.84 102.46V103.72C109.84 103.997 109.95 104.263 110.146 104.459C110.342 104.655 110.608 104.765 110.885 104.765C111.162 104.765 111.428 104.655 111.624 104.459C111.82 104.263 111.93 103.997 111.93 103.72V102.51C111.938 102.367 111.915 102.223 111.862 102.09C111.809 101.956 111.729 101.835 111.625 101.736C111.522 101.636 111.398 101.56 111.263 101.512C111.127 101.465 110.983 101.447 110.84 101.46ZM97.58 106.29C97.2202 106.279 96.8718 106.161 96.58 105.95V113.2C96.58 113.478 96.6906 113.746 96.8875 113.942C97.0844 114.139 97.3515 114.25 97.63 114.25C97.9085 114.25 98.1755 114.139 98.3725 113.942C98.5694 113.746 98.68 113.478 98.68 113.2V106C98.3534 106.211 97.9682 106.313 97.58 106.29ZM107.58 99.29C107.445 99.2832 107.309 99.3041 107.182 99.3513C107.055 99.3985 106.939 99.4711 106.84 99.5646C106.742 99.6581 106.664 99.7707 106.611 99.8954C106.557 100.02 106.53 100.154 106.53 100.29V105.86C106.53 106.138 106.641 106.406 106.838 106.602C107.034 106.799 107.302 106.91 107.58 106.91C107.858 106.91 108.126 106.799 108.322 106.602C108.519 106.406 108.63 106.138 108.63 105.86V100.36C108.638 100.216 108.615 100.071 108.561 99.937C108.508 99.8026 108.427 99.6813 108.322 99.5815C108.217 99.4817 108.092 99.4057 107.956 99.3589C107.819 99.312 107.674 99.2953 107.53 99.31L107.58 99.29ZM104.26 101.43C103.883 101.427 103.517 101.309 103.21 101.09V108.36C103.21 108.638 103.321 108.906 103.518 109.102C103.714 109.299 103.982 109.41 104.26 109.41C104.538 109.41 104.806 109.299 105.002 109.102C105.199 108.906 105.31 108.638 105.31 108.36V101.1C104.993 101.336 104.605 101.46 104.21 101.45L104.26 101.43ZM95.31 107V86.69C95.3074 86.4424 95.2072 86.2059 95.0312 86.0318C94.8552 85.8576 94.6176 85.76 94.37 85.76H94.15C93.9024 85.76 93.6648 85.8576 93.4888 86.0318C93.3128 86.2059 93.2126 86.4424 93.21 86.69V107C93.21 107.249 93.309 107.488 93.4853 107.665C93.6616 107.841 93.9007 107.94 94.15 107.94H94.37C94.6193 107.94 94.8584 107.841 95.0347 107.665C95.211 107.488 95.31 107.249 95.31 107ZM97.69 105.52H97.47C97.2207 105.52 96.9816 105.421 96.8053 105.245C96.629 105.068 96.53 104.829 96.53 104.58V89.11C96.5326 88.8624 96.6328 88.6259 96.8088 88.4518C96.9848 88.2776 97.2224 88.18 97.47 88.18H97.69C97.9376 88.18 98.1752 88.2776 98.3512 88.4518C98.5272 88.6259 98.6274 88.8624 98.63 89.11V104.6C98.63 104.723 98.6057 104.846 98.5584 104.96C98.5112 105.074 98.442 105.177 98.3547 105.265C98.2674 105.352 98.1638 105.421 98.0497 105.468C97.9357 105.516 97.8134 105.54 97.69 105.54V105.52ZM101 103.14H100.77C100.523 103.14 100.287 103.042 100.112 102.868C99.938 102.693 99.84 102.457 99.84 102.21V91.51C99.8387 91.387 99.8617 91.265 99.9079 91.151C99.954 91.037 100.022 90.9333 100.109 90.8459C100.195 90.7585 100.298 90.6891 100.412 90.6417C100.525 90.5944 100.647 90.57 100.77 90.57H101C101.248 90.5726 101.484 90.6728 101.658 90.8488C101.832 91.0248 101.93 91.2624 101.93 91.51V102.21C101.93 102.457 101.832 102.693 101.658 102.868C101.483 103.042 101.247 103.14 101 103.14ZM104.31 100.69H104.1C103.852 100.69 103.615 100.592 103.439 100.418C103.263 100.244 103.163 100.008 103.16 99.76V94C103.152 93.8716 103.17 93.7429 103.214 93.6218C103.257 93.5008 103.325 93.3899 103.413 93.2962C103.501 93.2024 103.608 93.1278 103.726 93.0768C103.844 93.0259 103.971 92.9997 104.1 93H104.32C104.569 93 104.808 93.099 104.985 93.2753C105.161 93.4516 105.26 93.6907 105.26 93.94V99.74C105.261 99.8643 105.238 99.9876 105.191 100.103C105.145 100.218 105.076 100.323 104.988 100.411C104.901 100.5 104.797 100.57 104.682 100.618C104.567 100.665 104.444 100.69 104.32 100.69H104.31ZM107.63 98.54H107.41C107.161 98.54 106.922 98.441 106.745 98.2647C106.569 98.0884 106.47 97.8493 106.47 97.6V96.11C106.473 95.8624 106.573 95.6259 106.749 95.4518C106.925 95.2776 107.162 95.18 107.41 95.18H107.63C107.878 95.18 108.115 95.2776 108.291 95.4518C108.467 95.6259 108.567 95.8624 108.57 96.11V97.6C108.57 97.8476 108.472 98.0852 108.298 98.2612C108.124 98.4372 107.888 98.5374 107.64 98.54H107.63Z" fill="#394149"/>
</svg>
