<svg width="310" height="200" viewBox="0 0 310 200" fill="none" xmlns="http://www.w3.org/2000/svg">
<path d="M59.8854 100.236C65.6367 100.236 70.2989 95.5671 70.2989 89.8085C70.2989 84.0498 65.6367 79.3814 59.8854 79.3814C54.1342 79.3814 49.4718 84.0498 49.4718 89.8085C49.4718 95.5671 54.1342 100.236 59.8854 100.236Z" fill="black"/>
<path d="M59.8854 121.09C65.6367 121.09 70.2989 116.421 70.2989 110.663C70.2989 104.904 65.6367 100.236 59.8854 100.236C54.1342 100.236 49.4718 104.904 49.4718 110.663C49.4718 116.421 54.1342 121.09 59.8854 121.09Z" fill="black"/>
<path d="M104.456 108.726H118.419V104.919H109.068V86.8855H104.456V108.726Z" fill="black"/>
<path d="M127.879 109.046C132.841 109.046 135.93 105.644 135.93 100.599C135.93 95.5233 132.841 92.1321 127.879 92.1321C122.916 92.1321 119.827 95.5233 119.827 100.599C119.827 105.644 122.916 109.046 127.879 109.046ZM127.9 105.527C125.61 105.527 124.439 103.426 124.439 100.568C124.439 97.7096 125.61 95.598 127.9 95.598C130.147 95.598 131.319 97.7096 131.319 100.568C131.319 103.426 130.147 105.527 127.9 105.527Z" fill="black"/>
<path d="M145.35 115.209C150.025 115.209 153.348 113.076 153.348 108.885V92.3455H148.844V95.0966H148.673C148.066 93.7638 146.734 92.1321 143.997 92.1321C140.408 92.1321 137.373 94.9263 137.373 100.504C137.373 105.953 140.323 108.491 144.008 108.491C146.617 108.491 148.077 107.179 148.673 105.825H148.864V108.821C148.864 111.072 147.426 111.946 145.456 111.946C143.454 111.946 142.442 111.072 142.069 110.08L137.874 110.645C138.417 113.226 140.941 115.209 145.35 115.209ZM145.446 105.078C143.22 105.078 142.005 103.308 142.005 100.482C142.005 97.6989 143.199 95.7475 145.446 95.7475C147.65 95.7475 148.886 97.6134 148.886 100.482C148.886 103.372 147.629 105.078 145.446 105.078Z" fill="black"/>
<path d="M163.451 109.046C168.414 109.046 171.502 105.644 171.502 100.599C171.502 95.5233 168.414 92.1321 163.451 92.1321C158.488 92.1321 155.399 95.5233 155.399 100.599C155.399 105.644 158.488 109.046 163.451 109.046ZM163.472 105.527C161.182 105.527 160.011 103.426 160.011 100.568C160.011 97.7096 161.182 95.598 163.472 95.598C165.719 95.598 166.891 97.7096 166.891 100.568C166.891 103.426 165.719 105.527 163.472 105.527Z" fill="black"/>
<path d="M173.553 108.725H178.09V92.3455H173.553V108.725ZM175.832 90.2339C177.184 90.2339 178.292 89.1995 178.292 87.9305C178.292 86.6721 177.184 85.6377 175.832 85.6377C174.49 85.6377 173.383 86.6721 173.383 87.9305C173.383 89.1995 174.49 90.2339 175.832 90.2339Z" fill="black"/>
<path d="M180.824 114.868H185.361V106.102H185.5C186.128 107.467 187.502 108.992 190.143 108.992C193.871 108.992 196.778 106.038 196.778 100.557C196.778 94.9263 193.743 92.1321 190.154 92.1321C187.416 92.1321 186.107 93.7638 185.5 95.0966H185.297V92.3455H180.824V114.868ZM185.265 100.535C185.265 97.6134 186.501 95.7475 188.706 95.7475C190.952 95.7475 192.145 97.6989 192.145 100.535C192.145 103.393 190.931 105.377 188.706 105.377C186.521 105.377 185.265 103.457 185.265 100.535Z" fill="black"/>
<path d="M212.515 97.0162C212.11 93.9987 209.683 92.1321 205.55 92.1321C201.364 92.1321 198.606 94.0727 198.616 97.2296C198.606 99.6825 200.15 101.271 203.345 101.911L206.178 102.477C207.605 102.764 208.255 103.287 208.276 104.108C208.255 105.078 207.201 105.772 205.614 105.772C203.995 105.772 202.919 105.078 202.642 103.745L198.18 103.98C198.606 107.115 201.269 109.046 205.603 109.046C209.842 109.046 212.877 106.881 212.888 103.649C212.877 101.282 211.333 99.8635 208.159 99.2133L205.198 98.6156C203.675 98.2851 203.111 97.7627 203.121 96.9739C203.111 95.9924 204.218 95.353 205.624 95.353C207.201 95.353 208.138 96.2166 208.362 97.272L212.515 97.0162Z" fill="black"/>
<path d="M225.335 101.751C225.346 103.948 223.844 105.1 222.215 105.1C220.5 105.1 219.393 103.895 219.382 101.964V92.3455H214.845V102.775C214.855 106.604 217.092 108.939 220.383 108.939C222.843 108.939 224.61 107.67 225.346 105.75H225.517V108.725H229.872V92.3455H225.335V101.751Z" fill="black"/>
<path d="M232.601 108.725H237.138V98.8929C237.138 97.0802 238.288 95.8753 239.8 95.8753C241.291 95.8753 242.292 96.8991 242.292 98.5092V108.725H246.691V98.7226C246.691 97.027 247.66 95.8753 249.311 95.8753C250.759 95.8753 251.846 96.782 251.846 98.6055V108.725H256.372V97.7096C256.372 94.1582 254.263 92.1321 251.217 92.1321C248.821 92.1321 246.957 93.3585 246.286 95.2352H246.115C245.594 93.337 243.922 92.1321 241.675 92.1321C239.47 92.1321 237.798 93.3053 237.116 95.2352H236.924V92.3455H232.601V108.725Z" fill="black"/>
<path d="M70.2998 79.3813H91.1268L70.2998 100.236V79.3813Z" fill="black"/>
<path d="M80.7134 121.09C86.465 121.09 91.1268 116.421 91.1268 110.663C91.1268 104.904 86.465 100.236 80.7134 100.236C74.9621 100.236 70.2998 104.904 70.2998 110.663C70.2998 116.421 74.9621 121.09 80.7134 121.09Z" fill="black"/>
<path d="M104.456 108.726H118.419V104.919H109.068V86.8855H104.456V108.726Z" fill="black"/>
<path d="M127.879 109.046C132.841 109.046 135.93 105.644 135.93 100.599C135.93 95.5233 132.841 92.1321 127.879 92.1321C122.916 92.1321 119.827 95.5233 119.827 100.599C119.827 105.644 122.916 109.046 127.879 109.046ZM127.9 105.527C125.61 105.527 124.439 103.426 124.439 100.568C124.439 97.7096 125.61 95.598 127.9 95.598C130.147 95.598 131.319 97.7096 131.319 100.568C131.319 103.426 130.147 105.527 127.9 105.527Z" fill="black"/>
<path d="M145.35 115.209C150.025 115.209 153.348 113.076 153.348 108.885V92.3455H148.844V95.0966H148.673C148.066 93.7638 146.734 92.1321 143.997 92.1321C140.408 92.1321 137.373 94.9263 137.373 100.504C137.373 105.953 140.323 108.491 144.008 108.491C146.617 108.491 148.077 107.179 148.673 105.825H148.864V108.821C148.864 111.072 147.426 111.946 145.456 111.946C143.454 111.946 142.442 111.072 142.069 110.08L137.874 110.645C138.417 113.226 140.941 115.209 145.35 115.209ZM145.446 105.078C143.22 105.078 142.005 103.308 142.005 100.482C142.005 97.6989 143.199 95.7475 145.446 95.7475C147.65 95.7475 148.886 97.6134 148.886 100.482C148.886 103.372 147.629 105.078 145.446 105.078Z" fill="black"/>
<path d="M163.451 109.046C168.414 109.046 171.502 105.644 171.502 100.599C171.502 95.5233 168.414 92.1321 163.451 92.1321C158.488 92.1321 155.399 95.5233 155.399 100.599C155.399 105.644 158.488 109.046 163.451 109.046ZM163.472 105.527C161.182 105.527 160.011 103.426 160.011 100.568C160.011 97.7096 161.182 95.598 163.472 95.598C165.719 95.598 166.891 97.7096 166.891 100.568C166.891 103.426 165.719 105.527 163.472 105.527Z" fill="black"/>
<path d="M173.553 108.725H178.09V92.3455H173.553V108.725ZM175.832 90.2339C177.184 90.2339 178.292 89.1995 178.292 87.9305C178.292 86.6721 177.184 85.6377 175.832 85.6377C174.49 85.6377 173.383 86.6721 173.383 87.9305C173.383 89.1995 174.49 90.2339 175.832 90.2339Z" fill="black"/>
<path d="M180.824 114.868H185.361V106.102H185.5C186.128 107.467 187.502 108.992 190.143 108.992C193.871 108.992 196.778 106.038 196.778 100.557C196.778 94.9263 193.743 92.1321 190.154 92.1321C187.416 92.1321 186.107 93.7638 185.5 95.0966H185.297V92.3455H180.824V114.868ZM185.265 100.535C185.265 97.6134 186.501 95.7475 188.706 95.7475C190.952 95.7475 192.145 97.6989 192.145 100.535C192.145 103.393 190.931 105.377 188.706 105.377C186.521 105.377 185.265 103.457 185.265 100.535Z" fill="black"/>
<path d="M212.515 97.0162C212.11 93.9987 209.683 92.1321 205.55 92.1321C201.364 92.1321 198.606 94.0727 198.616 97.2296C198.606 99.6825 200.15 101.271 203.345 101.911L206.178 102.477C207.605 102.764 208.255 103.287 208.276 104.108C208.255 105.078 207.201 105.772 205.614 105.772C203.995 105.772 202.919 105.078 202.642 103.745L198.18 103.98C198.606 107.115 201.269 109.046 205.603 109.046C209.842 109.046 212.877 106.881 212.888 103.649C212.877 101.282 211.333 99.8635 208.159 99.2133L205.198 98.6156C203.675 98.2851 203.111 97.7627 203.121 96.9739C203.111 95.9924 204.218 95.353 205.624 95.353C207.201 95.353 208.138 96.2166 208.362 97.272L212.515 97.0162Z" fill="black"/>
<path d="M225.335 101.751C225.346 103.948 223.844 105.1 222.215 105.1C220.5 105.1 219.393 103.895 219.382 101.964V92.3455H214.845V102.775C214.855 106.604 217.092 108.939 220.383 108.939C222.843 108.939 224.61 107.67 225.346 105.75H225.517V108.725H229.872V92.3455H225.335V101.751Z" fill="black"/>
<path d="M232.601 108.725H237.138V98.8929C237.138 97.0802 238.288 95.8753 239.8 95.8753C241.291 95.8753 242.292 96.8991 242.292 98.5092V108.725H246.691V98.7226C246.691 97.027 247.66 95.8753 249.311 95.8753C250.759 95.8753 251.846 96.782 251.846 98.6055V108.725H256.372V97.7096C256.372 94.1582 254.263 92.1321 251.217 92.1321C248.821 92.1321 246.957 93.3585 246.286 95.2352H246.115C245.594 93.337 243.922 92.1321 241.675 92.1321C239.47 92.1321 237.798 93.3053 237.116 95.2352H236.924V92.3455H232.601V108.725Z" fill="black"/>
</svg>
