<svg width="309" height="200" viewBox="0 0 309 200" fill="none" xmlns="http://www.w3.org/2000/svg">
<path d="M87.0272 97.6729C86.4857 98.2176 86.0712 98.875 85.8129 99.5982C85.5546 100.321 85.459 101.093 85.5329 101.857L85.5072 101.831C85.5832 102.731 85.4617 103.637 85.1516 104.485C84.8414 105.333 84.35 106.103 83.7116 106.742C83.073 107.38 82.3029 107.872 81.4547 108.182C80.6067 108.492 79.7012 108.613 78.8014 108.537L78.8272 108.563C77.7509 108.463 76.6699 108.697 75.7314 109.234C74.7932 109.77 74.0432 110.583 73.5839 111.562C73.1246 112.54 72.9782 113.637 73.1647 114.702C73.3514 115.766 73.8619 116.748 74.6266 117.512C75.3913 118.276 76.373 118.785 77.4379 118.971C78.5029 119.156 79.599 119.009 80.5772 118.549C81.5553 118.089 82.3676 117.338 82.9034 116.399C83.4393 115.46 83.6726 114.379 83.5714 113.303L83.5986 113.329C83.5226 112.429 83.6439 111.523 83.954 110.675C84.2642 109.827 84.7557 109.057 85.3942 108.418C86.0327 107.78 86.8029 107.288 87.6509 106.978C88.499 106.668 89.4044 106.547 90.3043 106.623L90.2772 106.597C91.1563 106.676 92.0413 106.532 92.85 106.178C93.6586 105.824 94.3649 105.272 94.9031 104.572C95.4414 103.872 95.7946 103.048 95.9294 102.176C96.0644 101.303 95.977 100.411 95.6753 99.5814C95.3736 98.7519 94.8673 98.0119 94.2034 97.43C93.5396 96.8481 92.7396 96.4433 91.8776 96.253C91.0156 96.0627 90.1194 96.093 89.2723 96.3411C88.4252 96.5894 87.6544 97.0474 87.0314 97.6729H87.0272Z" fill="#8E3F5A"/>
<path d="M76.4889 105.194L76.4618 105.169C77.2265 105.246 77.9988 105.152 78.7229 104.894C79.4469 104.636 80.1046 104.22 80.6484 103.677C81.1919 103.134 81.6082 102.476 81.8666 101.752C82.1252 101.028 82.2196 100.256 82.1432 99.4914L82.1704 99.5172C82.0944 98.6173 82.2158 97.7119 82.5258 96.8637C82.8359 96.0157 83.3275 95.2456 83.9659 94.607C84.6045 93.9686 85.3746 93.477 86.2226 93.167C87.0708 92.8568 87.9762 92.7355 88.8761 92.8114L88.8489 92.7857C89.9254 92.8869 91.0067 92.6534 91.9455 92.1173C92.8845 91.5812 93.6351 90.7685 94.0951 89.7902C94.5551 88.8118 94.7021 87.7153 94.5161 86.6503C94.3301 85.5853 93.8201 84.6036 93.0555 83.8391C92.2911 83.0746 91.3094 82.5646 90.2444 82.3786C89.1794 82.1925 88.0829 82.3395 87.1045 82.7996C86.1261 83.2596 85.3135 84.0102 84.7774 84.9491C84.2412 85.8879 84.0078 86.9693 84.1089 88.0457L84.0832 88.0186C84.1594 88.9184 84.0382 89.8241 83.7282 90.6722C83.4182 91.5204 82.9266 92.2907 82.2882 92.9293C81.6496 93.5677 80.8794 94.0593 80.0312 94.3693C79.1829 94.6793 78.2774 94.8004 77.3775 94.7243L77.4032 94.7514C76.6385 94.6744 75.8661 94.7683 75.1421 95.0263C74.4181 95.2842 73.7604 95.6999 73.2166 96.2432C72.6729 96.7864 72.2568 97.4439 71.9982 98.1677C71.7398 98.8916 71.6454 99.6637 71.7218 100.429L71.6961 100.403C71.7718 101.303 71.6502 102.208 71.3401 103.056C71.0298 103.904 70.5384 104.674 69.8999 105.312C69.2614 105.951 68.4914 106.442 67.6434 106.753C66.7955 107.063 65.8901 107.184 64.9904 107.109L65.0161 107.134C63.9397 107.033 62.8583 107.267 61.9194 107.803C60.9806 108.339 60.2299 109.151 59.7699 110.13C59.3099 111.108 59.1628 112.205 59.3489 113.27C59.5349 114.335 60.045 115.316 60.8095 116.081C61.5739 116.845 62.5556 117.355 63.6206 117.541C64.6857 117.727 65.7821 117.58 66.7605 117.12C67.7389 116.66 68.5516 115.91 69.0876 114.971C69.6238 114.032 69.8572 112.951 69.7561 111.874L69.7832 111.9C69.7072 111 69.8286 110.095 70.1388 109.247C70.4488 108.399 70.9404 107.628 71.5788 106.99C72.2174 106.351 72.9875 105.86 73.8355 105.55C74.6836 105.24 75.5891 105.118 76.4889 105.194Z" fill="#494582"/>
<path d="M66.914 102.327C67.4555 101.783 67.87 101.125 68.1281 100.402C68.3861 99.6786 68.4813 98.9072 68.4069 98.1429L68.434 98.1686C68.358 97.2686 68.4794 96.3627 68.7897 95.5144C69.1 94.6662 69.5917 93.8959 70.2306 93.2573C70.8695 92.6188 71.6399 92.1273 72.4883 91.8174C73.3367 91.5075 74.2426 91.3865 75.1426 91.4629L75.1155 91.4372C76.1915 91.538 77.2725 91.3044 78.2109 90.7684C79.1493 90.2323 79.8995 89.4198 80.3593 88.4418C80.819 87.4637 80.9659 86.3676 80.7799 85.303C80.5939 84.2384 80.0839 83.2571 79.3197 82.4929C78.5556 81.7287 77.5742 81.2188 76.5096 81.0328C75.445 80.8467 74.3489 80.9936 73.3709 81.4533C72.3927 81.9131 71.5803 82.6633 71.0443 83.6018C70.5082 84.5402 70.2746 85.6211 70.3755 86.6972L70.3497 86.6714C70.4257 87.5712 70.3043 88.4768 69.9942 89.3248C69.684 90.1729 69.1926 90.943 68.5541 91.5815C67.9156 92.2201 67.1454 92.7115 66.2974 93.0216C65.4493 93.3317 64.5438 93.4532 63.644 93.3772L63.6697 93.4029C62.7906 93.324 61.9057 93.4684 61.0971 93.8226C60.2886 94.1767 59.5825 94.7293 59.0444 95.429C58.5062 96.1286 58.1534 96.9529 58.0186 97.8252C57.8837 98.6976 57.9713 99.5899 58.2731 100.419C58.5749 101.249 59.0813 101.989 59.7452 102.57C60.4091 103.152 61.2091 103.557 62.071 103.747C62.933 103.937 63.829 103.907 64.6761 103.659C65.5232 103.411 66.2939 102.953 66.9169 102.327H66.914Z" fill="#113322"/>
<path d="M111.167 88.0786H115.41V108.726H111.167V88.0786Z" fill="black"/>
<path d="M117.813 101.656C117.807 100.172 118.242 98.7197 119.062 97.4831C119.882 96.2466 121.05 95.2811 122.419 94.7093C123.788 94.1373 125.296 93.9846 126.752 94.2704C128.208 94.5563 129.547 95.2677 130.598 96.3148C131.649 97.3618 132.366 98.6974 132.658 100.152C132.95 101.607 132.803 103.116 132.237 104.487C131.67 105.859 130.709 107.031 129.476 107.856C128.243 108.681 126.792 109.121 125.309 109.121C124.324 109.133 123.346 108.947 122.434 108.577C121.521 108.206 120.692 107.657 119.994 106.962C119.296 106.267 118.744 105.439 118.369 104.528C117.995 103.617 117.806 102.641 117.813 101.656ZM128.561 101.656C128.544 101.016 128.338 100.396 127.97 99.8727C127.601 99.3496 127.087 98.9464 126.491 98.714C125.895 98.4814 125.244 98.4297 124.618 98.5654C123.993 98.7011 123.422 99.018 122.976 99.4767C122.53 99.9353 122.228 100.515 122.11 101.144C121.992 101.773 122.062 102.423 122.311 103.012C122.56 103.601 122.977 104.104 123.51 104.458C124.043 104.811 124.669 105 125.309 105C125.747 105.012 126.183 104.932 126.589 104.767C126.995 104.602 127.362 104.355 127.668 104.041C127.973 103.726 128.211 103.352 128.364 102.942C128.518 102.531 128.585 102.093 128.561 101.656Z" fill="black"/>
<path d="M149.715 94.5843V108.013C149.715 112.764 146.009 114.773 142.248 114.773C140.923 114.872 139.597 114.604 138.415 114C137.232 113.395 136.239 112.476 135.545 111.344L139.165 109.251C139.457 109.841 139.922 110.328 140.498 110.647C141.074 110.965 141.734 111.1 142.389 111.033C142.808 111.091 143.234 111.054 143.636 110.925C144.039 110.796 144.407 110.578 144.714 110.288C145.021 109.997 145.258 109.641 145.409 109.247C145.56 108.852 145.62 108.428 145.585 108.007V106.714C145.088 107.322 144.456 107.805 143.738 108.124C143.021 108.444 142.239 108.59 141.455 108.553C139.589 108.494 137.819 107.711 136.52 106.371C135.221 105.03 134.494 103.236 134.494 101.369C134.494 99.5024 135.221 97.7087 136.52 96.368C137.819 95.0271 139.589 94.2445 141.455 94.1857C142.239 94.1481 143.021 94.2948 143.738 94.6141C144.456 94.9334 145.088 95.4164 145.585 96.0243V94.5814L149.715 94.5843ZM145.586 101.371C145.615 100.688 145.438 100.011 145.079 99.4285C144.719 98.846 144.194 98.3844 143.57 98.1031C142.946 97.8217 142.252 97.7335 141.578 97.8498C140.904 97.9661 140.279 98.2815 139.786 98.7557C139.292 99.2297 138.952 99.8405 138.808 100.51C138.665 101.179 138.725 101.876 138.981 102.51C139.237 103.145 139.677 103.689 140.244 104.071C140.811 104.454 141.48 104.658 142.165 104.657C142.611 104.688 143.058 104.626 143.478 104.473C143.898 104.321 144.282 104.082 144.604 103.773C144.926 103.463 145.18 103.09 145.349 102.676C145.519 102.263 145.599 101.818 145.586 101.371Z" fill="black"/>
<path d="M152.117 101.656C152.112 100.172 152.546 98.7197 153.366 97.4831C154.186 96.2466 155.355 95.2811 156.724 94.7093C158.093 94.1373 159.601 93.9846 161.057 94.2704C162.513 94.5563 163.851 95.2677 164.903 96.3148C165.954 97.3618 166.671 98.6974 166.963 100.152C167.254 101.607 167.108 103.116 166.541 104.487C165.975 105.859 165.014 107.031 163.781 107.856C162.547 108.681 161.097 109.121 159.613 109.121C158.628 109.133 157.651 108.947 156.738 108.577C155.826 108.206 154.996 107.657 154.299 106.962C153.601 106.267 153.048 105.439 152.674 104.528C152.299 103.617 152.11 102.641 152.117 101.656ZM162.866 101.656C162.848 101.016 162.642 100.396 162.274 99.8727C161.906 99.3496 161.392 98.9464 160.796 98.714C160.2 98.4814 159.548 98.4297 158.923 98.5654C158.298 98.7011 157.726 99.018 157.28 99.4767C156.834 99.9353 156.533 100.515 156.415 101.144C156.296 101.773 156.366 102.423 156.615 103.012C156.864 103.601 157.281 104.104 157.814 104.458C158.348 104.811 158.973 105 159.613 105C160.051 105.012 160.487 104.932 160.893 104.767C161.299 104.602 161.667 104.355 161.972 104.041C162.278 103.726 162.515 103.352 162.669 102.942C162.823 102.531 162.89 102.093 162.866 101.656Z" fill="black"/>
<path d="M169.087 90.7943C169.087 90.2908 169.236 89.7986 169.516 89.38C169.796 88.9613 170.194 88.635 170.659 88.4424C171.124 88.2497 171.636 88.1993 172.13 88.2975C172.623 88.3957 173.077 88.6382 173.433 88.9942C173.789 89.3502 174.031 89.8038 174.13 90.2976C174.228 90.7915 174.177 91.3033 173.985 91.7685C173.792 92.2337 173.466 92.6312 173.047 92.911C172.629 93.1907 172.136 93.34 171.633 93.34C170.96 93.3333 170.316 93.063 169.84 92.587C169.364 92.111 169.094 91.4674 169.087 90.7943ZM169.516 94.5843H173.76V108.727H169.51L169.516 94.5843Z" fill="black"/>
<path d="M192.08 101.656C192.129 102.59 191.993 103.526 191.679 104.407C191.366 105.289 190.881 106.1 190.252 106.794C189.624 107.488 188.865 108.051 188.019 108.45C187.172 108.85 186.255 109.078 185.32 109.121C184.534 109.164 183.748 109.032 183.019 108.733C182.29 108.435 181.637 107.978 181.107 107.396V114.383H176.864V94.5843H181.107V95.9129C181.638 95.3311 182.291 94.8746 183.019 94.5764C183.748 94.2781 184.534 94.1457 185.32 94.1886C186.255 94.2321 187.172 94.4601 188.019 94.8596C188.866 95.259 189.625 95.8219 190.253 96.5159C190.882 97.2099 191.367 98.0213 191.68 98.9034C191.993 99.7854 192.129 100.721 192.08 101.656ZM187.837 101.656C187.821 100.994 187.609 100.352 187.229 99.8091C186.849 99.2669 186.318 98.8486 185.702 98.6069C185.085 98.365 184.411 98.3103 183.764 98.4497C183.117 98.589 182.525 98.9161 182.063 99.3901C181.601 99.8643 181.288 100.464 181.165 101.115C181.042 101.765 181.114 102.438 181.371 103.048C181.628 103.658 182.06 104.178 182.612 104.545C183.163 104.911 183.811 105.106 184.473 105.106C184.927 105.126 185.381 105.05 185.804 104.882C186.227 104.715 186.61 104.46 186.928 104.134C187.246 103.809 187.491 103.419 187.647 102.992C187.804 102.565 187.869 102.11 187.837 101.656Z" fill="black"/>
<path d="M205.173 104.483C205.173 107.736 202.346 109.121 199.291 109.121C198.057 109.233 196.818 108.972 195.734 108.372C194.65 107.772 193.771 106.861 193.21 105.756L196.886 103.663C197.034 104.174 197.354 104.618 197.791 104.922C198.227 105.225 198.756 105.37 199.286 105.331C200.303 105.331 200.813 105.02 200.813 104.456C200.813 102.899 193.854 103.72 193.854 98.8272C193.854 95.7429 196.457 94.1886 199.399 94.1886C200.504 94.1536 201.599 94.4159 202.569 94.948C203.539 95.4803 204.349 96.2629 204.913 97.2143L201.293 99.1657C201.134 98.7953 200.87 98.4797 200.533 98.2584C200.196 98.0372 199.801 97.92 199.399 97.9214C198.663 97.9214 198.21 98.2072 198.21 98.7129C198.216 100.326 205.173 99.25 205.173 104.483Z" fill="black"/>
<path d="M220.671 94.5842V108.727H216.428V107.397C215.938 107.984 215.317 108.446 214.614 108.746C213.911 109.046 213.148 109.175 212.385 109.123C209.528 109.123 207.1 107.087 207.1 103.266V94.5842H211.342V102.644C211.307 102.981 211.345 103.322 211.455 103.642C211.564 103.963 211.742 104.256 211.977 104.5C212.211 104.745 212.495 104.936 212.811 105.059C213.125 105.183 213.464 105.236 213.802 105.216C215.358 105.216 216.432 104.311 216.432 102.303V94.5885L220.671 94.5842Z" fill="black"/>
<path d="M245 100.043V108.726H240.757V100.41C240.757 98.9957 240.079 98.0914 238.721 98.0914C237.307 98.0914 236.514 99.0814 236.514 100.75V108.726H232.273V100.41C232.273 98.9957 231.594 98.0914 230.236 98.0914C228.821 98.0914 228.03 99.0814 228.03 100.75V108.726H223.787V94.5829H228.03V95.8829C228.47 95.3062 229.047 94.8487 229.709 94.5526C230.371 94.2563 231.097 94.1307 231.82 94.1872C232.546 94.1516 233.269 94.3049 233.919 94.6319C234.567 94.9587 235.12 95.4484 235.524 96.0529C235.994 95.4204 236.617 94.9176 237.334 94.5913C238.051 94.265 238.84 94.126 239.626 94.1872C242.873 94.1886 245 96.5072 245 100.043Z" fill="black"/>
<path d="M248.589 94.4971C250.328 94.4971 251.738 93.0874 251.738 91.3485C251.738 89.6096 250.328 88.2 248.589 88.2C246.85 88.2 245.44 89.6096 245.44 91.3485C245.44 93.0874 246.85 94.4971 248.589 94.4971Z" fill="black"/>
</svg>
