<svg width="309" height="200" viewBox="0 0 309 200" fill="none" xmlns="http://www.w3.org/2000/svg">
<path d="M86.8525 83.1801H70.0176V100.015H86.8525V83.1801Z" fill="black"/>
<path d="M86.8525 100.015H70.0176V116.85H86.8525V100.015Z" fill="black"/>
<path d="M114.461 106.868H125.747V103.795H118.189V89.2377H114.461V106.868Z" fill="black"/>
<path d="M133.395 107.127C137.406 107.127 139.903 104.381 139.903 100.309C139.903 96.2108 137.406 93.4732 133.395 93.4732C129.383 93.4732 126.887 96.2108 126.887 100.309C126.887 104.381 129.383 107.127 133.395 107.127ZM133.412 104.286C131.561 104.286 130.614 102.59 130.614 100.283C130.614 97.9758 131.561 96.2712 133.412 96.2712C135.228 96.2712 136.175 97.9758 136.175 100.283C136.175 102.59 135.228 104.286 133.412 104.286Z" fill="black"/>
<path d="M147.517 112.103C151.297 112.103 153.983 110.381 153.983 106.998V93.6455H150.341V95.8663H150.203C149.713 94.7904 148.636 93.4732 146.424 93.4732C143.523 93.4732 141.069 95.7289 141.069 100.231C141.069 104.63 143.454 106.679 146.433 106.679C148.542 106.679 149.721 105.62 150.203 104.527H150.358V106.946C150.358 108.763 149.196 109.468 147.603 109.468C145.985 109.468 145.167 108.763 144.865 107.962L141.474 108.418C141.913 110.501 143.953 112.103 147.517 112.103ZM147.595 103.924C145.796 103.924 144.814 102.495 144.814 100.214C144.814 97.9671 145.778 96.3918 147.595 96.3918C149.377 96.3918 150.375 97.8981 150.375 100.214C150.375 102.547 149.359 103.924 147.595 103.924Z" fill="black"/>
<path d="M162.149 107.127C166.161 107.127 168.657 104.381 168.657 100.309C168.657 96.2109 166.161 93.4733 162.149 93.4733C158.137 93.4733 155.641 96.2109 155.641 100.309C155.641 104.381 158.137 107.127 162.149 107.127ZM162.166 104.286C160.315 104.286 159.368 102.59 159.368 100.283C159.368 97.9758 160.315 96.2712 162.166 96.2712C163.982 96.2712 164.929 97.9758 164.929 100.283C164.929 102.59 163.982 104.286 162.166 104.286Z" fill="black"/>
<path d="M170.313 106.868H173.981V93.6455H170.313V106.868ZM172.156 91.9408C173.249 91.9408 174.144 91.1058 174.144 90.0814C174.144 89.0655 173.249 88.2305 172.156 88.2305C171.071 88.2305 170.176 89.0655 170.176 90.0814C170.176 91.1058 171.071 91.9408 172.156 91.9408Z" fill="black"/>
<path d="M176.192 111.827H179.859V104.751H179.971C180.479 105.853 181.59 107.084 183.725 107.084C186.738 107.084 189.088 104.699 189.088 100.274C189.088 95.7289 186.634 93.4733 183.733 93.4733C181.521 93.4733 180.462 94.7904 179.971 95.8663H179.808V93.6455H176.192V111.827ZM179.782 100.257C179.782 97.8981 180.781 96.3918 182.563 96.3918C184.379 96.3918 185.343 97.9671 185.343 100.257C185.343 102.564 184.361 104.166 182.563 104.166C180.797 104.166 179.782 102.616 179.782 100.257Z" fill="black"/>
<path d="M201.808 97.4161C201.48 94.9801 199.518 93.4732 196.177 93.4732C192.794 93.4732 190.564 95.0398 190.572 97.5883C190.564 99.5685 191.813 100.851 194.395 101.368L196.685 101.824C197.839 102.056 198.364 102.478 198.381 103.141C198.364 103.924 197.512 104.484 196.229 104.484C194.92 104.484 194.051 103.924 193.827 102.848L190.22 103.037C190.564 105.569 192.717 107.127 196.22 107.127C199.647 107.127 202.1 105.379 202.109 102.771C202.1 100.86 200.852 99.7146 198.286 99.1897L195.893 98.7072C194.662 98.4404 194.206 98.0187 194.214 97.3819C194.206 96.5896 195.101 96.0734 196.237 96.0734C197.512 96.0734 198.269 96.7705 198.45 97.6226L201.808 97.4161Z" fill="black"/>
<path d="M212.171 101.238C212.18 103.012 210.966 103.942 209.649 103.942C208.262 103.942 207.367 102.969 207.359 101.411V93.6455H203.691V102.065C203.7 105.156 205.508 107.041 208.168 107.041C210.157 107.041 211.585 106.016 212.18 104.467H212.318V106.868H215.838V93.6455H212.171V101.238Z" fill="black"/>
<path d="M218.043 106.868H221.71V98.9311C221.71 97.4677 222.64 96.4951 223.863 96.4951C225.068 96.4951 225.877 97.3216 225.877 98.6213V106.868H229.432V98.7936C229.432 97.4248 230.216 96.4951 231.55 96.4951C232.721 96.4951 233.599 97.227 233.599 98.6991V106.868H237.258V97.9758C237.258 95.1089 235.553 93.4733 233.091 93.4733C231.154 93.4733 229.648 94.4633 229.105 95.9783H228.967C228.546 94.4459 227.194 93.4733 225.378 93.4733C223.596 93.4733 222.244 94.4204 221.693 95.9783H221.538V93.6455H218.043V106.868Z" fill="black"/>
<path d="M95.27 100.015C99.9191 100.015 103.687 96.2462 103.687 91.5974C103.687 86.9486 99.9191 83.1799 95.27 83.1799C90.6211 83.1799 86.8525 86.9486 86.8525 91.5974C86.8525 96.2462 90.6211 100.015 95.27 100.015Z" fill="black"/>
<path d="M86.8525 100.015H103.687L86.8525 116.85V100.015Z" fill="black"/>
<path d="M114.461 106.868H125.747V103.795H118.189V89.2377H114.461V106.868Z" fill="black"/>
<path d="M133.395 107.127C137.406 107.127 139.903 104.381 139.903 100.309C139.903 96.2108 137.406 93.4732 133.395 93.4732C129.383 93.4732 126.887 96.2108 126.887 100.309C126.887 104.381 129.383 107.127 133.395 107.127ZM133.412 104.286C131.561 104.286 130.614 102.59 130.614 100.283C130.614 97.9758 131.561 96.2712 133.412 96.2712C135.228 96.2712 136.175 97.9758 136.175 100.283C136.175 102.59 135.228 104.286 133.412 104.286Z" fill="black"/>
<path d="M147.517 112.103C151.297 112.103 153.983 110.381 153.983 106.998V93.6455H150.341V95.8663H150.203C149.713 94.7904 148.636 93.4732 146.424 93.4732C143.523 93.4732 141.069 95.7289 141.069 100.231C141.069 104.63 143.454 106.679 146.433 106.679C148.542 106.679 149.721 105.62 150.203 104.527H150.358V106.946C150.358 108.763 149.196 109.468 147.603 109.468C145.985 109.468 145.167 108.763 144.865 107.962L141.474 108.418C141.913 110.501 143.953 112.103 147.517 112.103ZM147.595 103.924C145.796 103.924 144.814 102.495 144.814 100.214C144.814 97.9671 145.778 96.3918 147.595 96.3918C149.377 96.3918 150.375 97.8981 150.375 100.214C150.375 102.547 149.359 103.924 147.595 103.924Z" fill="black"/>
<path d="M162.149 107.127C166.161 107.127 168.657 104.381 168.657 100.309C168.657 96.2109 166.161 93.4733 162.149 93.4733C158.137 93.4733 155.641 96.2109 155.641 100.309C155.641 104.381 158.137 107.127 162.149 107.127ZM162.166 104.286C160.315 104.286 159.368 102.59 159.368 100.283C159.368 97.9758 160.315 96.2712 162.166 96.2712C163.982 96.2712 164.929 97.9758 164.929 100.283C164.929 102.59 163.982 104.286 162.166 104.286Z" fill="black"/>
<path d="M170.313 106.868H173.981V93.6455H170.313V106.868ZM172.156 91.9408C173.249 91.9408 174.144 91.1058 174.144 90.0814C174.144 89.0655 173.249 88.2305 172.156 88.2305C171.071 88.2305 170.176 89.0655 170.176 90.0814C170.176 91.1058 171.071 91.9408 172.156 91.9408Z" fill="black"/>
<path d="M176.192 111.827H179.859V104.751H179.971C180.479 105.853 181.59 107.084 183.725 107.084C186.738 107.084 189.088 104.699 189.088 100.274C189.088 95.7289 186.634 93.4733 183.733 93.4733C181.521 93.4733 180.462 94.7904 179.971 95.8663H179.808V93.6455H176.192V111.827ZM179.782 100.257C179.782 97.8981 180.781 96.3918 182.563 96.3918C184.379 96.3918 185.343 97.9671 185.343 100.257C185.343 102.564 184.361 104.166 182.563 104.166C180.797 104.166 179.782 102.616 179.782 100.257Z" fill="black"/>
<path d="M201.808 97.4161C201.48 94.9801 199.518 93.4732 196.177 93.4732C192.794 93.4732 190.564 95.0398 190.572 97.5883C190.564 99.5685 191.813 100.851 194.395 101.368L196.685 101.824C197.839 102.056 198.364 102.478 198.381 103.141C198.364 103.924 197.512 104.484 196.229 104.484C194.92 104.484 194.051 103.924 193.827 102.848L190.22 103.037C190.564 105.569 192.717 107.127 196.22 107.127C199.647 107.127 202.1 105.379 202.109 102.771C202.1 100.86 200.852 99.7146 198.286 99.1897L195.893 98.7072C194.662 98.4404 194.206 98.0187 194.214 97.3819C194.206 96.5896 195.101 96.0734 196.237 96.0734C197.512 96.0734 198.269 96.7705 198.45 97.6226L201.808 97.4161Z" fill="black"/>
<path d="M212.171 101.238C212.18 103.012 210.966 103.942 209.649 103.942C208.262 103.942 207.367 102.969 207.359 101.411V93.6455H203.691V102.065C203.7 105.156 205.508 107.041 208.168 107.041C210.157 107.041 211.585 106.016 212.18 104.467H212.318V106.868H215.838V93.6455H212.171V101.238Z" fill="black"/>
<path d="M218.043 106.868H221.71V98.9311C221.71 97.4677 222.64 96.4951 223.863 96.4951C225.068 96.4951 225.877 97.3216 225.877 98.6213V106.868H229.432V98.7936C229.432 97.4248 230.216 96.4951 231.55 96.4951C232.721 96.4951 233.599 97.227 233.599 98.6991V106.868H237.258V97.9758C237.258 95.1089 235.553 93.4733 233.091 93.4733C231.154 93.4733 229.648 94.4633 229.105 95.9783H228.967C228.546 94.4459 227.194 93.4733 225.378 93.4733C223.596 93.4733 222.244 94.4204 221.693 95.9783H221.538V93.6455H218.043V106.868Z" fill="black"/>
</svg>
