<svg width="277" height="92" viewBox="0 0 277 92" fill="none" xmlns="http://www.w3.org/2000/svg">
<path d="M6.57812 18.9828C7.88576 19.0746 9.45863 19.8313 10.7481 20.247C14.7516 21.5373 18.6458 23.1344 22.5979 24.5499L35.5144 29.1772C43.8277 32.0985 54.4278 34.912 59.042 43.26C62.2507 49.0649 60.5192 55.3593 58.4225 61.248C57.4109 64.0889 56.2366 67.4268 54.7121 70.0475C54.417 70.3603 54.0019 70.7365 53.6835 71.0414C52.7316 64.6376 52.5677 58.864 47.2891 54.1456C43.3308 50.6075 38.5911 48.9163 33.7669 47.0301C27.4382 44.5563 21.0329 42.4012 14.7354 39.8534C4.33587 36.0915 -3.20622 34.6032 4.09026 21.6542C4.66006 20.6431 5.38636 19.3465 6.57812 18.9828Z" fill="#444B52"/>
<path d="M196.423 45.7595C199.759 45.8676 203.127 45.7438 206.468 45.7819C218.999 45.9258 224.923 60.0034 216.321 69.2383C212.218 73.1784 208.646 73.1848 203.373 73.165C201.059 73.1555 198.744 73.1593 196.427 73.1762C196.237 66.5836 196.469 59.8934 196.377 53.2906C196.343 50.8047 196.35 48.2429 196.423 45.7595ZM200.986 68.8734C207.241 68.777 207.753 69.8198 213.091 66.1447C216.481 62.5669 216.603 56.2656 212.918 52.7465C209.086 49.0867 205.69 50.3088 200.977 50.0904C201.068 51.4005 201.023 52.7482 201.003 54.0634C200.934 58.9933 201.069 63.9457 200.986 68.8734Z" fill="#444B52"/>
<path d="M144.663 45.6562C149.294 45.8765 155.113 45.2275 159.568 45.9989C166.256 47.157 168.71 56.5685 163.604 61.1237C161.416 63.0733 159.367 63.461 156.522 63.4464C154.046 63.4559 151.571 63.4487 149.095 63.4247C149.31 66.1644 149.148 70.3364 149.203 73.2963C147.708 73.2498 146.212 73.2435 144.716 73.2771C144.475 71.0976 144.567 64.5748 144.607 61.9781C144.689 56.829 144.416 50.6911 144.663 45.6562ZM149.083 59.1951C151.228 59.1313 153.424 59.2184 155.571 59.228C157.777 59.2378 158.563 59.1527 160.316 57.8552C162.196 55.9373 162.377 53.3515 160.389 51.4187C159.818 50.853 159.106 50.4494 158.326 50.2487C156.828 49.8618 151.15 50.2169 149.105 50.0664C149.181 51.8863 149.271 57.484 149.083 59.1951Z" fill="#444B52"/>
<path d="M125.31 45.7483C126.428 45.7861 128.498 45.5873 129.378 46.1015C130.426 47.7546 131.253 50.1041 132.045 51.9055L136.828 62.7371C137.706 64.7276 140.968 71.377 141.377 73.1269C139.835 73.1905 138.117 73.1545 136.56 73.1532C136.149 71.6352 134.196 67.5089 133.47 66.0019C132.533 66.1185 130.756 66.0515 129.742 66.0383C126.872 66.0172 124.002 66.0313 121.133 66.0806C120.008 68.5113 119.104 70.7228 117.885 73.1455C116.42 73.207 114.642 73.1547 113.154 73.1496C113.742 71.1876 115.872 67.1016 116.754 65.064C119.496 58.7306 122.344 51.95 125.31 45.7483ZM123.032 61.7661C124.14 61.6239 126.021 61.6764 127.194 61.6946C128.597 61.6893 130.238 61.641 131.622 61.6879C130.48 59.451 129.519 56.9835 128.439 54.7079C128.234 54.2753 127.487 52.5205 127.3 52.2465C125.914 55.3768 124.361 58.6408 123.032 61.7661Z" fill="#444B52"/>
<path d="M177.352 45.8009C178.464 45.7369 180.112 45.7999 181.263 45.8091C181.916 46.7229 182.941 49.5739 183.487 50.8113C186.741 58.1641 190.395 65.727 193.398 73.1449C191.848 73.1774 190.226 73.1552 188.67 73.1572C187.322 70.7044 186.685 68.523 185.523 66.0179C184.089 66.083 182.388 66.0431 180.936 66.0445C179.385 66.0193 174.359 66.1749 173.136 65.9535C172.347 68.0344 170.883 71.224 169.87 73.1284C168.274 73.1854 166.643 73.1508 165.045 73.1342C167.305 67.7488 169.98 62.1841 172.357 56.8277C173.626 53.9692 175.734 48.3086 177.352 45.8009ZM175.133 61.6588C176.59 61.6811 178.046 61.6926 179.503 61.6933C180.834 61.6779 182.163 61.6782 183.492 61.6945C182.715 60.3159 179.892 52.7485 179.196 52.2556C178.292 53.9915 177.715 55.6282 176.97 57.429C176.386 58.8441 175.687 60.231 175.133 61.6588Z" fill="#444B52"/>
<path d="M224.996 45.6362C226.531 45.7934 230.316 45.7009 231.998 45.7013L245.998 45.6712C245.942 47.1386 246.01 48.6026 245.947 50.1123C240.597 50.1378 234.818 50.2047 229.491 50.0828C229.538 51.4716 229.599 55.9527 229.454 57.1937L244.228 57.1919C244.126 58.4725 244.176 60.2515 244.137 61.6121C240.28 61.6286 236.423 61.6253 232.564 61.6023C231.45 61.6238 230.605 61.6302 229.491 61.5537C229.563 63.6206 229.577 66.8943 229.484 68.9224C230.761 68.7634 233.324 68.8895 234.711 68.878C238.448 68.8472 242.214 68.958 245.953 68.7966C245.987 70.249 245.986 71.7022 245.949 73.1547C238.974 73.2126 231.972 73.0861 224.999 73.1811C224.923 71.57 224.925 69.8708 224.948 68.2572C225.055 60.7447 224.783 53.1385 224.996 45.6362Z" fill="#444B52"/>
<path d="M99.7789 45.2975C104.481 45.0193 107.898 46.1932 111.442 49.3357C110.837 50.1407 109.254 51.8002 108.54 52.6019C106.871 51.3686 105.522 50.206 103.435 49.7759C100.998 49.2735 98.4503 49.6429 96.3597 51.0271C94.0505 52.5475 92.4546 54.9398 91.9354 57.6587C90.9128 62.8113 94.3761 68.2542 99.5442 69.2408C101.917 69.7133 104.38 69.205 106.374 67.8313C106.984 67.4675 107.909 66.7769 108.517 66.3524C109.245 67.2855 110.604 68.5972 111.471 69.4797C107.034 74.5578 98.082 74.9461 92.8247 70.8992C86.4323 65.9784 85.3414 56.8297 90.2707 50.4302C92.5916 47.4171 96.1249 45.892 99.7789 45.2975Z" fill="#444B52"/>
<path d="M270.638 45.7306C271.977 45.8584 274.167 45.8018 275.525 45.7723C274.846 46.9894 273.937 49.3581 273.429 50.6752C270.806 56.2763 268.499 61.8264 265.893 67.4225C264.902 69.5462 264.548 70.9645 263.345 73.16C262.267 73.2053 260.91 73.1522 259.81 73.136C257.752 69.3174 256.45 65.7058 254.712 61.8515L250.408 52.21C249.448 50.0739 248.414 47.9458 247.558 45.7687C248.783 45.8367 251.335 45.5844 252.294 46.0398C253.254 47.1141 255.759 53.4339 256.447 55.0417C257.95 58.5465 260.318 63.0489 261.464 66.5989C262.445 64.1354 263.629 61.5709 264.713 59.1234C266.665 54.7169 268.605 50.0872 270.638 45.7306Z" fill="#444B52"/>
<path d="M85.8383 23.6121C85.9801 23.5864 86.1533 23.6237 86.3033 23.6427C87.161 24.566 86.0157 28.0977 85.3941 28.9773C79.6717 37.0757 73.9403 45.2156 68.3174 53.3837C65.2064 57.9034 62.839 63.1842 59.4667 67.5645C58.6611 68.611 58.0407 69.7425 57.1694 70.7697L56.8041 71.0208L56.5482 70.953C56.5173 70.8792 56.4893 70.8068 56.4693 70.7295C55.8421 68.3219 66.6344 47.0888 68.4939 43.8762C70.0302 41.2223 71.6511 38.5075 73.4003 35.9911C75.693 32.6923 81.0314 26.0819 84.3847 24.1381C84.8328 23.8785 85.3413 23.7443 85.8383 23.6121Z" fill="#444B52"/>
</svg>
