<svg width="218" height="32" viewBox="0 0 217.814 31.7269" fill="none" xmlns="http://www.w3.org/2000/svg">
<g id="Beacon-red-logo-SVG">
<path id="Fill-4544" d="M11.0544 26.9395H5.98729V22.609H11.0544C13.1728 22.609 14.2304 23.3324 14.2304 24.7744C14.2304 26.2185 13.1728 26.9395 11.0544 26.9395ZM5.98729 14.3171H10.1396C12.1754 14.3171 13.1938 14.9986 13.1938 16.3584C13.1938 17.7424 12.1754 18.4339 10.1396 18.4339H5.98729V14.3171ZM19.3004 22.1679C18.6075 21.2648 17.65 20.5968 16.4307 20.1714C17.3458 19.7044 18.0519 19.068 18.5516 18.2653C19.0514 17.4625 19.3004 16.554 19.3004 15.5375C19.3004 13.8288 18.5859 12.4718 17.1635 11.4655C15.7379 10.4596 13.6619 9.95746 10.9326 9.95746H4.59089e-05V31.2992H11.5438C14.3946 31.2992 16.5708 30.7923 18.0782 29.7757C19.5857 28.7592 20.3395 27.3172 20.3395 25.4449C20.3395 24.1641 19.9929 23.0738 19.3004 22.1679Z" fill="var(--fill-0, #444B52)"/>
<path id="Fill-4546" d="M29.4679 26.4827V22.733H38.9645V18.2204H29.4679V14.7741H40.2472V9.95742H23.4835V31.2991H40.644V26.4827H29.4679Z" fill="var(--fill-0, #444B52)"/>
<path id="Fill-4548" d="M51.8511 22.7012L54.5989 15.8726L57.3464 22.7012H51.8511ZM57.6214 9.95752H51.6659L42.2305 31.2992H48.4001L50.0793 27.1533H59.1182L60.7978 31.2992H67.0864L57.6214 9.95752Z" fill="var(--fill-0, #444B52)"/>
<path id="Fill-4550" d="M79.4552 26.7252C78.2946 26.7252 77.2606 26.4716 76.3561 25.9647C75.4489 25.4553 74.7482 24.7397 74.2481 23.8156C73.7483 22.8887 73.4997 21.827 73.4997 20.6283C73.4997 19.4293 73.7483 18.3679 74.2481 17.441C74.7482 16.5169 75.4489 15.8009 76.3561 15.2912C77.2606 14.7843 78.2946 14.531 79.4552 14.531C81.4308 14.531 83.1103 15.3627 84.4932 17.0287L88.341 13.5537C87.3016 12.2547 86.0006 11.2566 84.4323 10.5644C82.8639 9.87544 81.1056 9.52969 79.1482 9.52969C76.9112 9.52969 74.9014 10.0021 73.1189 10.9475C71.3367 11.8929 69.9379 13.2079 68.9195 14.8953C67.9011 16.583 67.3935 18.4945 67.3935 20.6283C67.3935 22.7617 67.9011 24.6736 68.9195 26.3609C69.9379 28.0483 71.3367 29.3633 73.1189 30.3087C74.9014 31.2542 76.9112 31.7269 79.1482 31.7269C81.1056 31.7269 82.8639 31.3811 84.4323 30.6893C86.0006 29.9997 87.3016 29.0044 88.341 27.7023L84.4932 24.2247C83.1103 25.8936 81.4308 26.7252 79.4552 26.7252Z" fill="var(--fill-0, #444B52)"/>
<path id="Fill-4552" d="M106.358 23.8156C105.847 24.7397 105.155 25.4553 104.279 25.9647C103.404 26.4719 102.428 26.7252 101.349 26.7252C100.27 26.7252 99.2913 26.4719 98.4161 25.9647C97.5408 25.4553 96.8505 24.7397 96.3401 23.8156C95.8324 22.8886 95.5785 21.8269 95.5785 20.6282C95.5785 19.4292 95.8324 18.3678 96.3401 17.4409C96.8505 16.5168 97.5408 15.8012 98.4161 15.2915C99.2913 14.7843 100.27 14.531 101.349 14.531C102.428 14.531 103.404 14.7843 104.279 15.2915C105.155 15.8012 105.847 16.5168 106.358 17.4409C106.865 18.3678 107.119 19.4292 107.119 20.6282C107.119 21.8269 106.865 22.8886 106.358 23.8156ZM111.684 14.9272C110.658 13.2398 109.243 11.9195 107.442 10.9635C105.638 10.0074 103.607 9.52966 101.349 9.52966C99.0879 9.52966 97.0596 10.0074 95.2561 10.9635C93.4547 11.9195 92.0402 13.2398 91.0114 14.9272C89.9855 16.6143 89.4697 18.513 89.4697 20.6282C89.4697 22.7435 89.9855 24.6422 91.0114 26.3296C92.0402 28.0166 93.4547 29.3398 95.2561 30.293C97.0596 31.2488 99.0879 31.7268 101.349 31.7268C103.607 31.7268 105.638 31.2488 107.442 30.293C109.243 29.3398 110.658 28.0166 111.684 26.3296C112.712 24.6422 113.228 22.7435 113.228 20.6282C113.228 18.513 112.712 16.6143 111.684 14.9272Z" fill="var(--fill-0, #444B52)"/>
<path id="Fill-4554" d="M130.815 9.9574V21.3306L121.382 9.9574H116.402V31.2991H122.326V19.9259L131.762 31.2991H136.741V9.9574H130.815Z" fill="var(--fill-0, #444B52)"/>
<path id="Fill-4556" d="M162.116 20.1557C161.483 20.6942 160.548 20.9635 159.304 20.9635H155.946V14.7133H159.304C160.548 14.7133 161.483 14.9879 162.116 15.5374C162.745 16.0838 163.062 16.8577 163.062 17.853C163.062 18.8486 162.745 19.6169 162.116 20.1557ZM164.985 24.5919C166.328 23.9424 167.362 23.0418 168.084 21.8932C168.806 20.7444 169.169 19.3977 169.169 17.853C169.169 16.2474 168.783 14.8506 168.008 13.6623C167.236 12.4714 166.136 11.5576 164.71 10.916C163.285 10.2768 161.605 9.9574 159.672 9.9574H149.9V31.2991H155.946V25.6298H159.244L163.123 31.2991H169.597L164.985 24.5919Z" fill="var(--fill-0, #444B52)"/>
<path id="Fill-4558" d="M178.483 26.4828V22.7331H187.979V18.2204H178.483V14.7742H189.262V9.95746H172.498V31.2992H189.659V26.4828H178.483Z" fill="var(--fill-0, #444B52)"/>
<path id="Fill-4560" d="M210.922 14.988C209.926 13.3828 208.522 12.1414 206.71 11.2675C204.896 10.3936 202.82 9.95752 200.479 9.95752H193.017V14.7742H200.236C202.066 14.7742 203.537 15.2918 204.647 16.3293C205.758 17.3647 206.311 18.7985 206.311 20.6285C206.311 22.4585 205.758 23.8895 204.647 24.9274C203.537 25.9653 202.066 26.4828 200.236 26.4828H193.017V31.2992H200.479C202.82 31.2992 204.896 30.8638 206.71 29.9896C208.522 29.1153 209.926 27.8743 210.922 26.269C211.92 24.6635 212.42 22.7833 212.42 20.6285C212.42 18.4738 211.92 16.5936 210.922 14.988Z" fill="var(--fill-0, #444B52)"/>
<path id="Fill-4562" d="M201.445 4.75504H217.814V7.34835e-05H201.445V4.75504Z" fill="var(--fill-0, #FF5622)"/>
</g>
</svg>
