<svg width="309" height="200" viewBox="0 0 309 200" fill="none" xmlns="http://www.w3.org/2000/svg">
<path d="M147.623 124.903H152.032V108.27H147.623V124.903ZM147.623 105.676H152.032V101.721H147.623V105.676Z" fill="black"/>
<path d="M154.873 130.35H159.282V123.022H159.347C160.288 124.449 161.811 125.389 164.146 125.389C168.426 125.389 171.344 121.985 171.344 116.603C171.344 111.415 168.523 107.816 164.113 107.816C161.844 107.816 160.288 108.886 159.218 110.345H159.12V108.27H154.873V130.35ZM163.206 121.725C160.579 121.725 159.185 119.748 159.185 116.732C159.185 113.749 160.288 111.383 163.043 111.383C165.767 111.383 166.869 113.587 166.869 116.732C166.869 119.877 165.443 121.725 163.206 121.725Z" fill="black"/>
<path d="M180.14 125.389C184.29 125.389 187.143 123.379 187.143 120.039C187.143 116.149 184.063 115.371 181.275 114.787C178.908 114.301 176.703 114.171 176.703 112.744C176.703 111.545 177.838 110.896 179.556 110.896C181.437 110.896 182.572 111.545 182.766 113.328H186.754C186.43 109.988 183.998 107.816 179.621 107.816C175.828 107.816 172.845 109.535 172.845 113.133C172.845 116.765 175.763 117.575 178.746 118.159C181.015 118.613 183.123 118.775 183.123 120.364C183.123 121.531 182.02 122.276 180.075 122.276C178.097 122.276 176.736 121.434 176.444 119.521H172.359C172.618 123.055 175.309 125.389 180.14 125.389Z" fill="black"/>
<path d="M203.885 124.903V108.27H199.475V117.867C199.475 120.072 198.211 121.628 196.136 121.628C194.255 121.628 193.38 120.558 193.38 118.613V108.27H189.003V119.358C189.003 122.99 191.078 125.357 194.774 125.357C197.109 125.357 198.405 124.481 199.54 122.957H199.638V124.903H203.885Z" fill="black"/>
<path d="M206.736 124.903H211.146V115.241C211.146 113.036 212.346 111.61 214.129 111.61C215.75 111.61 216.69 112.582 216.69 114.463V124.903H221.1V115.241C221.1 113.036 222.234 111.61 224.082 111.61C225.703 111.61 226.644 112.582 226.644 114.463V124.903H231.053V113.717C231.053 110.086 229.075 107.816 225.574 107.816C223.466 107.816 221.716 108.919 220.581 110.734H220.516C219.705 108.983 218.019 107.816 215.912 107.816C213.61 107.816 211.989 108.983 211.081 110.507H210.984V108.27H206.736V124.903Z" fill="black"/>
<path d="M147.688 96.4147H152.098V73.2328H147.688V96.4147Z" fill="black"/>
<path d="M162.879 96.9011C168.034 96.9011 171.568 93.0753 171.568 88.1147C171.568 83.1541 168.034 79.3282 162.879 79.3282C157.724 79.3282 154.189 83.1541 154.189 88.1147C154.189 93.0753 157.724 96.9011 162.879 96.9011ZM162.879 93.5292C160.155 93.5292 158.664 91.3569 158.664 88.1147C158.664 84.8724 160.155 82.6677 162.879 82.6677C165.57 82.6677 167.094 84.8724 167.094 88.1147C167.094 91.3569 165.57 93.5292 162.879 93.5292Z" fill="black"/>
<path d="M180.945 102.089C183.409 102.089 185.549 101.505 186.943 100.208C188.175 99.0734 188.921 97.4847 188.921 95.1503V79.7821H184.673V81.5329H184.608C183.603 80.1388 182.079 79.3282 180.004 79.3282C175.79 79.3282 172.807 82.5056 172.807 87.4662C172.807 92.4916 176.438 95.4096 180.134 95.4096C182.242 95.4096 183.506 94.5667 184.479 93.4643H184.576V95.2799C184.576 97.5495 183.376 98.7491 180.88 98.7491C178.837 98.7491 177.897 97.9386 177.54 96.9011H173.163C173.617 100.143 176.406 102.089 180.945 102.089ZM180.88 91.8756C178.61 91.8756 177.119 90.2221 177.119 87.4014C177.119 84.6131 178.61 82.8622 180.847 82.8622C183.506 82.8622 184.803 84.9372 184.803 87.369C184.803 89.833 183.668 91.8756 180.88 91.8756Z" fill="black"/>
<path d="M199.639 96.9011C204.794 96.9011 208.329 93.0753 208.329 88.1147C208.329 83.1541 204.794 79.3282 199.639 79.3282C194.484 79.3282 190.95 83.1541 190.95 88.1147C190.95 93.0753 194.484 96.9011 199.639 96.9011ZM199.639 93.5292C196.916 93.5292 195.424 91.3569 195.424 88.1147C195.424 84.8724 196.916 82.6677 199.639 82.6677C202.33 82.6677 203.854 84.8724 203.854 88.1147C203.854 91.3569 202.33 93.5292 199.639 93.5292Z" fill="black"/>
<path d="M212.194 90.0601H231.258V86.2667H212.194V90.0601Z" fill="black"/>
<path d="M232.656 105.445C232.656 104.699 233.261 104.094 234.008 104.094H236.709C237.455 104.094 238.06 104.699 238.06 105.445C238.06 106.191 237.455 106.796 236.709 106.796H234.008C233.261 106.796 232.656 106.191 232.656 105.445Z" fill="black"/>
<path fill-rule="evenodd" clip-rule="evenodd" d="M103.092 68.0786C120.904 68.0786 135.344 82.5181 135.344 100.33C135.344 118.142 120.904 132.582 103.092 132.582C85.2803 132.582 70.8408 118.142 70.8408 100.33C70.8408 82.5181 85.2803 68.0786 103.092 68.0786ZM101.927 70.492C98.2473 71.0098 94.7438 73.9663 92.0242 78.9109C91.2354 80.3452 90.5236 81.9298 89.9032 83.6407C93.6012 82.7114 97.6634 82.1635 101.927 82.0788V70.492ZM87.1775 84.4153C87.9488 81.9945 88.8924 79.7672 89.9814 77.7874C91.3295 75.3361 92.9295 73.2194 94.7322 71.5937C84.9295 74.4406 77.2028 82.1673 74.3559 91.97C75.9816 90.1673 78.0984 88.5673 80.5496 87.2192C82.5294 86.1303 84.7566 85.1866 87.1775 84.4153ZM86.4028 87.141C85.4736 90.839 84.9257 94.9012 84.841 99.1644H73.2542C73.772 95.485 76.7285 91.9815 81.6731 89.262C83.1074 88.4732 84.692 87.7614 86.4028 87.141ZM87.173 99.1644C87.2692 94.5119 87.9389 90.1441 89.0471 86.2849C92.9063 85.1767 97.2743 84.5069 101.927 84.4106V89.4465C100.191 93.8898 96.651 97.4294 92.2076 99.1644H87.173ZM84.841 101.496H73.2542C73.772 105.175 76.7285 108.679 81.6731 111.398C83.1074 112.187 84.692 112.899 86.4028 113.519C85.4736 109.821 84.9257 105.759 84.841 101.496ZM89.0471 114.375C87.9389 110.516 87.2692 106.148 87.173 101.496H92.2076C96.651 103.231 100.191 106.77 101.927 111.214V116.25C97.2743 116.153 92.9063 115.483 89.0471 114.375ZM87.1775 116.245C84.7566 115.474 82.5294 114.53 80.5496 113.441C78.0984 112.093 75.9816 110.493 74.3559 108.69C77.2028 118.493 84.9295 126.22 94.7322 129.066C92.9295 127.441 91.3295 125.324 89.9814 122.873C88.8924 120.893 87.9488 118.666 87.1775 116.245ZM101.927 130.168C98.2473 129.65 94.7438 126.694 92.0242 121.749C91.2354 120.315 90.5236 118.73 89.9032 117.02C93.6012 117.949 97.6634 118.497 101.927 118.581V130.168ZM111.452 129.066C113.255 127.441 114.855 125.324 116.203 122.873C117.292 120.893 118.236 118.666 119.007 116.245C121.428 115.474 123.655 114.53 125.635 113.441C128.086 112.093 130.203 110.493 131.829 108.69C128.982 118.493 121.255 126.22 111.452 129.066ZM116.281 117.02C115.661 118.73 114.949 120.315 114.16 121.749C111.441 126.694 107.937 129.65 104.258 130.168V118.581C108.521 118.497 112.583 117.949 116.281 117.02ZM119.782 113.519C121.493 112.899 123.077 112.187 124.511 111.398C129.456 108.679 132.413 105.175 132.93 101.496H121.344C121.259 105.759 120.711 109.821 119.782 113.519ZM119.012 101.496C118.916 106.148 118.246 110.516 117.137 114.375C113.278 115.483 108.91 116.153 104.258 116.25V111.217C105.993 106.772 109.534 103.231 113.978 101.496H119.012ZM121.344 99.1644H132.93C132.413 95.485 129.456 91.9815 124.511 89.262C123.077 88.4732 121.493 87.7614 119.782 87.141C120.711 90.839 121.259 94.9012 121.344 99.1644ZM117.137 86.2849C118.246 90.1441 118.916 94.5119 119.012 99.1644H113.978C109.534 97.4289 105.993 93.8877 104.258 89.4428V84.4106C108.91 84.5069 113.278 85.1767 117.137 86.2849ZM119.007 84.4153C121.428 85.1866 123.655 86.1303 125.635 87.2192C128.086 88.5673 130.203 90.1673 131.829 91.97C128.982 82.1673 121.255 74.4406 111.452 71.5937C113.255 73.2194 114.855 75.3361 116.203 77.7874C117.292 79.7672 118.236 81.9945 119.007 84.4153ZM104.258 70.492C107.937 71.0098 111.441 73.9663 114.16 78.9109C114.949 80.3452 115.661 81.9298 116.281 83.6407C112.583 82.7114 108.521 82.1635 104.258 82.0788V70.492Z" fill="black"/>
</svg>
